G75*
%MOIN*%
%OFA0B0*%
%FSLAX25Y25*%
%IPPOS*%
%LPD*%
%AMOC8*
5,1,8,0,0,1.08239X$1,22.5*
%
%ADD10R,0.07300X0.07300*%
%ADD11C,0.07300*%
%ADD12C,0.08200*%
D10*
X0190906Y0085825D03*
X0246828Y0085825D03*
X0302749Y0085825D03*
X0358670Y0085825D03*
X0414591Y0085825D03*
X0470513Y0085825D03*
X0526434Y0085825D03*
X0582355Y0085825D03*
X0582355Y0178526D03*
X0526434Y0178526D03*
X0470513Y0178526D03*
X0414591Y0178526D03*
X0358670Y0178526D03*
X0302749Y0178526D03*
X0246828Y0178526D03*
X0190906Y0178526D03*
X0190906Y0271226D03*
X0246828Y0271226D03*
X0302749Y0271226D03*
X0358670Y0271226D03*
X0414591Y0271226D03*
X0470513Y0271226D03*
X0526434Y0271226D03*
X0582355Y0271226D03*
X0582355Y0363927D03*
X0526434Y0363927D03*
X0470513Y0363927D03*
X0414591Y0363927D03*
X0358670Y0363927D03*
X0302749Y0363927D03*
X0246828Y0363927D03*
X0190906Y0363927D03*
D11*
X0190906Y0070077D03*
X0190906Y0077951D03*
X0198780Y0077951D03*
X0198780Y0070077D03*
X0198780Y0085825D03*
X0246828Y0077951D03*
X0254702Y0077951D03*
X0254702Y0070077D03*
X0246828Y0070077D03*
X0254702Y0085825D03*
X0302749Y0077951D03*
X0310623Y0077951D03*
X0310623Y0070077D03*
X0302749Y0070077D03*
X0310623Y0085825D03*
X0358670Y0077951D03*
X0366544Y0077951D03*
X0366544Y0070077D03*
X0358670Y0070077D03*
X0366544Y0085825D03*
X0414591Y0077951D03*
X0414591Y0070077D03*
X0422465Y0070077D03*
X0422465Y0077951D03*
X0422465Y0085825D03*
X0470513Y0077951D03*
X0478387Y0077951D03*
X0478387Y0070077D03*
X0470513Y0070077D03*
X0478387Y0085825D03*
X0526434Y0077951D03*
X0534308Y0077951D03*
X0534308Y0070077D03*
X0526434Y0070077D03*
X0534308Y0085825D03*
X0582355Y0077951D03*
X0582355Y0070077D03*
X0590229Y0070077D03*
X0590229Y0077951D03*
X0590229Y0085825D03*
X0590229Y0162778D03*
X0590229Y0170652D03*
X0590229Y0178526D03*
X0582355Y0170652D03*
X0582355Y0162778D03*
X0534308Y0162778D03*
X0526434Y0162778D03*
X0526434Y0170652D03*
X0534308Y0170652D03*
X0534308Y0178526D03*
X0478387Y0178526D03*
X0478387Y0170652D03*
X0470513Y0170652D03*
X0470513Y0162778D03*
X0478387Y0162778D03*
X0422465Y0162778D03*
X0422465Y0170652D03*
X0422465Y0178526D03*
X0414591Y0170652D03*
X0414591Y0162778D03*
X0366544Y0162778D03*
X0358670Y0162778D03*
X0358670Y0170652D03*
X0366544Y0170652D03*
X0366544Y0178526D03*
X0310623Y0178526D03*
X0310623Y0170652D03*
X0302749Y0170652D03*
X0302749Y0162778D03*
X0310623Y0162778D03*
X0254702Y0162778D03*
X0246828Y0162778D03*
X0246828Y0170652D03*
X0254702Y0170652D03*
X0254702Y0178526D03*
X0198780Y0178526D03*
X0198780Y0170652D03*
X0190906Y0170652D03*
X0190906Y0162778D03*
X0198780Y0162778D03*
X0198780Y0255478D03*
X0190906Y0255478D03*
X0190906Y0263352D03*
X0198780Y0263352D03*
X0198780Y0271226D03*
X0246828Y0263352D03*
X0254702Y0263352D03*
X0254702Y0255478D03*
X0246828Y0255478D03*
X0254702Y0271226D03*
X0302749Y0263352D03*
X0310623Y0263352D03*
X0310623Y0255478D03*
X0302749Y0255478D03*
X0310623Y0271226D03*
X0358670Y0263352D03*
X0366544Y0263352D03*
X0366544Y0255478D03*
X0358670Y0255478D03*
X0366544Y0271226D03*
X0414591Y0263352D03*
X0414591Y0255478D03*
X0422465Y0255478D03*
X0422465Y0263352D03*
X0422465Y0271226D03*
X0470513Y0263352D03*
X0478387Y0263352D03*
X0478387Y0255478D03*
X0470513Y0255478D03*
X0478387Y0271226D03*
X0526434Y0263352D03*
X0534308Y0263352D03*
X0534308Y0255478D03*
X0526434Y0255478D03*
X0534308Y0271226D03*
X0582355Y0263352D03*
X0582355Y0255478D03*
X0590229Y0255478D03*
X0590229Y0263352D03*
X0590229Y0271226D03*
X0590229Y0348179D03*
X0582355Y0348179D03*
X0582355Y0356053D03*
X0590229Y0356053D03*
X0590229Y0363927D03*
X0534308Y0363927D03*
X0534308Y0356053D03*
X0526434Y0356053D03*
X0526434Y0348179D03*
X0534308Y0348179D03*
X0478387Y0348179D03*
X0470513Y0348179D03*
X0470513Y0356053D03*
X0478387Y0356053D03*
X0478387Y0363927D03*
X0422465Y0363927D03*
X0422465Y0356053D03*
X0414591Y0356053D03*
X0414591Y0348179D03*
X0422465Y0348179D03*
X0366544Y0348179D03*
X0358670Y0348179D03*
X0358670Y0356053D03*
X0366544Y0356053D03*
X0366544Y0363927D03*
X0310623Y0363927D03*
X0310623Y0356053D03*
X0302749Y0356053D03*
X0302749Y0348179D03*
X0310623Y0348179D03*
X0254702Y0348179D03*
X0246828Y0348179D03*
X0246828Y0356053D03*
X0254702Y0356053D03*
X0254702Y0363927D03*
X0198780Y0363927D03*
X0198780Y0356053D03*
X0190906Y0356053D03*
X0190906Y0348179D03*
X0198780Y0348179D03*
D12*
X0227843Y0347553D03*
X0227843Y0337553D03*
X0227843Y0327553D03*
X0227843Y0357553D03*
X0227843Y0367553D03*
X0227843Y0377553D03*
X0227843Y0387553D03*
X0283765Y0387553D03*
X0283765Y0377553D03*
X0283765Y0367553D03*
X0283765Y0357553D03*
X0283765Y0347553D03*
X0283765Y0337553D03*
X0283765Y0327553D03*
X0283765Y0294852D03*
X0283765Y0284852D03*
X0283765Y0274852D03*
X0283765Y0264852D03*
X0283765Y0254852D03*
X0283765Y0244852D03*
X0283765Y0234852D03*
X0283765Y0202152D03*
X0283765Y0192152D03*
X0283765Y0182152D03*
X0283765Y0172152D03*
X0283765Y0162152D03*
X0283765Y0152152D03*
X0283765Y0142152D03*
X0283765Y0109451D03*
X0283765Y0099451D03*
X0283765Y0089451D03*
X0283765Y0079451D03*
X0283765Y0069451D03*
X0283765Y0059451D03*
X0283765Y0049451D03*
X0227843Y0049451D03*
X0227843Y0059451D03*
X0227843Y0069451D03*
X0227843Y0079451D03*
X0227843Y0089451D03*
X0227843Y0099451D03*
X0227843Y0109451D03*
X0227843Y0142152D03*
X0227843Y0152152D03*
X0227843Y0162152D03*
X0227843Y0172152D03*
X0227843Y0182152D03*
X0227843Y0192152D03*
X0227843Y0202152D03*
X0227843Y0234852D03*
X0227843Y0244852D03*
X0227843Y0254852D03*
X0227843Y0264852D03*
X0227843Y0274852D03*
X0227843Y0284852D03*
X0227843Y0294852D03*
X0339686Y0294852D03*
X0339686Y0284852D03*
X0339686Y0274852D03*
X0339686Y0264852D03*
X0339686Y0254852D03*
X0339686Y0244852D03*
X0339686Y0234852D03*
X0339686Y0202152D03*
X0339686Y0192152D03*
X0339686Y0182152D03*
X0339686Y0172152D03*
X0339686Y0162152D03*
X0339686Y0152152D03*
X0339686Y0142152D03*
X0339686Y0109451D03*
X0339686Y0099451D03*
X0339686Y0089451D03*
X0339686Y0079451D03*
X0339686Y0069451D03*
X0339686Y0059451D03*
X0339686Y0049451D03*
X0395607Y0049451D03*
X0395607Y0059451D03*
X0395607Y0069451D03*
X0395607Y0079451D03*
X0395607Y0089451D03*
X0395607Y0099451D03*
X0395607Y0109451D03*
X0395607Y0142152D03*
X0395607Y0152152D03*
X0395607Y0162152D03*
X0395607Y0172152D03*
X0395607Y0182152D03*
X0395607Y0192152D03*
X0395607Y0202152D03*
X0395607Y0234852D03*
X0395607Y0244852D03*
X0395607Y0254852D03*
X0395607Y0264852D03*
X0395607Y0274852D03*
X0395607Y0284852D03*
X0395607Y0294852D03*
X0395607Y0327553D03*
X0395607Y0337553D03*
X0395607Y0347553D03*
X0395607Y0357553D03*
X0395607Y0367553D03*
X0395607Y0377553D03*
X0395607Y0387553D03*
X0451528Y0387553D03*
X0451528Y0377553D03*
X0451528Y0367553D03*
X0451528Y0357553D03*
X0451528Y0347553D03*
X0451528Y0337553D03*
X0451528Y0327553D03*
X0451528Y0294852D03*
X0451528Y0284852D03*
X0451528Y0274852D03*
X0451528Y0264852D03*
X0451528Y0254852D03*
X0451528Y0244852D03*
X0451528Y0234852D03*
X0451528Y0202152D03*
X0451528Y0192152D03*
X0451528Y0182152D03*
X0451528Y0172152D03*
X0451528Y0162152D03*
X0451528Y0152152D03*
X0451528Y0142152D03*
X0451528Y0109451D03*
X0451528Y0099451D03*
X0451528Y0089451D03*
X0451528Y0079451D03*
X0451528Y0069451D03*
X0451528Y0059451D03*
X0451528Y0049451D03*
X0507450Y0049451D03*
X0507450Y0059451D03*
X0507450Y0069451D03*
X0507450Y0079451D03*
X0507450Y0089451D03*
X0507450Y0099451D03*
X0507450Y0109451D03*
X0507450Y0142152D03*
X0507450Y0152152D03*
X0507450Y0162152D03*
X0507450Y0172152D03*
X0507450Y0182152D03*
X0507450Y0192152D03*
X0507450Y0202152D03*
X0507450Y0234852D03*
X0507450Y0244852D03*
X0507450Y0254852D03*
X0507450Y0264852D03*
X0507450Y0274852D03*
X0507450Y0284852D03*
X0507450Y0294852D03*
X0507450Y0327553D03*
X0507450Y0337553D03*
X0507450Y0347553D03*
X0507450Y0357553D03*
X0507450Y0367553D03*
X0507450Y0377553D03*
X0507450Y0387553D03*
X0563371Y0387553D03*
X0563371Y0377553D03*
X0563371Y0367553D03*
X0563371Y0357553D03*
X0563371Y0347553D03*
X0563371Y0337553D03*
X0563371Y0327553D03*
X0563371Y0294852D03*
X0563371Y0284852D03*
X0563371Y0274852D03*
X0563371Y0264852D03*
X0563371Y0254852D03*
X0563371Y0244852D03*
X0563371Y0234852D03*
X0563371Y0202152D03*
X0563371Y0192152D03*
X0563371Y0182152D03*
X0563371Y0172152D03*
X0563371Y0162152D03*
X0563371Y0152152D03*
X0563371Y0142152D03*
X0563371Y0109451D03*
X0563371Y0099451D03*
X0563371Y0089451D03*
X0563371Y0079451D03*
X0563371Y0069451D03*
X0563371Y0059451D03*
X0563371Y0049451D03*
X0619292Y0049451D03*
X0619292Y0059451D03*
X0619292Y0069451D03*
X0619292Y0079451D03*
X0619292Y0089451D03*
X0619292Y0099451D03*
X0619292Y0109451D03*
X0619292Y0142152D03*
X0619292Y0152152D03*
X0619292Y0162152D03*
X0619292Y0172152D03*
X0619292Y0182152D03*
X0619292Y0192152D03*
X0619292Y0202152D03*
X0619292Y0234852D03*
X0619292Y0244852D03*
X0619292Y0254852D03*
X0619292Y0264852D03*
X0619292Y0274852D03*
X0619292Y0284852D03*
X0619292Y0294852D03*
X0619292Y0327553D03*
X0619292Y0337553D03*
X0619292Y0347553D03*
X0619292Y0357553D03*
X0619292Y0367553D03*
X0619292Y0377553D03*
X0619292Y0387553D03*
X0339686Y0387553D03*
X0339686Y0377553D03*
X0339686Y0367553D03*
X0339686Y0357553D03*
X0339686Y0347553D03*
X0339686Y0337553D03*
X0339686Y0327553D03*
M02*
