%
M48
M72
T01C0.0120
T02C0.0138
T03C0.0150
T04C0.0394
T05C0.0400
%
T01
X18934Y5345
X19984Y5495
X20384Y5795
X20134Y6045
X21684Y5595
X21284Y7295
X22334Y8445
X21184Y8945
X20284Y10458
X19784Y10445
X25376Y10445
X25876Y10458
X26776Y8945
X27926Y8445
X26876Y7295
X25726Y6045
X25976Y5795
X25576Y5495
X24526Y5345
X27276Y5595
X30119Y5345
X31169Y5495
X31569Y5795
X31319Y6045
X32869Y5595
X32469Y7295
X33519Y8445
X32369Y8945
X31469Y10458
X30969Y10445
X36561Y10445
X37061Y10458
X37961Y8945
X39111Y8445
X38061Y7295
X36911Y6045
X37161Y5795
X36761Y5495
X35711Y5345
X38461Y5595
X41303Y5345
X42353Y5495
X42753Y5795
X42503Y6045
X44053Y5595
X43653Y7295
X44703Y8445
X43553Y8945
X42653Y10458
X42153Y10445
X47745Y10445
X48245Y10458
X49145Y8945
X50295Y8445
X49245Y7295
X48095Y6045
X48345Y5795
X47945Y5495
X46895Y5345
X49645Y5595
X52487Y5345
X53537Y5495
X53937Y5795
X53687Y6045
X55237Y5595
X54837Y7295
X55887Y8445
X54737Y8945
X53837Y10458
X53337Y10445
X58929Y10445
X59429Y10458
X60329Y8945
X61479Y8445
X60429Y7295
X59279Y6045
X59529Y5795
X59129Y5495
X58079Y5345
X60829Y5595
X60829Y14865
X59529Y15065
X59279Y15315
X59129Y14765
X58079Y14615
X55237Y14865
X53937Y15065
X53687Y15315
X53537Y14765
X52487Y14615
X49645Y14865
X48345Y15065
X48095Y15315
X47945Y14765
X46895Y14615
X44053Y14865
X42753Y15065
X42503Y15315
X42353Y14765
X41303Y14615
X38461Y14865
X37161Y15065
X36911Y15315
X36761Y14765
X35711Y14615
X32869Y14865
X31569Y15065
X31319Y15315
X31169Y14765
X30119Y14615
X27276Y14865
X25976Y15065
X25726Y15315
X25576Y14765
X24526Y14615
X21684Y14865
X20384Y15065
X20134Y15315
X19984Y14765
X18934Y14615
X21284Y16565
X22334Y17715
X21184Y18215
X20284Y19728
X19784Y19715
X25376Y19715
X25876Y19728
X26776Y18215
X27926Y17715
X26876Y16565
X30969Y19715
X31469Y19728
X32369Y18215
X33519Y17715
X32469Y16565
X36561Y19715
X37061Y19728
X37961Y18215
X39111Y17715
X38061Y16565
X42153Y19715
X42653Y19728
X43553Y18215
X44703Y17715
X43653Y16565
X47745Y19715
X48245Y19728
X49145Y18215
X50295Y17715
X49245Y16565
X53337Y19715
X53837Y19728
X54737Y18215
X55887Y17715
X54837Y16565
X58929Y19715
X59429Y19728
X60329Y18215
X61479Y17715
X60429Y16565
X60829Y24135
X59529Y24335
X59279Y24585
X59129Y24035
X58079Y23885
X55237Y24135
X53937Y24335
X53687Y24585
X53537Y24035
X52487Y23885
X49645Y24135
X48345Y24335
X48095Y24585
X47945Y24035
X46895Y23885
X44053Y24135
X42753Y24335
X42503Y24585
X42353Y24035
X41303Y23885
X38461Y24135
X37161Y24335
X36911Y24585
X36761Y24035
X35711Y23885
X32869Y24135
X31569Y24335
X31319Y24585
X31169Y24035
X30119Y23885
X27276Y24135
X25976Y24335
X25726Y24585
X25576Y24035
X24526Y23885
X21684Y24135
X20384Y24335
X20134Y24585
X19984Y24035
X18934Y23885
X21284Y25835
X22334Y26985
X21184Y27485
X20284Y28998
X19784Y28985
X25376Y28985
X25876Y28998
X26776Y27485
X27926Y26985
X26876Y25835
X30969Y28985
X31469Y28998
X32369Y27485
X33519Y26985
X32469Y25835
X36561Y28985
X37061Y28998
X37961Y27485
X39111Y26985
X38061Y25835
X42153Y28985
X42653Y28998
X43553Y27485
X44703Y26985
X43653Y25835
X47745Y28985
X48245Y28998
X49145Y27485
X50295Y26985
X49245Y25835
X53337Y28985
X53837Y28998
X54737Y27485
X55887Y26985
X54837Y25835
X58929Y28985
X59429Y28998
X60329Y27485
X61479Y26985
X60429Y25835
X60829Y33405
X59529Y33605
X59279Y33855
X59129Y33305
X58079Y33155
X55237Y33405
X53937Y33605
X53687Y33855
X53537Y33305
X52487Y33155
X49645Y33405
X48345Y33605
X48095Y33855
X47945Y33305
X46895Y33155
X44053Y33405
X42753Y33605
X42503Y33855
X42353Y33305
X41303Y33155
X38461Y33405
X37161Y33605
X36911Y33855
X36761Y33305
X35711Y33155
X32869Y33405
X31569Y33605
X31319Y33855
X31169Y33305
X30119Y33155
X27276Y33405
X25976Y33605
X25726Y33855
X25576Y33305
X24526Y33155
X21684Y33405
X20384Y33605
X20134Y33855
X19984Y33305
X18934Y33155
X21284Y35105
X22334Y36255
X21184Y36755
X20284Y38268
X19784Y38255
X25376Y38255
X25876Y38268
X26776Y36755
X27926Y36255
X26876Y35105
X30969Y38255
X31469Y38268
X32369Y36755
X33519Y36255
X32469Y35105
X36561Y38255
X37061Y38268
X37961Y36755
X39111Y36255
X38061Y35105
X42153Y38255
X42653Y38268
X43553Y36755
X44703Y36255
X43653Y35105
X47745Y38255
X48245Y38268
X49145Y36755
X50295Y36255
X49245Y35105
X53337Y38255
X53837Y38268
X54737Y36755
X55887Y36255
X54837Y35105
X58929Y38255
X59429Y38268
X60329Y36755
X61479Y36255
X60429Y35105
T02
X59829Y37705
X58429Y38255
X54237Y37705
X52837Y38255
X48645Y37705
X47245Y38255
X43053Y37705
X41653Y38255
X37461Y37705
X36061Y38255
X31869Y37705
X30469Y38255
X26276Y37705
X24876Y38255
X20684Y37705
X19284Y38255
X19284Y28985
X20684Y28435
X24876Y28985
X26276Y28435
X30469Y28985
X31869Y28435
X36061Y28985
X37461Y28435
X41653Y28985
X43053Y28435
X47245Y28985
X48645Y28435
X52837Y28985
X54237Y28435
X58429Y28985
X59829Y28435
X58429Y19715
X59829Y19165
X54237Y19165
X52837Y19715
X48645Y19165
X47245Y19715
X43053Y19165
X41653Y19715
X37461Y19165
X36061Y19715
X31869Y19165
X30469Y19715
X26276Y19165
X24876Y19715
X20684Y19165
X19284Y19715
X19284Y10445
X20684Y9895
X24876Y10445
X26276Y9895
X30469Y10445
X31869Y9895
X36061Y10445
X37461Y9895
X41653Y10445
X43053Y9895
X47245Y10445
X48645Y9895
X52837Y10445
X54237Y9895
X58429Y10445
X59829Y9895
T03
X60529Y13115
X58729Y13765
X54937Y13115
X53137Y13765
X49345Y13115
X47545Y13765
X43753Y13115
X41953Y13765
X38161Y13115
X36361Y13765
X32569Y13115
X30769Y13765
X26976Y13115
X25176Y13765
X21384Y13115
X19584Y13765
X21384Y22385
X19584Y23035
X25176Y23035
X26976Y22385
X30769Y23035
X32569Y22385
X36361Y23035
X38161Y22385
X41953Y23035
X43753Y22385
X47545Y23035
X49345Y22385
X53137Y23035
X54937Y22385
X58729Y23035
X60529Y22385
X60529Y31655
X58729Y32305
X54937Y31655
X53137Y32305
X49345Y31655
X47545Y32305
X43753Y31655
X41953Y32305
X38161Y31655
X36361Y32305
X32569Y31655
X30769Y32305
X26976Y31655
X25176Y32305
X21384Y31655
X19584Y32305
X19584Y4495
X21384Y3845
X25176Y4495
X26976Y3845
X30769Y4495
X32569Y3845
X36361Y4495
X38161Y3845
X41953Y4495
X43753Y3845
X47545Y4495
X49345Y3845
X53137Y4495
X54937Y3845
X58729Y4495
X60529Y3845
T04
X59023Y7008
X59023Y7795
X59023Y8582
X58236Y8582
X58236Y7795
X58236Y7008
X53431Y7008
X53431Y7795
X52643Y7795
X52643Y7008
X52643Y8582
X53431Y8582
X47839Y8582
X47051Y8582
X47051Y7795
X47051Y7008
X47839Y7008
X47839Y7795
X42247Y7795
X42247Y7008
X41459Y7008
X41459Y7795
X41459Y8582
X42247Y8582
X36654Y8582
X35867Y8582
X35867Y7795
X35867Y7008
X36654Y7008
X36654Y7795
X31062Y7795
X30275Y7795
X30275Y7008
X31062Y7008
X31062Y8582
X30275Y8582
X25470Y8582
X24683Y8582
X24683Y7795
X25470Y7795
X25470Y7008
X24683Y7008
X19878Y7008
X19878Y7795
X19091Y7795
X19091Y7008
X19091Y8582
X19878Y8582
X19878Y16278
X19091Y16278
X19091Y17065
X19878Y17065
X19878Y17853
X19091Y17853
X24683Y17853
X25470Y17853
X25470Y17065
X24683Y17065
X24683Y16278
X25470Y16278
X30275Y16278
X31062Y16278
X31062Y17065
X30275Y17065
X30275Y17853
X31062Y17853
X35867Y17853
X36654Y17853
X36654Y17065
X35867Y17065
X35867Y16278
X36654Y16278
X41459Y16278
X41459Y17065
X42247Y17065
X42247Y16278
X42247Y17853
X41459Y17853
X47051Y17853
X47839Y17853
X47839Y17065
X47051Y17065
X47051Y16278
X47839Y16278
X52643Y16278
X53431Y16278
X53431Y17065
X52643Y17065
X52643Y17853
X53431Y17853
X58236Y17853
X59023Y17853
X59023Y17065
X59023Y16278
X58236Y16278
X58236Y17065
X58236Y25548
X59023Y25548
X59023Y26335
X58236Y26335
X58236Y27123
X59023Y27123
X53431Y27123
X52643Y27123
X52643Y26335
X53431Y26335
X53431Y25548
X52643Y25548
X47839Y25548
X47051Y25548
X47051Y26335
X47839Y26335
X47839Y27123
X47051Y27123
X42247Y27123
X42247Y26335
X42247Y25548
X41459Y25548
X41459Y26335
X41459Y27123
X36654Y27123
X35867Y27123
X35867Y26335
X36654Y26335
X36654Y25548
X35867Y25548
X31062Y25548
X30275Y25548
X30275Y26335
X31062Y26335
X31062Y27123
X30275Y27123
X25470Y27123
X24683Y27123
X24683Y26335
X25470Y26335
X25470Y25548
X24683Y25548
X19878Y25548
X19091Y25548
X19091Y26335
X19878Y26335
X19878Y27123
X19091Y27123
X19091Y34818
X19878Y34818
X19878Y35605
X19091Y35605
X19091Y36393
X19878Y36393
X24683Y36393
X25470Y36393
X25470Y35605
X24683Y35605
X24683Y34818
X25470Y34818
X30275Y34818
X31062Y34818
X31062Y35605
X30275Y35605
X30275Y36393
X31062Y36393
X35867Y36393
X36654Y36393
X36654Y35605
X35867Y35605
X35867Y34818
X36654Y34818
X41459Y34818
X41459Y35605
X42247Y35605
X42247Y34818
X42247Y36393
X41459Y36393
X47051Y36393
X47839Y36393
X47839Y35605
X47051Y35605
X47051Y34818
X47839Y34818
X52643Y34818
X53431Y34818
X53431Y35605
X52643Y35605
X52643Y36393
X53431Y36393
X58236Y36393
X59023Y36393
X59023Y35605
X59023Y34818
X58236Y34818
X58236Y35605
T05
X56337Y35755
X56337Y34755
X56337Y33755
X56337Y32755
X56337Y29485
X56337Y28485
X56337Y27485
X56337Y26485
X56337Y25485
X56337Y24485
X56337Y23485
X56337Y20215
X56337Y19215
X56337Y18215
X56337Y17215
X56337Y16215
X56337Y15215
X56337Y14215
X56337Y10945
X56337Y9945
X56337Y8945
X56337Y7945
X56337Y6945
X56337Y5945
X56337Y4945
X50745Y4945
X50745Y5945
X50745Y6945
X50745Y7945
X50745Y8945
X50745Y9945
X50745Y10945
X50745Y14215
X50745Y15215
X50745Y16215
X50745Y17215
X50745Y18215
X50745Y19215
X50745Y20215
X50745Y23485
X50745Y24485
X50745Y25485
X50745Y26485
X50745Y27485
X50745Y28485
X50745Y29485
X50745Y32755
X50745Y33755
X50745Y34755
X50745Y35755
X50745Y36755
X50745Y37755
X50745Y38755
X56337Y38755
X56337Y37755
X56337Y36755
X61929Y36755
X61929Y35755
X61929Y34755
X61929Y33755
X61929Y32755
X61929Y29485
X61929Y28485
X61929Y27485
X61929Y26485
X61929Y25485
X61929Y24485
X61929Y23485
X61929Y20215
X61929Y19215
X61929Y18215
X61929Y17215
X61929Y16215
X61929Y15215
X61929Y14215
X61929Y10945
X61929Y9945
X61929Y8945
X61929Y7945
X61929Y6945
X61929Y5945
X61929Y4945
X45153Y4945
X45153Y5945
X45153Y6945
X45153Y7945
X45153Y8945
X45153Y9945
X45153Y10945
X45153Y14215
X45153Y15215
X45153Y16215
X45153Y17215
X45153Y18215
X45153Y19215
X45153Y20215
X45153Y23485
X45153Y24485
X45153Y25485
X45153Y26485
X45153Y27485
X45153Y28485
X45153Y29485
X45153Y32755
X45153Y33755
X45153Y34755
X45153Y35755
X45153Y36755
X45153Y37755
X45153Y38755
X39561Y38755
X39561Y37755
X39561Y36755
X39561Y35755
X39561Y34755
X39561Y33755
X39561Y32755
X39561Y29485
X39561Y28485
X39561Y27485
X39561Y26485
X39561Y25485
X39561Y24485
X39561Y23485
X39561Y20215
X39561Y19215
X39561Y18215
X39561Y17215
X39561Y16215
X39561Y15215
X39561Y14215
X39561Y10945
X39561Y9945
X39561Y8945
X39561Y7945
X39561Y6945
X39561Y5945
X39561Y4945
X33969Y4945
X33969Y5945
X33969Y6945
X33969Y7945
X33969Y8945
X33969Y9945
X33969Y10945
X33969Y14215
X33969Y15215
X33969Y16215
X33969Y17215
X33969Y18215
X33969Y19215
X33969Y20215
X33969Y23485
X33969Y24485
X33969Y25485
X33969Y26485
X33969Y27485
X33969Y28485
X33969Y29485
X33969Y32755
X33969Y33755
X33969Y34755
X33969Y35755
X33969Y36755
X33969Y37755
X33969Y38755
X28376Y38755
X28376Y37755
X28376Y36755
X28376Y35755
X28376Y34755
X28376Y33755
X28376Y32755
X28376Y29485
X28376Y28485
X28376Y27485
X28376Y26485
X28376Y25485
X28376Y24485
X28376Y23485
X28376Y20215
X28376Y19215
X28376Y18215
X28376Y17215
X28376Y16215
X28376Y15215
X28376Y14215
X28376Y10945
X28376Y9945
X28376Y8945
X28376Y7945
X28376Y6945
X28376Y5945
X28376Y4945
X22784Y4945
X22784Y5945
X22784Y6945
X22784Y7945
X22784Y8945
X22784Y9945
X22784Y10945
X22784Y14215
X22784Y15215
X22784Y16215
X22784Y17215
X22784Y18215
X22784Y19215
X22784Y20215
X22784Y23485
X22784Y24485
X22784Y25485
X22784Y26485
X22784Y27485
X22784Y28485
X22784Y29485
X22784Y32755
X22784Y33755
X22784Y34755
X22784Y35755
X22784Y36755
X22784Y37755
X22784Y38755
X61929Y38755
X61929Y37755
M30
