G75*
%MOIN*%
%OFA0B0*%
%FSLAX25Y25*%
%IPPOS*%
%LPD*%
%AMOC8*
5,1,8,0,0,1.08239X$1,22.5*
%
%ADD10R,0.04737X0.05131*%
%ADD11R,0.05524X0.08674*%
%ADD12R,0.03162X0.06115*%
%ADD13R,0.07300X0.07300*%
%ADD14C,0.07300*%
%ADD15R,0.05918X0.05918*%
%ADD16R,0.05524X0.02965*%
%ADD17C,0.08200*%
%ADD18C,0.01990*%
%ADD19R,0.05131X0.04737*%
%ADD20C,0.04737*%
%ADD21C,0.05000*%
%ADD22C,0.06706*%
D10*
X0212843Y0056104D03*
X0212843Y0062797D03*
X0268765Y0062797D03*
X0268765Y0056104D03*
X0324686Y0056104D03*
X0324686Y0062797D03*
X0328686Y0102104D03*
X0328686Y0108797D03*
X0384607Y0108797D03*
X0384607Y0102104D03*
X0380607Y0062797D03*
X0380607Y0056104D03*
X0436528Y0056104D03*
X0436528Y0062797D03*
X0440528Y0102104D03*
X0440528Y0108797D03*
X0436528Y0148805D03*
X0436528Y0155498D03*
X0380607Y0155498D03*
X0380607Y0148805D03*
X0324686Y0148805D03*
X0324686Y0155498D03*
X0328686Y0194805D03*
X0328686Y0201498D03*
X0384607Y0201498D03*
X0384607Y0194805D03*
X0440528Y0194805D03*
X0440528Y0201498D03*
X0436528Y0241506D03*
X0436528Y0248199D03*
X0380607Y0248199D03*
X0380607Y0241506D03*
X0324686Y0241506D03*
X0324686Y0248199D03*
X0328686Y0287506D03*
X0328686Y0294199D03*
X0384607Y0294199D03*
X0384607Y0287506D03*
X0440528Y0287506D03*
X0440528Y0294199D03*
X0436528Y0334207D03*
X0436528Y0340900D03*
X0380607Y0340900D03*
X0380607Y0334207D03*
X0324686Y0334207D03*
X0324686Y0340900D03*
X0328686Y0380207D03*
X0328686Y0386900D03*
X0384607Y0386900D03*
X0384607Y0380207D03*
X0440528Y0380207D03*
X0440528Y0386900D03*
X0496450Y0386900D03*
X0496450Y0380207D03*
X0552371Y0380207D03*
X0552371Y0386900D03*
X0608292Y0386900D03*
X0608292Y0380207D03*
X0604292Y0340900D03*
X0604292Y0334207D03*
X0548371Y0334207D03*
X0548371Y0340900D03*
X0492450Y0340900D03*
X0492450Y0334207D03*
X0496450Y0294199D03*
X0496450Y0287506D03*
X0552371Y0287506D03*
X0552371Y0294199D03*
X0608292Y0294199D03*
X0608292Y0287506D03*
X0604292Y0248199D03*
X0604292Y0241506D03*
X0548371Y0241506D03*
X0548371Y0248199D03*
X0492450Y0248199D03*
X0492450Y0241506D03*
X0496450Y0201498D03*
X0496450Y0194805D03*
X0552371Y0194805D03*
X0552371Y0201498D03*
X0608292Y0201498D03*
X0608292Y0194805D03*
X0604292Y0155498D03*
X0604292Y0148805D03*
X0548371Y0148805D03*
X0548371Y0155498D03*
X0492450Y0155498D03*
X0492450Y0148805D03*
X0496450Y0108797D03*
X0496450Y0102104D03*
X0552371Y0102104D03*
X0552371Y0108797D03*
X0608292Y0108797D03*
X0608292Y0102104D03*
X0604292Y0062797D03*
X0604292Y0056104D03*
X0548371Y0056104D03*
X0548371Y0062797D03*
X0492450Y0062797D03*
X0492450Y0056104D03*
X0272765Y0102104D03*
X0272765Y0108797D03*
X0268765Y0148805D03*
X0268765Y0155498D03*
X0212843Y0155498D03*
X0212843Y0148805D03*
X0216843Y0108797D03*
X0216843Y0102104D03*
X0216843Y0194805D03*
X0216843Y0201498D03*
X0212843Y0241506D03*
X0212843Y0248199D03*
X0268765Y0248199D03*
X0268765Y0241506D03*
X0272765Y0201498D03*
X0272765Y0194805D03*
X0272765Y0287506D03*
X0272765Y0294199D03*
X0268765Y0334207D03*
X0268765Y0340900D03*
X0212843Y0340900D03*
X0212843Y0334207D03*
X0216843Y0294199D03*
X0216843Y0287506D03*
X0216843Y0380207D03*
X0216843Y0386900D03*
X0272765Y0386900D03*
X0272765Y0380207D03*
D11*
X0186820Y0034982D03*
X0208867Y0034982D03*
X0242741Y0034982D03*
X0264788Y0034982D03*
X0298662Y0034982D03*
X0320709Y0034982D03*
X0354583Y0034982D03*
X0376631Y0034982D03*
X0410505Y0034982D03*
X0432552Y0034982D03*
X0466426Y0034982D03*
X0488473Y0034982D03*
X0522347Y0034982D03*
X0544395Y0034982D03*
X0578268Y0034982D03*
X0600316Y0034982D03*
X0600316Y0113388D03*
X0600316Y0127683D03*
X0578268Y0127683D03*
X0578268Y0113388D03*
X0544395Y0113388D03*
X0544395Y0127683D03*
X0522347Y0127683D03*
X0522347Y0113388D03*
X0488473Y0113388D03*
X0488473Y0127683D03*
X0466426Y0127683D03*
X0466426Y0113388D03*
X0432552Y0113388D03*
X0432552Y0127683D03*
X0410505Y0127683D03*
X0410505Y0113388D03*
X0376631Y0113388D03*
X0376631Y0127683D03*
X0354583Y0127683D03*
X0354583Y0113388D03*
X0320709Y0113388D03*
X0320709Y0127683D03*
X0298662Y0127683D03*
X0298662Y0113388D03*
X0264788Y0113388D03*
X0264788Y0127683D03*
X0242741Y0127683D03*
X0242741Y0113388D03*
X0208867Y0113388D03*
X0208867Y0127683D03*
X0186820Y0127683D03*
X0186820Y0113388D03*
X0186820Y0206089D03*
X0186820Y0220384D03*
X0208867Y0220384D03*
X0208867Y0206089D03*
X0242741Y0206089D03*
X0242741Y0220384D03*
X0264788Y0220384D03*
X0264788Y0206089D03*
X0298662Y0206089D03*
X0298662Y0220384D03*
X0320709Y0220384D03*
X0320709Y0206089D03*
X0354583Y0206089D03*
X0354583Y0220384D03*
X0376631Y0220384D03*
X0376631Y0206089D03*
X0410505Y0206089D03*
X0410505Y0220384D03*
X0432552Y0220384D03*
X0432552Y0206089D03*
X0466426Y0206089D03*
X0466426Y0220384D03*
X0488473Y0220384D03*
X0488473Y0206089D03*
X0522347Y0206089D03*
X0522347Y0220384D03*
X0544395Y0220384D03*
X0544395Y0206089D03*
X0578268Y0206089D03*
X0578268Y0220384D03*
X0600316Y0220384D03*
X0600316Y0206089D03*
X0600316Y0298789D03*
X0600316Y0313085D03*
X0578268Y0313085D03*
X0578268Y0298789D03*
X0544395Y0298789D03*
X0544395Y0313085D03*
X0522347Y0313085D03*
X0522347Y0298789D03*
X0488473Y0298789D03*
X0488473Y0313085D03*
X0466426Y0313085D03*
X0466426Y0298789D03*
X0432552Y0298789D03*
X0432552Y0313085D03*
X0410505Y0313085D03*
X0410505Y0298789D03*
X0376631Y0298789D03*
X0376631Y0313085D03*
X0354583Y0313085D03*
X0354583Y0298789D03*
X0320709Y0298789D03*
X0320709Y0313085D03*
X0298662Y0313085D03*
X0298662Y0298789D03*
X0264788Y0298789D03*
X0264788Y0313085D03*
X0242741Y0313085D03*
X0242741Y0298789D03*
X0208867Y0298789D03*
X0208867Y0313085D03*
X0186820Y0313085D03*
X0186820Y0298789D03*
X0186820Y0391490D03*
X0208867Y0391490D03*
X0242741Y0391490D03*
X0264788Y0391490D03*
X0298662Y0391490D03*
X0320709Y0391490D03*
X0354583Y0391490D03*
X0376631Y0391490D03*
X0410505Y0391490D03*
X0432552Y0391490D03*
X0466426Y0391490D03*
X0488473Y0391490D03*
X0522347Y0391490D03*
X0544395Y0391490D03*
X0578268Y0391490D03*
X0600316Y0391490D03*
D12*
X0595198Y0377022D03*
X0591261Y0377022D03*
X0587324Y0377022D03*
X0583387Y0377022D03*
X0539276Y0377022D03*
X0535339Y0377022D03*
X0531402Y0377022D03*
X0527465Y0377022D03*
X0483355Y0377022D03*
X0479418Y0377022D03*
X0475481Y0377022D03*
X0471544Y0377022D03*
X0427434Y0377022D03*
X0423497Y0377022D03*
X0419560Y0377022D03*
X0415623Y0377022D03*
X0371513Y0377022D03*
X0367576Y0377022D03*
X0363639Y0377022D03*
X0359702Y0377022D03*
X0315591Y0377022D03*
X0311654Y0377022D03*
X0307717Y0377022D03*
X0303780Y0377022D03*
X0259670Y0377022D03*
X0255733Y0377022D03*
X0251796Y0377022D03*
X0247859Y0377022D03*
X0203749Y0377022D03*
X0199812Y0377022D03*
X0195875Y0377022D03*
X0191938Y0377022D03*
X0191938Y0327553D03*
X0195875Y0327553D03*
X0199812Y0327553D03*
X0203749Y0327553D03*
X0247859Y0327553D03*
X0251796Y0327553D03*
X0255733Y0327553D03*
X0259670Y0327553D03*
X0303780Y0327553D03*
X0307717Y0327553D03*
X0311654Y0327553D03*
X0315591Y0327553D03*
X0359702Y0327553D03*
X0363639Y0327553D03*
X0367576Y0327553D03*
X0371513Y0327553D03*
X0415623Y0327553D03*
X0419560Y0327553D03*
X0423497Y0327553D03*
X0427434Y0327553D03*
X0471544Y0327553D03*
X0475481Y0327553D03*
X0479418Y0327553D03*
X0483355Y0327553D03*
X0527465Y0327553D03*
X0531402Y0327553D03*
X0535339Y0327553D03*
X0539276Y0327553D03*
X0583387Y0327553D03*
X0587324Y0327553D03*
X0591261Y0327553D03*
X0595198Y0327553D03*
X0595198Y0284321D03*
X0591261Y0284321D03*
X0587324Y0284321D03*
X0583387Y0284321D03*
X0539276Y0284321D03*
X0535339Y0284321D03*
X0531402Y0284321D03*
X0527465Y0284321D03*
X0483355Y0284321D03*
X0479418Y0284321D03*
X0475481Y0284321D03*
X0471544Y0284321D03*
X0427434Y0284321D03*
X0423497Y0284321D03*
X0419560Y0284321D03*
X0415623Y0284321D03*
X0371513Y0284321D03*
X0367576Y0284321D03*
X0363639Y0284321D03*
X0359702Y0284321D03*
X0315591Y0284321D03*
X0311654Y0284321D03*
X0307717Y0284321D03*
X0303780Y0284321D03*
X0259670Y0284321D03*
X0255733Y0284321D03*
X0251796Y0284321D03*
X0247859Y0284321D03*
X0203749Y0284321D03*
X0199812Y0284321D03*
X0195875Y0284321D03*
X0191938Y0284321D03*
X0191938Y0234852D03*
X0195875Y0234852D03*
X0199812Y0234852D03*
X0203749Y0234852D03*
X0247859Y0234852D03*
X0251796Y0234852D03*
X0255733Y0234852D03*
X0259670Y0234852D03*
X0303780Y0234852D03*
X0307717Y0234852D03*
X0311654Y0234852D03*
X0315591Y0234852D03*
X0359702Y0234852D03*
X0363639Y0234852D03*
X0367576Y0234852D03*
X0371513Y0234852D03*
X0415623Y0234852D03*
X0419560Y0234852D03*
X0423497Y0234852D03*
X0427434Y0234852D03*
X0471544Y0234852D03*
X0475481Y0234852D03*
X0479418Y0234852D03*
X0483355Y0234852D03*
X0527465Y0234852D03*
X0531402Y0234852D03*
X0535339Y0234852D03*
X0539276Y0234852D03*
X0583387Y0234852D03*
X0587324Y0234852D03*
X0591261Y0234852D03*
X0595198Y0234852D03*
X0595198Y0191620D03*
X0591261Y0191620D03*
X0587324Y0191620D03*
X0583387Y0191620D03*
X0539276Y0191620D03*
X0535339Y0191620D03*
X0531402Y0191620D03*
X0527465Y0191620D03*
X0483355Y0191620D03*
X0479418Y0191620D03*
X0475481Y0191620D03*
X0471544Y0191620D03*
X0427434Y0191620D03*
X0423497Y0191620D03*
X0419560Y0191620D03*
X0415623Y0191620D03*
X0371513Y0191620D03*
X0367576Y0191620D03*
X0363639Y0191620D03*
X0359702Y0191620D03*
X0315591Y0191620D03*
X0311654Y0191620D03*
X0307717Y0191620D03*
X0303780Y0191620D03*
X0259670Y0191620D03*
X0255733Y0191620D03*
X0251796Y0191620D03*
X0247859Y0191620D03*
X0203749Y0191620D03*
X0199812Y0191620D03*
X0195875Y0191620D03*
X0191938Y0191620D03*
X0191938Y0142152D03*
X0195875Y0142152D03*
X0199812Y0142152D03*
X0203749Y0142152D03*
X0247859Y0142152D03*
X0251796Y0142152D03*
X0255733Y0142152D03*
X0259670Y0142152D03*
X0303780Y0142152D03*
X0307717Y0142152D03*
X0311654Y0142152D03*
X0315591Y0142152D03*
X0359702Y0142152D03*
X0363639Y0142152D03*
X0367576Y0142152D03*
X0371513Y0142152D03*
X0415623Y0142152D03*
X0419560Y0142152D03*
X0423497Y0142152D03*
X0427434Y0142152D03*
X0471544Y0142152D03*
X0475481Y0142152D03*
X0479418Y0142152D03*
X0483355Y0142152D03*
X0527465Y0142152D03*
X0531402Y0142152D03*
X0535339Y0142152D03*
X0539276Y0142152D03*
X0583387Y0142152D03*
X0587324Y0142152D03*
X0591261Y0142152D03*
X0595198Y0142152D03*
X0595198Y0098919D03*
X0591261Y0098919D03*
X0587324Y0098919D03*
X0583387Y0098919D03*
X0539276Y0098919D03*
X0535339Y0098919D03*
X0531402Y0098919D03*
X0527465Y0098919D03*
X0483355Y0098919D03*
X0479418Y0098919D03*
X0475481Y0098919D03*
X0471544Y0098919D03*
X0427434Y0098919D03*
X0423497Y0098919D03*
X0419560Y0098919D03*
X0415623Y0098919D03*
X0371513Y0098919D03*
X0367576Y0098919D03*
X0363639Y0098919D03*
X0359702Y0098919D03*
X0315591Y0098919D03*
X0311654Y0098919D03*
X0307717Y0098919D03*
X0303780Y0098919D03*
X0259670Y0098919D03*
X0255733Y0098919D03*
X0251796Y0098919D03*
X0247859Y0098919D03*
X0203749Y0098919D03*
X0199812Y0098919D03*
X0195875Y0098919D03*
X0191938Y0098919D03*
X0191938Y0049451D03*
X0195875Y0049451D03*
X0199812Y0049451D03*
X0203749Y0049451D03*
X0247859Y0049451D03*
X0251796Y0049451D03*
X0255733Y0049451D03*
X0259670Y0049451D03*
X0303780Y0049451D03*
X0307717Y0049451D03*
X0311654Y0049451D03*
X0315591Y0049451D03*
X0359702Y0049451D03*
X0363639Y0049451D03*
X0367576Y0049451D03*
X0371513Y0049451D03*
X0415623Y0049451D03*
X0419560Y0049451D03*
X0423497Y0049451D03*
X0427434Y0049451D03*
X0471544Y0049451D03*
X0475481Y0049451D03*
X0479418Y0049451D03*
X0483355Y0049451D03*
X0527465Y0049451D03*
X0531402Y0049451D03*
X0535339Y0049451D03*
X0539276Y0049451D03*
X0583387Y0049451D03*
X0587324Y0049451D03*
X0591261Y0049451D03*
X0595198Y0049451D03*
D13*
X0582355Y0085825D03*
X0526434Y0085825D03*
X0470513Y0085825D03*
X0414591Y0085825D03*
X0358670Y0085825D03*
X0302749Y0085825D03*
X0246828Y0085825D03*
X0190906Y0085825D03*
X0190906Y0178526D03*
X0246828Y0178526D03*
X0302749Y0178526D03*
X0358670Y0178526D03*
X0414591Y0178526D03*
X0470513Y0178526D03*
X0526434Y0178526D03*
X0582355Y0178526D03*
X0582355Y0271226D03*
X0526434Y0271226D03*
X0470513Y0271226D03*
X0414591Y0271226D03*
X0358670Y0271226D03*
X0302749Y0271226D03*
X0246828Y0271226D03*
X0190906Y0271226D03*
X0190906Y0363927D03*
X0246828Y0363927D03*
X0302749Y0363927D03*
X0358670Y0363927D03*
X0414591Y0363927D03*
X0470513Y0363927D03*
X0526434Y0363927D03*
X0582355Y0363927D03*
D14*
X0582355Y0356053D03*
X0582355Y0348179D03*
X0590229Y0348179D03*
X0590229Y0356053D03*
X0590229Y0363927D03*
X0534308Y0363927D03*
X0534308Y0356053D03*
X0526434Y0356053D03*
X0526434Y0348179D03*
X0534308Y0348179D03*
X0478387Y0348179D03*
X0470513Y0348179D03*
X0470513Y0356053D03*
X0478387Y0356053D03*
X0478387Y0363927D03*
X0422465Y0363927D03*
X0422465Y0356053D03*
X0414591Y0356053D03*
X0414591Y0348179D03*
X0422465Y0348179D03*
X0366544Y0348179D03*
X0358670Y0348179D03*
X0358670Y0356053D03*
X0366544Y0356053D03*
X0366544Y0363927D03*
X0310623Y0363927D03*
X0310623Y0356053D03*
X0302749Y0356053D03*
X0302749Y0348179D03*
X0310623Y0348179D03*
X0254702Y0348179D03*
X0246828Y0348179D03*
X0246828Y0356053D03*
X0254702Y0356053D03*
X0254702Y0363927D03*
X0198780Y0363927D03*
X0198780Y0356053D03*
X0190906Y0356053D03*
X0190906Y0348179D03*
X0198780Y0348179D03*
X0198780Y0271226D03*
X0198780Y0263352D03*
X0190906Y0263352D03*
X0190906Y0255478D03*
X0198780Y0255478D03*
X0246828Y0255478D03*
X0254702Y0255478D03*
X0254702Y0263352D03*
X0246828Y0263352D03*
X0254702Y0271226D03*
X0302749Y0263352D03*
X0310623Y0263352D03*
X0310623Y0255478D03*
X0302749Y0255478D03*
X0310623Y0271226D03*
X0358670Y0263352D03*
X0366544Y0263352D03*
X0366544Y0255478D03*
X0358670Y0255478D03*
X0366544Y0271226D03*
X0414591Y0263352D03*
X0414591Y0255478D03*
X0422465Y0255478D03*
X0422465Y0263352D03*
X0422465Y0271226D03*
X0470513Y0263352D03*
X0478387Y0263352D03*
X0478387Y0255478D03*
X0470513Y0255478D03*
X0478387Y0271226D03*
X0526434Y0263352D03*
X0534308Y0263352D03*
X0534308Y0255478D03*
X0526434Y0255478D03*
X0534308Y0271226D03*
X0582355Y0263352D03*
X0582355Y0255478D03*
X0590229Y0255478D03*
X0590229Y0263352D03*
X0590229Y0271226D03*
X0590229Y0178526D03*
X0590229Y0170652D03*
X0582355Y0170652D03*
X0582355Y0162778D03*
X0590229Y0162778D03*
X0534308Y0162778D03*
X0526434Y0162778D03*
X0526434Y0170652D03*
X0534308Y0170652D03*
X0534308Y0178526D03*
X0478387Y0178526D03*
X0478387Y0170652D03*
X0470513Y0170652D03*
X0470513Y0162778D03*
X0478387Y0162778D03*
X0422465Y0162778D03*
X0422465Y0170652D03*
X0422465Y0178526D03*
X0414591Y0170652D03*
X0414591Y0162778D03*
X0366544Y0162778D03*
X0358670Y0162778D03*
X0358670Y0170652D03*
X0366544Y0170652D03*
X0366544Y0178526D03*
X0310623Y0178526D03*
X0310623Y0170652D03*
X0302749Y0170652D03*
X0302749Y0162778D03*
X0310623Y0162778D03*
X0254702Y0162778D03*
X0246828Y0162778D03*
X0246828Y0170652D03*
X0254702Y0170652D03*
X0254702Y0178526D03*
X0198780Y0178526D03*
X0198780Y0170652D03*
X0190906Y0170652D03*
X0190906Y0162778D03*
X0198780Y0162778D03*
X0198780Y0085825D03*
X0198780Y0077951D03*
X0190906Y0077951D03*
X0190906Y0070077D03*
X0198780Y0070077D03*
X0246828Y0070077D03*
X0254702Y0070077D03*
X0254702Y0077951D03*
X0246828Y0077951D03*
X0254702Y0085825D03*
X0302749Y0077951D03*
X0310623Y0077951D03*
X0310623Y0070077D03*
X0302749Y0070077D03*
X0310623Y0085825D03*
X0358670Y0077951D03*
X0366544Y0077951D03*
X0366544Y0070077D03*
X0358670Y0070077D03*
X0366544Y0085825D03*
X0414591Y0077951D03*
X0414591Y0070077D03*
X0422465Y0070077D03*
X0422465Y0077951D03*
X0422465Y0085825D03*
X0470513Y0077951D03*
X0478387Y0077951D03*
X0478387Y0070077D03*
X0470513Y0070077D03*
X0478387Y0085825D03*
X0526434Y0077951D03*
X0534308Y0077951D03*
X0534308Y0070077D03*
X0526434Y0070077D03*
X0534308Y0085825D03*
X0582355Y0077951D03*
X0582355Y0070077D03*
X0590229Y0070077D03*
X0590229Y0077951D03*
X0590229Y0085825D03*
D15*
X0604292Y0080356D03*
X0604292Y0068545D03*
X0548371Y0068545D03*
X0548371Y0080356D03*
X0492450Y0080356D03*
X0492450Y0068545D03*
X0436528Y0068545D03*
X0436528Y0080356D03*
X0380607Y0080356D03*
X0380607Y0068545D03*
X0324686Y0068545D03*
X0324686Y0080356D03*
X0268765Y0080356D03*
X0268765Y0068545D03*
X0212843Y0068545D03*
X0212843Y0080356D03*
X0212843Y0161246D03*
X0212843Y0173057D03*
X0268765Y0173057D03*
X0268765Y0161246D03*
X0324686Y0161246D03*
X0324686Y0173057D03*
X0380607Y0173057D03*
X0380607Y0161246D03*
X0436528Y0161246D03*
X0436528Y0173057D03*
X0492450Y0173057D03*
X0492450Y0161246D03*
X0548371Y0161246D03*
X0548371Y0173057D03*
X0604292Y0173057D03*
X0604292Y0161246D03*
X0604292Y0253947D03*
X0604292Y0265758D03*
X0548371Y0265758D03*
X0548371Y0253947D03*
X0492450Y0253947D03*
X0492450Y0265758D03*
X0436528Y0265758D03*
X0436528Y0253947D03*
X0380607Y0253947D03*
X0380607Y0265758D03*
X0324686Y0265758D03*
X0324686Y0253947D03*
X0268765Y0253947D03*
X0268765Y0265758D03*
X0212843Y0265758D03*
X0212843Y0253947D03*
X0212843Y0346648D03*
X0212843Y0358459D03*
X0268765Y0358459D03*
X0268765Y0346648D03*
X0324686Y0346648D03*
X0324686Y0358459D03*
X0380607Y0358459D03*
X0380607Y0346648D03*
X0436528Y0346648D03*
X0436528Y0358459D03*
X0492450Y0358459D03*
X0492450Y0346648D03*
X0548371Y0346648D03*
X0548371Y0358459D03*
X0604292Y0358459D03*
X0604292Y0346648D03*
D16*
X0599174Y0363813D03*
X0599174Y0371293D03*
X0609411Y0371293D03*
X0609411Y0367553D03*
X0609411Y0363813D03*
X0553489Y0363813D03*
X0553489Y0367553D03*
X0553489Y0371293D03*
X0543252Y0371293D03*
X0543252Y0363813D03*
X0497568Y0363813D03*
X0497568Y0367553D03*
X0497568Y0371293D03*
X0487331Y0371293D03*
X0487331Y0363813D03*
X0441647Y0363813D03*
X0441647Y0367553D03*
X0441647Y0371293D03*
X0431410Y0371293D03*
X0431410Y0363813D03*
X0385726Y0363813D03*
X0385726Y0367553D03*
X0385726Y0371293D03*
X0375489Y0371293D03*
X0375489Y0363813D03*
X0329804Y0363813D03*
X0329804Y0367553D03*
X0329804Y0371293D03*
X0319567Y0371293D03*
X0319567Y0363813D03*
X0273883Y0363813D03*
X0273883Y0367553D03*
X0273883Y0371293D03*
X0263646Y0371293D03*
X0263646Y0363813D03*
X0217962Y0363813D03*
X0217962Y0367553D03*
X0217962Y0371293D03*
X0207725Y0371293D03*
X0207725Y0363813D03*
X0207725Y0278593D03*
X0207725Y0271112D03*
X0217962Y0271112D03*
X0217962Y0274852D03*
X0217962Y0278593D03*
X0263646Y0278593D03*
X0263646Y0271112D03*
X0273883Y0271112D03*
X0273883Y0274852D03*
X0273883Y0278593D03*
X0319567Y0278593D03*
X0319567Y0271112D03*
X0329804Y0271112D03*
X0329804Y0274852D03*
X0329804Y0278593D03*
X0375489Y0278593D03*
X0375489Y0271112D03*
X0385726Y0271112D03*
X0385726Y0274852D03*
X0385726Y0278593D03*
X0431410Y0278593D03*
X0431410Y0271112D03*
X0441647Y0271112D03*
X0441647Y0274852D03*
X0441647Y0278593D03*
X0487331Y0278593D03*
X0487331Y0271112D03*
X0497568Y0271112D03*
X0497568Y0274852D03*
X0497568Y0278593D03*
X0543252Y0278593D03*
X0543252Y0271112D03*
X0553489Y0271112D03*
X0553489Y0274852D03*
X0553489Y0278593D03*
X0599174Y0278593D03*
X0599174Y0271112D03*
X0609411Y0271112D03*
X0609411Y0274852D03*
X0609411Y0278593D03*
X0609411Y0185892D03*
X0609411Y0182152D03*
X0609411Y0178411D03*
X0599174Y0178411D03*
X0599174Y0185892D03*
X0553489Y0185892D03*
X0553489Y0182152D03*
X0553489Y0178411D03*
X0543252Y0178411D03*
X0543252Y0185892D03*
X0497568Y0185892D03*
X0497568Y0182152D03*
X0497568Y0178411D03*
X0487331Y0178411D03*
X0487331Y0185892D03*
X0441647Y0185892D03*
X0441647Y0182152D03*
X0441647Y0178411D03*
X0431410Y0178411D03*
X0431410Y0185892D03*
X0385726Y0185892D03*
X0385726Y0182152D03*
X0385726Y0178411D03*
X0375489Y0178411D03*
X0375489Y0185892D03*
X0329804Y0185892D03*
X0329804Y0182152D03*
X0329804Y0178411D03*
X0319567Y0178411D03*
X0319567Y0185892D03*
X0273883Y0185892D03*
X0273883Y0182152D03*
X0273883Y0178411D03*
X0263646Y0178411D03*
X0263646Y0185892D03*
X0217962Y0185892D03*
X0217962Y0182152D03*
X0217962Y0178411D03*
X0207725Y0178411D03*
X0207725Y0185892D03*
X0207725Y0093191D03*
X0207725Y0085711D03*
X0217962Y0085711D03*
X0217962Y0089451D03*
X0217962Y0093191D03*
X0263646Y0093191D03*
X0263646Y0085711D03*
X0273883Y0085711D03*
X0273883Y0089451D03*
X0273883Y0093191D03*
X0319567Y0093191D03*
X0319567Y0085711D03*
X0329804Y0085711D03*
X0329804Y0089451D03*
X0329804Y0093191D03*
X0375489Y0093191D03*
X0375489Y0085711D03*
X0385726Y0085711D03*
X0385726Y0089451D03*
X0385726Y0093191D03*
X0431410Y0093191D03*
X0431410Y0085711D03*
X0441647Y0085711D03*
X0441647Y0089451D03*
X0441647Y0093191D03*
X0487331Y0093191D03*
X0487331Y0085711D03*
X0497568Y0085711D03*
X0497568Y0089451D03*
X0497568Y0093191D03*
X0543252Y0093191D03*
X0543252Y0085711D03*
X0553489Y0085711D03*
X0553489Y0089451D03*
X0553489Y0093191D03*
X0599174Y0093191D03*
X0599174Y0085711D03*
X0609411Y0085711D03*
X0609411Y0089451D03*
X0609411Y0093191D03*
D17*
X0619292Y0089451D03*
X0619292Y0099451D03*
X0619292Y0109451D03*
X0619292Y0079451D03*
X0619292Y0069451D03*
X0619292Y0059451D03*
X0619292Y0049451D03*
X0563371Y0049451D03*
X0563371Y0059451D03*
X0563371Y0069451D03*
X0563371Y0079451D03*
X0563371Y0089451D03*
X0563371Y0099451D03*
X0563371Y0109451D03*
X0563371Y0142152D03*
X0563371Y0152152D03*
X0563371Y0162152D03*
X0563371Y0172152D03*
X0563371Y0182152D03*
X0563371Y0192152D03*
X0563371Y0202152D03*
X0563371Y0234852D03*
X0563371Y0244852D03*
X0563371Y0254852D03*
X0563371Y0264852D03*
X0563371Y0274852D03*
X0563371Y0284852D03*
X0563371Y0294852D03*
X0563371Y0327553D03*
X0563371Y0337553D03*
X0563371Y0347553D03*
X0563371Y0357553D03*
X0563371Y0367553D03*
X0563371Y0377553D03*
X0563371Y0387553D03*
X0619292Y0387553D03*
X0619292Y0377553D03*
X0619292Y0367553D03*
X0619292Y0357553D03*
X0619292Y0347553D03*
X0619292Y0337553D03*
X0619292Y0327553D03*
X0619292Y0294852D03*
X0619292Y0284852D03*
X0619292Y0274852D03*
X0619292Y0264852D03*
X0619292Y0254852D03*
X0619292Y0244852D03*
X0619292Y0234852D03*
X0619292Y0202152D03*
X0619292Y0192152D03*
X0619292Y0182152D03*
X0619292Y0172152D03*
X0619292Y0162152D03*
X0619292Y0152152D03*
X0619292Y0142152D03*
X0507450Y0142152D03*
X0507450Y0152152D03*
X0507450Y0162152D03*
X0507450Y0172152D03*
X0507450Y0182152D03*
X0507450Y0192152D03*
X0507450Y0202152D03*
X0507450Y0234852D03*
X0507450Y0244852D03*
X0507450Y0254852D03*
X0507450Y0264852D03*
X0507450Y0274852D03*
X0507450Y0284852D03*
X0507450Y0294852D03*
X0507450Y0327553D03*
X0507450Y0337553D03*
X0507450Y0347553D03*
X0507450Y0357553D03*
X0507450Y0367553D03*
X0507450Y0377553D03*
X0507450Y0387553D03*
X0451528Y0387553D03*
X0451528Y0377553D03*
X0451528Y0367553D03*
X0451528Y0357553D03*
X0451528Y0347553D03*
X0451528Y0337553D03*
X0451528Y0327553D03*
X0451528Y0294852D03*
X0451528Y0284852D03*
X0451528Y0274852D03*
X0451528Y0264852D03*
X0451528Y0254852D03*
X0451528Y0244852D03*
X0451528Y0234852D03*
X0451528Y0202152D03*
X0451528Y0192152D03*
X0451528Y0182152D03*
X0451528Y0172152D03*
X0451528Y0162152D03*
X0451528Y0152152D03*
X0451528Y0142152D03*
X0451528Y0109451D03*
X0451528Y0099451D03*
X0451528Y0089451D03*
X0451528Y0079451D03*
X0451528Y0069451D03*
X0451528Y0059451D03*
X0451528Y0049451D03*
X0395607Y0049451D03*
X0395607Y0059451D03*
X0395607Y0069451D03*
X0395607Y0079451D03*
X0395607Y0089451D03*
X0395607Y0099451D03*
X0395607Y0109451D03*
X0395607Y0142152D03*
X0395607Y0152152D03*
X0395607Y0162152D03*
X0395607Y0172152D03*
X0395607Y0182152D03*
X0395607Y0192152D03*
X0395607Y0202152D03*
X0395607Y0234852D03*
X0395607Y0244852D03*
X0395607Y0254852D03*
X0395607Y0264852D03*
X0395607Y0274852D03*
X0395607Y0284852D03*
X0395607Y0294852D03*
X0395607Y0327553D03*
X0395607Y0337553D03*
X0395607Y0347553D03*
X0395607Y0357553D03*
X0395607Y0367553D03*
X0395607Y0377553D03*
X0395607Y0387553D03*
X0339686Y0387553D03*
X0339686Y0377553D03*
X0339686Y0367553D03*
X0339686Y0357553D03*
X0339686Y0347553D03*
X0339686Y0337553D03*
X0339686Y0327553D03*
X0339686Y0294852D03*
X0339686Y0284852D03*
X0339686Y0274852D03*
X0339686Y0264852D03*
X0339686Y0254852D03*
X0339686Y0244852D03*
X0339686Y0234852D03*
X0339686Y0202152D03*
X0339686Y0192152D03*
X0339686Y0182152D03*
X0339686Y0172152D03*
X0339686Y0162152D03*
X0339686Y0152152D03*
X0339686Y0142152D03*
X0339686Y0109451D03*
X0339686Y0099451D03*
X0339686Y0089451D03*
X0339686Y0079451D03*
X0339686Y0069451D03*
X0339686Y0059451D03*
X0339686Y0049451D03*
X0283765Y0049451D03*
X0283765Y0059451D03*
X0283765Y0069451D03*
X0283765Y0079451D03*
X0283765Y0089451D03*
X0283765Y0099451D03*
X0283765Y0109451D03*
X0283765Y0142152D03*
X0283765Y0152152D03*
X0283765Y0162152D03*
X0283765Y0172152D03*
X0283765Y0182152D03*
X0283765Y0192152D03*
X0283765Y0202152D03*
X0283765Y0234852D03*
X0283765Y0244852D03*
X0283765Y0254852D03*
X0283765Y0264852D03*
X0283765Y0274852D03*
X0283765Y0284852D03*
X0283765Y0294852D03*
X0283765Y0327553D03*
X0283765Y0337553D03*
X0283765Y0347553D03*
X0283765Y0357553D03*
X0283765Y0367553D03*
X0283765Y0377553D03*
X0283765Y0387553D03*
X0227843Y0387553D03*
X0227843Y0377553D03*
X0227843Y0367553D03*
X0227843Y0357553D03*
X0227843Y0347553D03*
X0227843Y0337553D03*
X0227843Y0327553D03*
X0227843Y0294852D03*
X0227843Y0284852D03*
X0227843Y0274852D03*
X0227843Y0264852D03*
X0227843Y0254852D03*
X0227843Y0244852D03*
X0227843Y0234852D03*
X0227843Y0202152D03*
X0227843Y0192152D03*
X0227843Y0182152D03*
X0227843Y0172152D03*
X0227843Y0162152D03*
X0227843Y0152152D03*
X0227843Y0142152D03*
X0227843Y0109451D03*
X0227843Y0099451D03*
X0227843Y0089451D03*
X0227843Y0079451D03*
X0227843Y0069451D03*
X0227843Y0059451D03*
X0227843Y0049451D03*
X0507450Y0049451D03*
X0507450Y0059451D03*
X0507450Y0069451D03*
X0507450Y0079451D03*
X0507450Y0089451D03*
X0507450Y0099451D03*
X0507450Y0109451D03*
D18*
X0506275Y0134279D02*
X0506275Y0137025D01*
X0506275Y0134279D02*
X0503529Y0134279D01*
X0503529Y0137025D01*
X0506275Y0137025D01*
X0506275Y0136169D02*
X0503529Y0136169D01*
X0499370Y0137025D02*
X0499370Y0134279D01*
X0496624Y0134279D01*
X0496624Y0137025D01*
X0499370Y0137025D01*
X0499370Y0136169D02*
X0496624Y0136169D01*
X0450354Y0137025D02*
X0450354Y0134279D01*
X0447608Y0134279D01*
X0447608Y0137025D01*
X0450354Y0137025D01*
X0450354Y0136169D02*
X0447608Y0136169D01*
X0443449Y0137025D02*
X0443449Y0134279D01*
X0440703Y0134279D01*
X0440703Y0137025D01*
X0443449Y0137025D01*
X0443449Y0136169D02*
X0440703Y0136169D01*
X0394433Y0137025D02*
X0394433Y0134279D01*
X0391687Y0134279D01*
X0391687Y0137025D01*
X0394433Y0137025D01*
X0394433Y0136169D02*
X0391687Y0136169D01*
X0387527Y0137025D02*
X0387527Y0134279D01*
X0384781Y0134279D01*
X0384781Y0137025D01*
X0387527Y0137025D01*
X0387527Y0136169D02*
X0384781Y0136169D01*
X0338512Y0137025D02*
X0338512Y0134279D01*
X0335766Y0134279D01*
X0335766Y0137025D01*
X0338512Y0137025D01*
X0338512Y0136169D02*
X0335766Y0136169D01*
X0331606Y0137025D02*
X0331606Y0134279D01*
X0328860Y0134279D01*
X0328860Y0137025D01*
X0331606Y0137025D01*
X0331606Y0136169D02*
X0328860Y0136169D01*
X0282590Y0137025D02*
X0282590Y0134279D01*
X0279844Y0134279D01*
X0279844Y0137025D01*
X0282590Y0137025D01*
X0282590Y0136169D02*
X0279844Y0136169D01*
X0275685Y0137025D02*
X0275685Y0134279D01*
X0272939Y0134279D01*
X0272939Y0137025D01*
X0275685Y0137025D01*
X0275685Y0136169D02*
X0272939Y0136169D01*
X0226669Y0137025D02*
X0226669Y0134279D01*
X0223923Y0134279D01*
X0223923Y0137025D01*
X0226669Y0137025D01*
X0226669Y0136169D02*
X0223923Y0136169D01*
X0219764Y0137025D02*
X0219764Y0134279D01*
X0217018Y0134279D01*
X0217018Y0137025D01*
X0219764Y0137025D01*
X0219764Y0136169D02*
X0217018Y0136169D01*
X0219764Y0226979D02*
X0219764Y0229725D01*
X0219764Y0226979D02*
X0217018Y0226979D01*
X0217018Y0229725D01*
X0219764Y0229725D01*
X0219764Y0228869D02*
X0217018Y0228869D01*
X0226669Y0229725D02*
X0226669Y0226979D01*
X0223923Y0226979D01*
X0223923Y0229725D01*
X0226669Y0229725D01*
X0226669Y0228869D02*
X0223923Y0228869D01*
X0275685Y0229725D02*
X0275685Y0226979D01*
X0272939Y0226979D01*
X0272939Y0229725D01*
X0275685Y0229725D01*
X0275685Y0228869D02*
X0272939Y0228869D01*
X0282590Y0229725D02*
X0282590Y0226979D01*
X0279844Y0226979D01*
X0279844Y0229725D01*
X0282590Y0229725D01*
X0282590Y0228869D02*
X0279844Y0228869D01*
X0331606Y0229725D02*
X0331606Y0226979D01*
X0328860Y0226979D01*
X0328860Y0229725D01*
X0331606Y0229725D01*
X0331606Y0228869D02*
X0328860Y0228869D01*
X0338512Y0229725D02*
X0338512Y0226979D01*
X0335766Y0226979D01*
X0335766Y0229725D01*
X0338512Y0229725D01*
X0338512Y0228869D02*
X0335766Y0228869D01*
X0387527Y0229725D02*
X0387527Y0226979D01*
X0384781Y0226979D01*
X0384781Y0229725D01*
X0387527Y0229725D01*
X0387527Y0228869D02*
X0384781Y0228869D01*
X0394433Y0229725D02*
X0394433Y0226979D01*
X0391687Y0226979D01*
X0391687Y0229725D01*
X0394433Y0229725D01*
X0394433Y0228869D02*
X0391687Y0228869D01*
X0443449Y0229725D02*
X0443449Y0226979D01*
X0440703Y0226979D01*
X0440703Y0229725D01*
X0443449Y0229725D01*
X0443449Y0228869D02*
X0440703Y0228869D01*
X0450354Y0229725D02*
X0450354Y0226979D01*
X0447608Y0226979D01*
X0447608Y0229725D01*
X0450354Y0229725D01*
X0450354Y0228869D02*
X0447608Y0228869D01*
X0499370Y0229725D02*
X0499370Y0226979D01*
X0496624Y0226979D01*
X0496624Y0229725D01*
X0499370Y0229725D01*
X0499370Y0228869D02*
X0496624Y0228869D01*
X0506275Y0229725D02*
X0506275Y0226979D01*
X0503529Y0226979D01*
X0503529Y0229725D01*
X0506275Y0229725D01*
X0506275Y0228869D02*
X0503529Y0228869D01*
X0555291Y0229725D02*
X0555291Y0226979D01*
X0552545Y0226979D01*
X0552545Y0229725D01*
X0555291Y0229725D01*
X0555291Y0228869D02*
X0552545Y0228869D01*
X0562197Y0229725D02*
X0562197Y0226979D01*
X0559451Y0226979D01*
X0559451Y0229725D01*
X0562197Y0229725D01*
X0562197Y0228869D02*
X0559451Y0228869D01*
X0611212Y0229725D02*
X0611212Y0226979D01*
X0608466Y0226979D01*
X0608466Y0229725D01*
X0611212Y0229725D01*
X0611212Y0228869D02*
X0608466Y0228869D01*
X0618118Y0229725D02*
X0618118Y0226979D01*
X0615372Y0226979D01*
X0615372Y0229725D01*
X0618118Y0229725D01*
X0618118Y0228869D02*
X0615372Y0228869D01*
X0618118Y0319680D02*
X0618118Y0322426D01*
X0618118Y0319680D02*
X0615372Y0319680D01*
X0615372Y0322426D01*
X0618118Y0322426D01*
X0618118Y0321570D02*
X0615372Y0321570D01*
X0611212Y0322426D02*
X0611212Y0319680D01*
X0608466Y0319680D01*
X0608466Y0322426D01*
X0611212Y0322426D01*
X0611212Y0321570D02*
X0608466Y0321570D01*
X0562197Y0322426D02*
X0562197Y0319680D01*
X0559451Y0319680D01*
X0559451Y0322426D01*
X0562197Y0322426D01*
X0562197Y0321570D02*
X0559451Y0321570D01*
X0555291Y0322426D02*
X0555291Y0319680D01*
X0552545Y0319680D01*
X0552545Y0322426D01*
X0555291Y0322426D01*
X0555291Y0321570D02*
X0552545Y0321570D01*
X0506275Y0322426D02*
X0506275Y0319680D01*
X0503529Y0319680D01*
X0503529Y0322426D01*
X0506275Y0322426D01*
X0506275Y0321570D02*
X0503529Y0321570D01*
X0499370Y0322426D02*
X0499370Y0319680D01*
X0496624Y0319680D01*
X0496624Y0322426D01*
X0499370Y0322426D01*
X0499370Y0321570D02*
X0496624Y0321570D01*
X0450354Y0322426D02*
X0450354Y0319680D01*
X0447608Y0319680D01*
X0447608Y0322426D01*
X0450354Y0322426D01*
X0450354Y0321570D02*
X0447608Y0321570D01*
X0443449Y0322426D02*
X0443449Y0319680D01*
X0440703Y0319680D01*
X0440703Y0322426D01*
X0443449Y0322426D01*
X0443449Y0321570D02*
X0440703Y0321570D01*
X0394433Y0322426D02*
X0394433Y0319680D01*
X0391687Y0319680D01*
X0391687Y0322426D01*
X0394433Y0322426D01*
X0394433Y0321570D02*
X0391687Y0321570D01*
X0387527Y0322426D02*
X0387527Y0319680D01*
X0384781Y0319680D01*
X0384781Y0322426D01*
X0387527Y0322426D01*
X0387527Y0321570D02*
X0384781Y0321570D01*
X0338512Y0322426D02*
X0338512Y0319680D01*
X0335766Y0319680D01*
X0335766Y0322426D01*
X0338512Y0322426D01*
X0338512Y0321570D02*
X0335766Y0321570D01*
X0331606Y0322426D02*
X0331606Y0319680D01*
X0328860Y0319680D01*
X0328860Y0322426D01*
X0331606Y0322426D01*
X0331606Y0321570D02*
X0328860Y0321570D01*
X0282590Y0322426D02*
X0282590Y0319680D01*
X0279844Y0319680D01*
X0279844Y0322426D01*
X0282590Y0322426D01*
X0282590Y0321570D02*
X0279844Y0321570D01*
X0275685Y0322426D02*
X0275685Y0319680D01*
X0272939Y0319680D01*
X0272939Y0322426D01*
X0275685Y0322426D01*
X0275685Y0321570D02*
X0272939Y0321570D01*
X0226669Y0322426D02*
X0226669Y0319680D01*
X0223923Y0319680D01*
X0223923Y0322426D01*
X0226669Y0322426D01*
X0226669Y0321570D02*
X0223923Y0321570D01*
X0219764Y0322426D02*
X0219764Y0319680D01*
X0217018Y0319680D01*
X0217018Y0322426D01*
X0219764Y0322426D01*
X0219764Y0321570D02*
X0217018Y0321570D01*
X0555291Y0137025D02*
X0555291Y0134279D01*
X0552545Y0134279D01*
X0552545Y0137025D01*
X0555291Y0137025D01*
X0555291Y0136169D02*
X0552545Y0136169D01*
X0562197Y0137025D02*
X0562197Y0134279D01*
X0559451Y0134279D01*
X0559451Y0137025D01*
X0562197Y0137025D01*
X0562197Y0136169D02*
X0559451Y0136169D01*
X0611212Y0137025D02*
X0611212Y0134279D01*
X0608466Y0134279D01*
X0608466Y0137025D01*
X0611212Y0137025D01*
X0611212Y0136169D02*
X0608466Y0136169D01*
X0618118Y0137025D02*
X0618118Y0134279D01*
X0615372Y0134279D01*
X0615372Y0137025D01*
X0618118Y0137025D01*
X0618118Y0136169D02*
X0615372Y0136169D01*
X0618118Y0044324D02*
X0618118Y0041578D01*
X0615372Y0041578D01*
X0615372Y0044324D01*
X0618118Y0044324D01*
X0618118Y0043468D02*
X0615372Y0043468D01*
X0611212Y0044324D02*
X0611212Y0041578D01*
X0608466Y0041578D01*
X0608466Y0044324D01*
X0611212Y0044324D01*
X0611212Y0043468D02*
X0608466Y0043468D01*
X0562197Y0044324D02*
X0562197Y0041578D01*
X0559451Y0041578D01*
X0559451Y0044324D01*
X0562197Y0044324D01*
X0562197Y0043468D02*
X0559451Y0043468D01*
X0555291Y0044324D02*
X0555291Y0041578D01*
X0552545Y0041578D01*
X0552545Y0044324D01*
X0555291Y0044324D01*
X0555291Y0043468D02*
X0552545Y0043468D01*
X0506275Y0044324D02*
X0506275Y0041578D01*
X0503529Y0041578D01*
X0503529Y0044324D01*
X0506275Y0044324D01*
X0506275Y0043468D02*
X0503529Y0043468D01*
X0499370Y0044324D02*
X0499370Y0041578D01*
X0496624Y0041578D01*
X0496624Y0044324D01*
X0499370Y0044324D01*
X0499370Y0043468D02*
X0496624Y0043468D01*
X0450354Y0044324D02*
X0450354Y0041578D01*
X0447608Y0041578D01*
X0447608Y0044324D01*
X0450354Y0044324D01*
X0450354Y0043468D02*
X0447608Y0043468D01*
X0443449Y0044324D02*
X0443449Y0041578D01*
X0440703Y0041578D01*
X0440703Y0044324D01*
X0443449Y0044324D01*
X0443449Y0043468D02*
X0440703Y0043468D01*
X0394433Y0044324D02*
X0394433Y0041578D01*
X0391687Y0041578D01*
X0391687Y0044324D01*
X0394433Y0044324D01*
X0394433Y0043468D02*
X0391687Y0043468D01*
X0387527Y0044324D02*
X0387527Y0041578D01*
X0384781Y0041578D01*
X0384781Y0044324D01*
X0387527Y0044324D01*
X0387527Y0043468D02*
X0384781Y0043468D01*
X0338512Y0044324D02*
X0338512Y0041578D01*
X0335766Y0041578D01*
X0335766Y0044324D01*
X0338512Y0044324D01*
X0338512Y0043468D02*
X0335766Y0043468D01*
X0331606Y0044324D02*
X0331606Y0041578D01*
X0328860Y0041578D01*
X0328860Y0044324D01*
X0331606Y0044324D01*
X0331606Y0043468D02*
X0328860Y0043468D01*
X0282590Y0044324D02*
X0282590Y0041578D01*
X0279844Y0041578D01*
X0279844Y0044324D01*
X0282590Y0044324D01*
X0282590Y0043468D02*
X0279844Y0043468D01*
X0275685Y0044324D02*
X0275685Y0041578D01*
X0272939Y0041578D01*
X0272939Y0044324D01*
X0275685Y0044324D01*
X0275685Y0043468D02*
X0272939Y0043468D01*
X0226669Y0044324D02*
X0226669Y0041578D01*
X0223923Y0041578D01*
X0223923Y0044324D01*
X0226669Y0044324D01*
X0226669Y0043468D02*
X0223923Y0043468D01*
X0219764Y0044324D02*
X0219764Y0041578D01*
X0217018Y0041578D01*
X0217018Y0044324D01*
X0219764Y0044324D01*
X0219764Y0043468D02*
X0217018Y0043468D01*
D19*
X0218497Y0038451D03*
X0225190Y0038451D03*
X0274418Y0038451D03*
X0281111Y0038451D03*
X0330339Y0038451D03*
X0337032Y0038451D03*
X0386261Y0038451D03*
X0392954Y0038451D03*
X0442182Y0038451D03*
X0448875Y0038451D03*
X0498103Y0038451D03*
X0504796Y0038451D03*
X0554024Y0038451D03*
X0560717Y0038451D03*
X0609946Y0038451D03*
X0616639Y0038451D03*
X0616639Y0131152D03*
X0609946Y0131152D03*
X0560717Y0131152D03*
X0554024Y0131152D03*
X0504796Y0131152D03*
X0498103Y0131152D03*
X0448875Y0131152D03*
X0442182Y0131152D03*
X0392954Y0131152D03*
X0386261Y0131152D03*
X0337032Y0131152D03*
X0330339Y0131152D03*
X0281111Y0131152D03*
X0274418Y0131152D03*
X0225190Y0131152D03*
X0218497Y0131152D03*
X0218497Y0223852D03*
X0225190Y0223852D03*
X0274418Y0223852D03*
X0281111Y0223852D03*
X0330339Y0223852D03*
X0337032Y0223852D03*
X0386261Y0223852D03*
X0392954Y0223852D03*
X0442182Y0223852D03*
X0448875Y0223852D03*
X0498103Y0223852D03*
X0504796Y0223852D03*
X0554024Y0223852D03*
X0560717Y0223852D03*
X0609946Y0223852D03*
X0616639Y0223852D03*
X0616639Y0316553D03*
X0609946Y0316553D03*
X0560717Y0316553D03*
X0554024Y0316553D03*
X0504796Y0316553D03*
X0498103Y0316553D03*
X0448875Y0316553D03*
X0442182Y0316553D03*
X0392954Y0316553D03*
X0386261Y0316553D03*
X0337032Y0316553D03*
X0330339Y0316553D03*
X0281111Y0316553D03*
X0274418Y0316553D03*
X0225190Y0316553D03*
X0218497Y0316553D03*
D20*
X0206922Y0405803D03*
X0598292Y0405803D03*
D21*
X0203357Y0020500D02*
X0203359Y0020619D01*
X0203365Y0020738D01*
X0203375Y0020857D01*
X0203389Y0020975D01*
X0203407Y0021093D01*
X0203428Y0021210D01*
X0203454Y0021326D01*
X0203484Y0021442D01*
X0203517Y0021556D01*
X0203554Y0021669D01*
X0203595Y0021781D01*
X0203640Y0021892D01*
X0203688Y0022001D01*
X0203740Y0022108D01*
X0203796Y0022213D01*
X0203855Y0022317D01*
X0203917Y0022418D01*
X0203983Y0022518D01*
X0204052Y0022615D01*
X0204124Y0022709D01*
X0204200Y0022802D01*
X0204278Y0022891D01*
X0204359Y0022978D01*
X0204444Y0023063D01*
X0204531Y0023144D01*
X0204620Y0023222D01*
X0204713Y0023298D01*
X0204807Y0023370D01*
X0204904Y0023439D01*
X0205004Y0023505D01*
X0205105Y0023567D01*
X0205209Y0023626D01*
X0205314Y0023682D01*
X0205421Y0023734D01*
X0205530Y0023782D01*
X0205641Y0023827D01*
X0205753Y0023868D01*
X0205866Y0023905D01*
X0205980Y0023938D01*
X0206096Y0023968D01*
X0206212Y0023994D01*
X0206329Y0024015D01*
X0206447Y0024033D01*
X0206565Y0024047D01*
X0206684Y0024057D01*
X0206803Y0024063D01*
X0206922Y0024065D01*
X0207041Y0024063D01*
X0207160Y0024057D01*
X0207279Y0024047D01*
X0207397Y0024033D01*
X0207515Y0024015D01*
X0207632Y0023994D01*
X0207748Y0023968D01*
X0207864Y0023938D01*
X0207978Y0023905D01*
X0208091Y0023868D01*
X0208203Y0023827D01*
X0208314Y0023782D01*
X0208423Y0023734D01*
X0208530Y0023682D01*
X0208635Y0023626D01*
X0208739Y0023567D01*
X0208840Y0023505D01*
X0208940Y0023439D01*
X0209037Y0023370D01*
X0209131Y0023298D01*
X0209224Y0023222D01*
X0209313Y0023144D01*
X0209400Y0023063D01*
X0209485Y0022978D01*
X0209566Y0022891D01*
X0209644Y0022802D01*
X0209720Y0022709D01*
X0209792Y0022615D01*
X0209861Y0022518D01*
X0209927Y0022418D01*
X0209989Y0022317D01*
X0210048Y0022213D01*
X0210104Y0022108D01*
X0210156Y0022001D01*
X0210204Y0021892D01*
X0210249Y0021781D01*
X0210290Y0021669D01*
X0210327Y0021556D01*
X0210360Y0021442D01*
X0210390Y0021326D01*
X0210416Y0021210D01*
X0210437Y0021093D01*
X0210455Y0020975D01*
X0210469Y0020857D01*
X0210479Y0020738D01*
X0210485Y0020619D01*
X0210487Y0020500D01*
X0210485Y0020381D01*
X0210479Y0020262D01*
X0210469Y0020143D01*
X0210455Y0020025D01*
X0210437Y0019907D01*
X0210416Y0019790D01*
X0210390Y0019674D01*
X0210360Y0019558D01*
X0210327Y0019444D01*
X0210290Y0019331D01*
X0210249Y0019219D01*
X0210204Y0019108D01*
X0210156Y0018999D01*
X0210104Y0018892D01*
X0210048Y0018787D01*
X0209989Y0018683D01*
X0209927Y0018582D01*
X0209861Y0018482D01*
X0209792Y0018385D01*
X0209720Y0018291D01*
X0209644Y0018198D01*
X0209566Y0018109D01*
X0209485Y0018022D01*
X0209400Y0017937D01*
X0209313Y0017856D01*
X0209224Y0017778D01*
X0209131Y0017702D01*
X0209037Y0017630D01*
X0208940Y0017561D01*
X0208840Y0017495D01*
X0208739Y0017433D01*
X0208635Y0017374D01*
X0208530Y0017318D01*
X0208423Y0017266D01*
X0208314Y0017218D01*
X0208203Y0017173D01*
X0208091Y0017132D01*
X0207978Y0017095D01*
X0207864Y0017062D01*
X0207748Y0017032D01*
X0207632Y0017006D01*
X0207515Y0016985D01*
X0207397Y0016967D01*
X0207279Y0016953D01*
X0207160Y0016943D01*
X0207041Y0016937D01*
X0206922Y0016935D01*
X0206803Y0016937D01*
X0206684Y0016943D01*
X0206565Y0016953D01*
X0206447Y0016967D01*
X0206329Y0016985D01*
X0206212Y0017006D01*
X0206096Y0017032D01*
X0205980Y0017062D01*
X0205866Y0017095D01*
X0205753Y0017132D01*
X0205641Y0017173D01*
X0205530Y0017218D01*
X0205421Y0017266D01*
X0205314Y0017318D01*
X0205209Y0017374D01*
X0205105Y0017433D01*
X0205004Y0017495D01*
X0204904Y0017561D01*
X0204807Y0017630D01*
X0204713Y0017702D01*
X0204620Y0017778D01*
X0204531Y0017856D01*
X0204444Y0017937D01*
X0204359Y0018022D01*
X0204278Y0018109D01*
X0204200Y0018198D01*
X0204124Y0018291D01*
X0204052Y0018385D01*
X0203983Y0018482D01*
X0203917Y0018582D01*
X0203855Y0018683D01*
X0203796Y0018787D01*
X0203740Y0018892D01*
X0203688Y0018999D01*
X0203640Y0019108D01*
X0203595Y0019219D01*
X0203554Y0019331D01*
X0203517Y0019444D01*
X0203484Y0019558D01*
X0203454Y0019674D01*
X0203428Y0019790D01*
X0203407Y0019907D01*
X0203389Y0020025D01*
X0203375Y0020143D01*
X0203365Y0020262D01*
X0203359Y0020381D01*
X0203357Y0020500D01*
D22*
X0206922Y0020500D03*
M02*
