G75*
%MOIN*%
%OFA0B0*%
%FSLAX25Y25*%
%IPPOS*%
%LPD*%
%AMOC8*
5,1,8,0,0,1.08239X$1,22.5*
%
%ADD10C,0.01000*%
%ADD11R,0.15276X0.00157*%
%ADD12R,0.03307X0.00157*%
%ADD13R,0.11024X0.00157*%
%ADD14R,0.02992X0.00157*%
%ADD15R,0.01260X0.00157*%
%ADD16R,0.01890X0.00157*%
%ADD17R,0.00630X0.00157*%
%ADD18R,0.02677X0.00157*%
%ADD19R,0.00787X0.00157*%
%ADD20R,0.01575X0.00157*%
%ADD21R,0.00472X0.00157*%
%ADD22R,0.02520X0.00157*%
%ADD23R,0.01417X0.00157*%
%ADD24R,0.02205X0.00157*%
%ADD25R,0.02362X0.00157*%
%ADD26R,0.02047X0.00157*%
%ADD27R,0.01102X0.00157*%
%ADD28R,0.00945X0.00157*%
%ADD29R,0.02835X0.00157*%
%ADD30R,0.01732X0.00157*%
%ADD31R,0.00157X0.00157*%
%ADD32R,0.00315X0.00157*%
%ADD33R,0.03150X0.00157*%
%ADD34R,0.14331X0.00157*%
%ADD35R,0.07087X0.00157*%
%ADD36R,0.03465X0.00157*%
%ADD37C,0.00039*%
%ADD38R,0.19213X0.00157*%
%ADD39R,0.19370X0.00157*%
%ADD40R,0.19685X0.00157*%
%ADD41R,0.19843X0.00157*%
%ADD42R,0.20000X0.00157*%
%ADD43R,0.20157X0.00157*%
%ADD44R,0.20315X0.00157*%
%ADD45R,0.08346X0.00157*%
%ADD46R,0.12913X0.00157*%
%ADD47R,0.13386X0.00157*%
%ADD48R,0.13701X0.00157*%
%ADD49R,0.14016X0.00157*%
%ADD50R,0.14173X0.00157*%
%ADD51R,0.14488X0.00157*%
%ADD52R,0.03780X0.00157*%
%ADD53R,0.06142X0.00157*%
%ADD54R,0.03622X0.00157*%
%ADD55R,0.03937X0.00157*%
%ADD56R,0.04252X0.00157*%
%ADD57R,0.04882X0.00157*%
%ADD58R,0.05197X0.00157*%
%ADD59R,0.13858X0.00157*%
%ADD60R,0.14646X0.00157*%
%ADD61R,0.14961X0.00157*%
%ADD62R,0.15118X0.00157*%
%ADD63R,0.15433X0.00157*%
%ADD64R,0.04409X0.00157*%
%ADD65R,0.05354X0.00157*%
%ADD66R,0.10551X0.00157*%
%ADD67R,0.19528X0.00157*%
%ADD68R,0.20472X0.00157*%
%ADD69R,0.20630X0.00157*%
%ADD70R,0.08189X0.00157*%
%ADD71R,0.07402X0.00157*%
%ADD72R,0.04094X0.00157*%
%ADD73C,0.00800*%
%ADD74R,0.15906X0.00157*%
%ADD75R,0.16535X0.00157*%
%ADD76R,0.16850X0.00157*%
%ADD77R,0.17165X0.00157*%
%ADD78R,0.17480X0.00157*%
%ADD79R,0.06614X0.00157*%
%ADD80R,0.06772X0.00157*%
D10*
X0181343Y0078500D02*
X0200843Y0078500D01*
X0200995Y0078502D01*
X0201147Y0078508D01*
X0201299Y0078517D01*
X0201450Y0078531D01*
X0201601Y0078548D01*
X0201752Y0078569D01*
X0201902Y0078594D01*
X0202051Y0078623D01*
X0202199Y0078655D01*
X0202347Y0078692D01*
X0202494Y0078731D01*
X0202639Y0078775D01*
X0202784Y0078823D01*
X0202927Y0078873D01*
X0203069Y0078928D01*
X0203209Y0078986D01*
X0203348Y0079048D01*
X0203485Y0079113D01*
X0203621Y0079182D01*
X0203755Y0079254D01*
X0203887Y0079329D01*
X0204017Y0079408D01*
X0204145Y0079490D01*
X0204271Y0079575D01*
X0204394Y0079664D01*
X0204516Y0079755D01*
X0204635Y0079850D01*
X0204751Y0079947D01*
X0204865Y0080048D01*
X0204977Y0080151D01*
X0205086Y0080257D01*
X0205192Y0080366D01*
X0205295Y0080478D01*
X0205396Y0080592D01*
X0205493Y0080708D01*
X0205588Y0080827D01*
X0205679Y0080949D01*
X0205768Y0081072D01*
X0205853Y0081198D01*
X0205935Y0081326D01*
X0206014Y0081456D01*
X0206089Y0081588D01*
X0206161Y0081722D01*
X0206230Y0081858D01*
X0206295Y0081995D01*
X0206357Y0082134D01*
X0206415Y0082274D01*
X0206470Y0082416D01*
X0206520Y0082559D01*
X0206568Y0082704D01*
X0206612Y0082849D01*
X0206651Y0082996D01*
X0206688Y0083144D01*
X0206720Y0083292D01*
X0206749Y0083441D01*
X0206774Y0083591D01*
X0206795Y0083742D01*
X0206812Y0083893D01*
X0206826Y0084044D01*
X0206835Y0084196D01*
X0206841Y0084348D01*
X0206843Y0084500D01*
X0206843Y0115500D01*
X0206841Y0115640D01*
X0206835Y0115780D01*
X0206825Y0115920D01*
X0206812Y0116060D01*
X0206794Y0116199D01*
X0206772Y0116338D01*
X0206747Y0116475D01*
X0206718Y0116613D01*
X0206685Y0116749D01*
X0206648Y0116884D01*
X0206607Y0117018D01*
X0206562Y0117151D01*
X0206514Y0117283D01*
X0206462Y0117413D01*
X0206407Y0117542D01*
X0206348Y0117669D01*
X0206285Y0117795D01*
X0206219Y0117919D01*
X0206150Y0118040D01*
X0206077Y0118160D01*
X0206000Y0118278D01*
X0205921Y0118393D01*
X0205838Y0118507D01*
X0205752Y0118617D01*
X0205663Y0118726D01*
X0205571Y0118832D01*
X0205476Y0118935D01*
X0205379Y0119036D01*
X0205278Y0119133D01*
X0205175Y0119228D01*
X0205069Y0119320D01*
X0204960Y0119409D01*
X0204850Y0119495D01*
X0204736Y0119578D01*
X0204621Y0119657D01*
X0204503Y0119734D01*
X0204383Y0119807D01*
X0204262Y0119876D01*
X0204138Y0119942D01*
X0204012Y0120005D01*
X0203885Y0120064D01*
X0203756Y0120119D01*
X0203626Y0120171D01*
X0203494Y0120219D01*
X0203361Y0120264D01*
X0203227Y0120305D01*
X0203092Y0120342D01*
X0202956Y0120375D01*
X0202818Y0120404D01*
X0202681Y0120429D01*
X0202542Y0120451D01*
X0202403Y0120469D01*
X0202263Y0120482D01*
X0202123Y0120492D01*
X0201983Y0120498D01*
X0201843Y0120500D01*
X0181343Y0120500D01*
D11*
X0217371Y0121850D03*
X0217371Y0122008D03*
X0217371Y0122165D03*
X0217371Y0122323D03*
X0217371Y0122480D03*
X0217371Y0122638D03*
X0217371Y0122795D03*
X0217371Y0127205D03*
X0217371Y0127362D03*
X0217371Y0127520D03*
X0217371Y0127677D03*
X0217371Y0127835D03*
X0217371Y0127992D03*
X0217371Y0128150D03*
X0217241Y0107362D03*
X0217241Y0102638D03*
X0190186Y0074492D03*
X0190186Y0068508D03*
D12*
X0197745Y0070083D03*
X0197902Y0070240D03*
X0197902Y0070398D03*
X0197902Y0070555D03*
X0198060Y0070713D03*
X0198060Y0070870D03*
X0198060Y0071028D03*
X0198060Y0071185D03*
X0198060Y0071343D03*
X0197902Y0072602D03*
X0197902Y0072760D03*
X0204969Y0074528D03*
X0204969Y0074685D03*
X0204969Y0074843D03*
X0204969Y0075000D03*
X0204969Y0075157D03*
X0204969Y0075315D03*
X0204969Y0075472D03*
X0186721Y0072917D03*
X0186721Y0072760D03*
X0182469Y0072760D03*
X0182469Y0072602D03*
X0182469Y0072445D03*
X0182469Y0070555D03*
X0182469Y0070398D03*
X0182469Y0070240D03*
X0205469Y0084370D03*
X0205312Y0084528D03*
X0205312Y0084685D03*
X0205312Y0084843D03*
X0205312Y0085000D03*
X0205312Y0085157D03*
X0205312Y0085315D03*
X0205312Y0085472D03*
X0205469Y0085630D03*
X0206729Y0087047D03*
X0206572Y0083110D03*
X0211784Y0093268D03*
X0211627Y0093425D03*
X0211627Y0093583D03*
X0211469Y0093740D03*
X0211469Y0093898D03*
X0211469Y0094055D03*
X0211469Y0095945D03*
X0211469Y0096102D03*
X0216509Y0092953D03*
X0210784Y0103268D03*
X0210627Y0103425D03*
X0210627Y0103583D03*
X0210469Y0103740D03*
X0210469Y0103898D03*
X0210469Y0104055D03*
X0210469Y0105945D03*
X0210469Y0106102D03*
X0210469Y0106260D03*
X0210627Y0106575D03*
X0223225Y0103425D03*
X0223225Y0103268D03*
X0211387Y0122953D03*
X0223355Y0127047D03*
X0216044Y0135630D03*
X0223288Y0136732D03*
X0223288Y0136890D03*
X0196032Y0140000D03*
X0188001Y0138898D03*
X0188001Y0138740D03*
X0188001Y0141260D03*
X0188158Y0133945D03*
X0183591Y0131740D03*
X0223867Y0073268D03*
X0223867Y0073110D03*
D13*
X0219367Y0102953D03*
X0219497Y0122953D03*
D14*
X0223513Y0123110D03*
X0214064Y0124370D03*
X0214064Y0124528D03*
X0211229Y0123110D03*
X0215824Y0117047D03*
X0219288Y0117047D03*
X0220233Y0115472D03*
X0223383Y0104213D03*
X0223383Y0104055D03*
X0223383Y0103898D03*
X0206257Y0086732D03*
X0206099Y0086575D03*
X0205942Y0086417D03*
X0205784Y0086260D03*
X0209564Y0084528D03*
X0209564Y0084370D03*
X0205942Y0083583D03*
X0213001Y0077047D03*
X0206072Y0076890D03*
X0205914Y0076732D03*
X0205757Y0076575D03*
X0205599Y0076417D03*
X0205442Y0076260D03*
X0209221Y0074528D03*
X0209221Y0074370D03*
X0205757Y0073425D03*
X0205599Y0073583D03*
X0205442Y0073740D03*
X0197902Y0073075D03*
X0197902Y0072917D03*
X0197587Y0073547D03*
X0182784Y0073547D03*
X0182627Y0073390D03*
X0182627Y0073232D03*
X0182627Y0069768D03*
X0182627Y0069610D03*
X0224024Y0073740D03*
X0224024Y0073898D03*
X0183591Y0131583D03*
X0187843Y0138425D03*
X0187843Y0141575D03*
X0183119Y0141575D03*
X0183119Y0141732D03*
X0183119Y0141890D03*
X0183119Y0141417D03*
X0195875Y0140945D03*
X0195875Y0140787D03*
X0195875Y0140630D03*
X0195875Y0140472D03*
X0195875Y0138583D03*
X0202017Y0141575D03*
X0202017Y0141732D03*
X0202017Y0141890D03*
X0209103Y0140472D03*
X0209103Y0140000D03*
X0223446Y0136260D03*
X0223446Y0136102D03*
D15*
X0221162Y0134528D03*
X0221162Y0134370D03*
X0219272Y0135157D03*
X0219272Y0135315D03*
X0219430Y0135472D03*
X0219430Y0135630D03*
X0219115Y0135000D03*
X0219115Y0134843D03*
X0208237Y0140157D03*
X0206032Y0140157D03*
X0197056Y0139843D03*
X0197056Y0139055D03*
X0192804Y0140000D03*
X0191387Y0139843D03*
X0191229Y0140157D03*
X0190599Y0141417D03*
X0189339Y0140787D03*
X0189182Y0140945D03*
X0189339Y0139370D03*
X0189182Y0139213D03*
X0187450Y0137953D03*
X0192017Y0138583D03*
X0193434Y0141417D03*
X0193591Y0141732D03*
X0197056Y0141417D03*
X0187292Y0134575D03*
X0187292Y0134417D03*
X0188080Y0132843D03*
X0184930Y0132213D03*
X0184930Y0133787D03*
X0184772Y0133945D03*
X0182253Y0133787D03*
X0182253Y0132213D03*
X0213513Y0125945D03*
X0215087Y0127047D03*
X0217292Y0126575D03*
X0217292Y0126417D03*
X0221387Y0125787D03*
X0221387Y0124370D03*
X0217607Y0123740D03*
X0215087Y0123110D03*
X0213540Y0115630D03*
X0215430Y0114843D03*
X0215587Y0115157D03*
X0215745Y0115472D03*
X0217635Y0114370D03*
X0219839Y0114370D03*
X0221414Y0115630D03*
X0217005Y0105945D03*
X0217005Y0104213D03*
X0214800Y0104685D03*
X0213383Y0105787D03*
X0219524Y0104370D03*
X0219524Y0104213D03*
X0219737Y0097047D03*
X0214383Y0095787D03*
X0216430Y0093425D03*
X0216257Y0086732D03*
X0218146Y0085945D03*
X0222241Y0085945D03*
X0222241Y0085787D03*
X0222241Y0085630D03*
X0222241Y0085472D03*
X0219879Y0083268D03*
X0214052Y0083110D03*
X0210587Y0083110D03*
X0209013Y0085945D03*
X0210587Y0087047D03*
X0208670Y0075945D03*
X0208670Y0074055D03*
X0212292Y0074213D03*
X0212292Y0074370D03*
X0212292Y0074528D03*
X0212292Y0074685D03*
X0213709Y0075787D03*
X0213709Y0073110D03*
X0215914Y0073268D03*
X0194831Y0073232D03*
X0194831Y0073390D03*
X0192627Y0072445D03*
X0192627Y0072287D03*
X0194831Y0071028D03*
X0194831Y0070870D03*
X0191209Y0069925D03*
X0191209Y0069768D03*
X0189005Y0069768D03*
X0189005Y0069925D03*
X0186957Y0069610D03*
X0185698Y0070713D03*
X0185698Y0070870D03*
X0185698Y0071028D03*
X0185698Y0071185D03*
X0187430Y0072130D03*
X0190107Y0073075D03*
X0190107Y0073232D03*
D16*
X0192469Y0073547D03*
X0216072Y0077047D03*
X0217646Y0074528D03*
X0221898Y0076575D03*
X0224576Y0077047D03*
X0224576Y0076102D03*
X0224576Y0075945D03*
X0224603Y0083740D03*
X0224603Y0083898D03*
X0224603Y0084055D03*
X0224603Y0084213D03*
X0224603Y0084370D03*
X0224603Y0084528D03*
X0224603Y0084685D03*
X0224603Y0085157D03*
X0224603Y0086417D03*
X0224603Y0086575D03*
X0218146Y0085630D03*
X0218146Y0084528D03*
X0216414Y0087047D03*
X0215485Y0094528D03*
X0216430Y0096890D03*
X0223989Y0097047D03*
X0214485Y0104528D03*
X0221099Y0106575D03*
X0223934Y0106417D03*
X0223934Y0106260D03*
X0223776Y0113583D03*
X0223776Y0113740D03*
X0223776Y0114528D03*
X0223776Y0114685D03*
X0223776Y0115157D03*
X0223776Y0115315D03*
X0223776Y0116575D03*
X0220154Y0114528D03*
X0217635Y0113740D03*
X0211335Y0113740D03*
X0211335Y0113583D03*
X0211335Y0113898D03*
X0211335Y0114055D03*
X0211335Y0114213D03*
X0211335Y0115630D03*
X0211335Y0116575D03*
X0210678Y0124055D03*
X0210678Y0124213D03*
X0210678Y0124370D03*
X0210678Y0125630D03*
X0210678Y0125787D03*
X0210678Y0125945D03*
X0217450Y0127047D03*
X0224064Y0125945D03*
X0224064Y0125787D03*
X0224064Y0124213D03*
X0224064Y0124055D03*
X0217450Y0123110D03*
X0223997Y0133110D03*
X0223997Y0133898D03*
X0223997Y0134055D03*
X0221162Y0133740D03*
X0221162Y0133583D03*
X0215335Y0133583D03*
X0215335Y0133740D03*
X0215335Y0133898D03*
X0215335Y0134055D03*
X0215335Y0134213D03*
X0215335Y0134370D03*
X0215335Y0133425D03*
X0215335Y0136102D03*
X0219587Y0136417D03*
X0209182Y0139370D03*
X0198946Y0140472D03*
X0192017Y0139213D03*
D17*
X0187292Y0135047D03*
X0185402Y0135047D03*
X0186505Y0132213D03*
X0188080Y0132213D03*
X0191072Y0130795D03*
X0204300Y0137795D03*
X0209969Y0141260D03*
X0217383Y0135472D03*
X0221162Y0135157D03*
X0221162Y0135000D03*
X0218957Y0133110D03*
X0219497Y0126890D03*
X0221072Y0126102D03*
X0217922Y0124528D03*
X0216977Y0125630D03*
X0215245Y0124685D03*
X0215245Y0123898D03*
X0215245Y0123740D03*
X0215245Y0123583D03*
X0215245Y0123425D03*
X0219497Y0123110D03*
X0215245Y0126732D03*
X0215430Y0114213D03*
X0215430Y0114055D03*
X0215272Y0113740D03*
X0215115Y0113425D03*
X0219839Y0113740D03*
X0219839Y0113898D03*
X0219997Y0113425D03*
X0218737Y0106575D03*
X0218737Y0106417D03*
X0218894Y0106260D03*
X0219209Y0105630D03*
X0219367Y0105315D03*
X0219367Y0105157D03*
X0221099Y0105315D03*
X0216847Y0106102D03*
X0215115Y0106575D03*
X0215115Y0105000D03*
X0215115Y0103740D03*
X0215115Y0103583D03*
X0215115Y0103425D03*
X0213540Y0103898D03*
X0216272Y0096102D03*
X0216272Y0095945D03*
X0214540Y0093898D03*
X0219894Y0094055D03*
X0219894Y0093268D03*
X0219894Y0095945D03*
X0220194Y0086260D03*
X0220194Y0086102D03*
X0221926Y0085315D03*
X0220194Y0084055D03*
X0220194Y0083898D03*
X0215942Y0084055D03*
X0215942Y0084213D03*
X0215942Y0084370D03*
X0215942Y0085787D03*
X0215942Y0085945D03*
X0215942Y0086102D03*
X0214367Y0085315D03*
X0214367Y0083740D03*
X0214367Y0083583D03*
X0210745Y0083583D03*
X0210745Y0083740D03*
X0210745Y0083898D03*
X0210745Y0083425D03*
X0210745Y0084685D03*
X0210745Y0086732D03*
X0210402Y0076732D03*
X0210402Y0074685D03*
X0210402Y0073740D03*
X0210402Y0073583D03*
X0210402Y0073425D03*
X0214024Y0073740D03*
X0214024Y0075157D03*
X0214024Y0075315D03*
X0215599Y0075945D03*
X0215599Y0076102D03*
X0215599Y0074213D03*
X0215599Y0074055D03*
X0220009Y0075315D03*
X0220009Y0075472D03*
X0220009Y0075630D03*
X0219851Y0075945D03*
X0219694Y0076260D03*
X0219536Y0076417D03*
X0219536Y0076575D03*
X0219379Y0076732D03*
X0192942Y0070713D03*
X0192942Y0070555D03*
X0192942Y0070398D03*
X0192942Y0069610D03*
X0191209Y0070713D03*
X0191209Y0070870D03*
X0191209Y0071028D03*
X0190107Y0072130D03*
X0190107Y0072287D03*
X0190107Y0072445D03*
X0189005Y0070870D03*
X0189005Y0070713D03*
X0187587Y0071343D03*
X0187587Y0071500D03*
X0187115Y0069925D03*
D18*
X0213001Y0076102D03*
X0213001Y0076260D03*
X0213001Y0076417D03*
X0213001Y0076575D03*
X0213001Y0076732D03*
X0213001Y0076890D03*
X0224182Y0074528D03*
X0224182Y0074370D03*
X0213343Y0086890D03*
X0218871Y0094370D03*
X0218871Y0095787D03*
X0219288Y0103268D03*
X0223540Y0104685D03*
X0223540Y0104843D03*
X0223670Y0123268D03*
X0211072Y0123268D03*
X0183591Y0131425D03*
X0187686Y0138268D03*
X0183119Y0142047D03*
X0195717Y0138268D03*
X0209103Y0139843D03*
X0223603Y0135630D03*
X0223603Y0135472D03*
D19*
X0218879Y0133898D03*
X0217304Y0136102D03*
X0206111Y0138268D03*
X0204221Y0139213D03*
X0204221Y0142047D03*
X0197135Y0142047D03*
X0194930Y0142047D03*
X0193513Y0142047D03*
X0190520Y0142047D03*
X0185481Y0142047D03*
X0192095Y0138110D03*
X0192568Y0135047D03*
X0191150Y0135047D03*
X0188946Y0134890D03*
X0189733Y0132213D03*
X0191150Y0132213D03*
X0192568Y0132213D03*
X0192568Y0130795D03*
X0195402Y0133157D03*
X0195402Y0134102D03*
X0213591Y0126102D03*
X0217056Y0125945D03*
X0217056Y0125787D03*
X0217843Y0124370D03*
X0215166Y0124055D03*
X0215166Y0123268D03*
X0219418Y0127047D03*
X0221493Y0116102D03*
X0221493Y0114055D03*
X0220076Y0113268D03*
X0219761Y0114055D03*
X0219761Y0114213D03*
X0217556Y0114843D03*
X0217556Y0115000D03*
X0215509Y0114370D03*
X0215036Y0113268D03*
X0213619Y0114055D03*
X0213619Y0116102D03*
X0215036Y0106732D03*
X0215036Y0104843D03*
X0215036Y0103898D03*
X0215036Y0103268D03*
X0219446Y0104843D03*
X0219446Y0105000D03*
X0216351Y0096417D03*
X0216351Y0096260D03*
X0215879Y0094843D03*
X0218398Y0096102D03*
X0219816Y0094213D03*
X0220115Y0086417D03*
X0218068Y0086102D03*
X0216020Y0086260D03*
X0214288Y0085472D03*
X0214288Y0083425D03*
X0216020Y0083898D03*
X0220115Y0083740D03*
X0210666Y0084055D03*
X0210666Y0083268D03*
X0209091Y0086102D03*
X0208749Y0076102D03*
X0210324Y0074055D03*
X0210324Y0073898D03*
X0210324Y0073268D03*
X0213946Y0073425D03*
X0213946Y0073583D03*
X0215678Y0073740D03*
X0215678Y0073898D03*
X0213946Y0075472D03*
X0215678Y0076260D03*
X0215678Y0076417D03*
X0217725Y0076102D03*
X0220087Y0075157D03*
X0220087Y0075000D03*
X0221820Y0075315D03*
X0192863Y0071185D03*
X0192863Y0071028D03*
X0192863Y0070870D03*
X0188926Y0070555D03*
X0187509Y0071657D03*
X0187036Y0069768D03*
X0209261Y0142205D03*
D20*
X0206505Y0141732D03*
X0206505Y0141575D03*
X0206505Y0141417D03*
X0209182Y0139213D03*
X0215178Y0136417D03*
X0219587Y0136102D03*
X0218800Y0134528D03*
X0221162Y0134055D03*
X0224154Y0133425D03*
X0221544Y0125315D03*
X0221544Y0125157D03*
X0221544Y0125000D03*
X0221544Y0124843D03*
X0221544Y0124685D03*
X0217450Y0123268D03*
X0213355Y0125472D03*
X0213355Y0125630D03*
X0215902Y0116102D03*
X0215902Y0115945D03*
X0215430Y0115000D03*
X0217635Y0114055D03*
X0219367Y0115630D03*
X0219209Y0115945D03*
X0219209Y0116102D03*
X0221099Y0106260D03*
X0219524Y0104055D03*
X0219524Y0103898D03*
X0217162Y0104528D03*
X0217162Y0104685D03*
X0217162Y0105315D03*
X0217162Y0105472D03*
X0217162Y0105630D03*
X0216430Y0096732D03*
X0218477Y0094213D03*
X0213894Y0085945D03*
X0218146Y0085787D03*
X0216414Y0083110D03*
X0208855Y0085472D03*
X0208855Y0085630D03*
X0219221Y0077047D03*
X0221898Y0076260D03*
X0224733Y0076575D03*
X0224733Y0076732D03*
X0216072Y0073110D03*
X0213552Y0075945D03*
X0208513Y0075630D03*
X0194831Y0073547D03*
X0192469Y0073390D03*
X0192469Y0073232D03*
X0192469Y0073075D03*
X0191209Y0069610D03*
X0189005Y0069610D03*
X0187292Y0134102D03*
X0184772Y0134102D03*
X0189024Y0139055D03*
X0192017Y0138898D03*
D21*
X0188946Y0135047D03*
X0183591Y0135205D03*
X0192568Y0131740D03*
X0206111Y0138110D03*
X0218879Y0133740D03*
X0218879Y0133583D03*
X0218879Y0133425D03*
X0218879Y0133268D03*
X0219418Y0126732D03*
X0219418Y0126575D03*
X0219418Y0126417D03*
X0219418Y0126260D03*
X0219418Y0126102D03*
X0219418Y0125945D03*
X0219418Y0125787D03*
X0219418Y0125630D03*
X0219418Y0125472D03*
X0219418Y0125315D03*
X0219418Y0125157D03*
X0219418Y0125000D03*
X0219418Y0124843D03*
X0219418Y0124685D03*
X0219418Y0124528D03*
X0219418Y0124370D03*
X0219418Y0124213D03*
X0219418Y0124055D03*
X0219418Y0123898D03*
X0219418Y0123740D03*
X0219418Y0123583D03*
X0219418Y0123425D03*
X0219418Y0123268D03*
X0218001Y0124685D03*
X0218001Y0124843D03*
X0216898Y0125472D03*
X0215324Y0125472D03*
X0215324Y0125315D03*
X0215324Y0125157D03*
X0215324Y0125000D03*
X0215324Y0124843D03*
X0215324Y0125630D03*
X0215324Y0125787D03*
X0215324Y0125945D03*
X0215324Y0126102D03*
X0215324Y0126260D03*
X0215324Y0126417D03*
X0215324Y0126575D03*
X0217556Y0115315D03*
X0217556Y0115157D03*
X0215351Y0113898D03*
X0215194Y0113583D03*
X0219918Y0113583D03*
X0218973Y0106102D03*
X0219131Y0105945D03*
X0219131Y0105787D03*
X0219288Y0105472D03*
X0221020Y0105157D03*
X0215194Y0105157D03*
X0215194Y0105315D03*
X0215194Y0105472D03*
X0215194Y0105630D03*
X0215194Y0105945D03*
X0215194Y0106102D03*
X0215194Y0106260D03*
X0215194Y0106417D03*
X0219973Y0096732D03*
X0219973Y0096260D03*
X0219973Y0096102D03*
X0219973Y0093898D03*
X0219973Y0093425D03*
X0216036Y0095000D03*
X0216036Y0095157D03*
X0216194Y0095472D03*
X0216194Y0095630D03*
X0216194Y0095787D03*
X0220272Y0085945D03*
X0220272Y0085787D03*
X0220272Y0085630D03*
X0220272Y0084528D03*
X0220272Y0084370D03*
X0220272Y0084213D03*
X0221847Y0084685D03*
X0221847Y0085157D03*
X0215863Y0085157D03*
X0215863Y0085000D03*
X0215863Y0084843D03*
X0215863Y0084685D03*
X0215863Y0084528D03*
X0215863Y0085315D03*
X0215863Y0085472D03*
X0215863Y0085630D03*
X0214446Y0085157D03*
X0214446Y0085000D03*
X0214446Y0084843D03*
X0214446Y0084213D03*
X0214446Y0084055D03*
X0214446Y0083898D03*
X0210824Y0084843D03*
X0210824Y0085000D03*
X0210824Y0085157D03*
X0210824Y0085315D03*
X0210824Y0085472D03*
X0210824Y0085630D03*
X0210824Y0085787D03*
X0210824Y0085945D03*
X0210824Y0086102D03*
X0210824Y0086260D03*
X0210824Y0086417D03*
X0210824Y0086575D03*
X0210481Y0076575D03*
X0210481Y0076417D03*
X0210481Y0076260D03*
X0210481Y0076102D03*
X0210481Y0075945D03*
X0210481Y0075787D03*
X0210481Y0075630D03*
X0210481Y0075472D03*
X0210481Y0075315D03*
X0210481Y0075157D03*
X0210481Y0075000D03*
X0210481Y0074843D03*
X0214103Y0074843D03*
X0214103Y0075000D03*
X0214103Y0074685D03*
X0214103Y0074528D03*
X0214103Y0074370D03*
X0214103Y0074213D03*
X0214103Y0074055D03*
X0214103Y0073898D03*
X0215520Y0074370D03*
X0215520Y0074528D03*
X0215520Y0074685D03*
X0215520Y0074843D03*
X0215520Y0075315D03*
X0215520Y0075472D03*
X0215520Y0075630D03*
X0215520Y0075787D03*
X0219772Y0076102D03*
X0219930Y0075787D03*
X0221820Y0075157D03*
X0221820Y0075000D03*
X0193020Y0070240D03*
X0193020Y0070083D03*
X0193020Y0069925D03*
X0193020Y0069768D03*
X0188926Y0071028D03*
X0187509Y0071028D03*
X0187509Y0071185D03*
X0187509Y0070870D03*
X0187351Y0070398D03*
X0187194Y0070083D03*
D22*
X0220166Y0073268D03*
X0224261Y0074685D03*
X0224261Y0074843D03*
X0224288Y0083110D03*
X0224288Y0087047D03*
X0213422Y0086732D03*
X0213422Y0086575D03*
X0213422Y0086417D03*
X0213422Y0086260D03*
X0213422Y0086102D03*
X0216430Y0097047D03*
X0223619Y0105000D03*
X0223619Y0105157D03*
X0219209Y0116890D03*
X0215902Y0116890D03*
X0211650Y0117047D03*
X0223461Y0117047D03*
X0223749Y0123425D03*
X0223749Y0126732D03*
X0210993Y0126732D03*
X0210993Y0123425D03*
X0221162Y0133110D03*
X0223682Y0135157D03*
X0223682Y0135315D03*
X0209182Y0139685D03*
X0208867Y0140945D03*
X0209024Y0141417D03*
X0209182Y0141575D03*
X0209182Y0141732D03*
X0201780Y0141260D03*
X0187607Y0141890D03*
X0182883Y0141260D03*
X0194694Y0134260D03*
X0194851Y0134417D03*
X0194694Y0133000D03*
X0194851Y0132843D03*
D23*
X0194143Y0133157D03*
X0194143Y0134102D03*
X0188946Y0134102D03*
X0188946Y0134260D03*
X0188946Y0134417D03*
X0188158Y0133157D03*
X0188158Y0133000D03*
X0187371Y0134260D03*
X0184694Y0132055D03*
X0182489Y0132055D03*
X0182331Y0133945D03*
X0182489Y0134102D03*
X0192095Y0138740D03*
X0195560Y0137953D03*
X0206583Y0141890D03*
X0208316Y0141260D03*
X0219509Y0135945D03*
X0219509Y0135787D03*
X0218879Y0134685D03*
X0221241Y0134213D03*
X0217371Y0126732D03*
X0213434Y0125787D03*
X0217528Y0123583D03*
X0217528Y0123425D03*
X0221465Y0124528D03*
X0221465Y0125472D03*
X0221465Y0125630D03*
X0219288Y0115787D03*
X0217556Y0114213D03*
X0215666Y0115315D03*
X0215824Y0115630D03*
X0215824Y0115787D03*
X0214879Y0107047D03*
X0217083Y0105787D03*
X0217083Y0104370D03*
X0218398Y0095945D03*
X0219957Y0086890D03*
X0216335Y0086890D03*
X0218068Y0084213D03*
X0216335Y0083268D03*
X0208934Y0085787D03*
X0210166Y0077047D03*
X0208591Y0075787D03*
X0208434Y0075472D03*
X0215993Y0076890D03*
X0217725Y0075945D03*
X0217725Y0074213D03*
X0220245Y0074213D03*
X0220245Y0074055D03*
X0192548Y0072917D03*
X0192548Y0072760D03*
X0192548Y0072602D03*
X0190028Y0073390D03*
D24*
X0187115Y0072445D03*
X0220166Y0073425D03*
X0224418Y0075315D03*
X0224418Y0075472D03*
X0221898Y0076890D03*
X0224446Y0083268D03*
X0218146Y0085000D03*
X0218146Y0085157D03*
X0224446Y0086890D03*
X0215328Y0094370D03*
X0219367Y0103425D03*
X0214328Y0104370D03*
X0221099Y0106890D03*
X0223776Y0105787D03*
X0223776Y0105630D03*
X0223619Y0113268D03*
X0223619Y0115000D03*
X0223619Y0116890D03*
X0219997Y0115157D03*
X0219997Y0115000D03*
X0219209Y0116732D03*
X0215902Y0116732D03*
X0211493Y0116890D03*
X0211493Y0114370D03*
X0211493Y0113268D03*
X0210835Y0123583D03*
X0210835Y0123740D03*
X0210835Y0126417D03*
X0223906Y0126417D03*
X0223906Y0123740D03*
X0223839Y0132953D03*
X0223839Y0134528D03*
X0223839Y0134685D03*
X0221162Y0133425D03*
X0221162Y0133268D03*
X0218328Y0134213D03*
X0218328Y0134370D03*
X0219587Y0136732D03*
X0215493Y0137047D03*
X0198946Y0140630D03*
X0198946Y0140787D03*
X0198946Y0140945D03*
X0198946Y0141102D03*
X0192017Y0139528D03*
X0187607Y0138110D03*
X0183513Y0134890D03*
D25*
X0183591Y0131268D03*
X0194930Y0132685D03*
X0194930Y0134575D03*
X0195717Y0138110D03*
X0192095Y0139685D03*
X0206269Y0139685D03*
X0206269Y0139528D03*
X0206269Y0139370D03*
X0206269Y0139843D03*
X0206269Y0140000D03*
X0209103Y0139528D03*
X0209261Y0141890D03*
X0219509Y0136890D03*
X0223761Y0135000D03*
X0223761Y0134843D03*
X0223828Y0126575D03*
X0223828Y0123583D03*
X0210914Y0126575D03*
X0219918Y0115315D03*
X0217556Y0113268D03*
X0217556Y0113110D03*
X0223540Y0113110D03*
X0211572Y0113110D03*
X0221020Y0107047D03*
X0223698Y0105472D03*
X0223698Y0105315D03*
X0214249Y0104213D03*
X0215249Y0094213D03*
X0216509Y0093110D03*
X0221820Y0077047D03*
X0224339Y0075157D03*
X0224339Y0075000D03*
D26*
X0224497Y0075630D03*
X0224497Y0075787D03*
X0221820Y0076732D03*
X0217725Y0075472D03*
X0217725Y0075315D03*
X0217725Y0075157D03*
X0217725Y0075000D03*
X0217725Y0074843D03*
X0217725Y0074685D03*
X0220245Y0073583D03*
X0224524Y0083425D03*
X0224524Y0083583D03*
X0224524Y0084843D03*
X0224524Y0085000D03*
X0224524Y0086732D03*
X0218068Y0085472D03*
X0218068Y0085315D03*
X0218068Y0084843D03*
X0218068Y0084685D03*
X0219446Y0103583D03*
X0223855Y0105945D03*
X0223855Y0106102D03*
X0223855Y0107047D03*
X0221020Y0106732D03*
X0223698Y0113425D03*
X0223698Y0114843D03*
X0223698Y0116732D03*
X0220076Y0114843D03*
X0220076Y0114685D03*
X0219131Y0116575D03*
X0215981Y0116575D03*
X0211414Y0116732D03*
X0211414Y0113425D03*
X0217556Y0113425D03*
X0217556Y0113583D03*
X0223985Y0123898D03*
X0223985Y0126102D03*
X0223985Y0126260D03*
X0210757Y0126260D03*
X0210757Y0126102D03*
X0210757Y0123898D03*
X0215414Y0133110D03*
X0215414Y0133268D03*
X0218249Y0134055D03*
X0215414Y0135472D03*
X0215414Y0135945D03*
X0215414Y0136890D03*
X0219509Y0136575D03*
X0223918Y0134370D03*
X0223918Y0134213D03*
X0206269Y0139213D03*
X0199024Y0141260D03*
X0192095Y0139370D03*
X0187528Y0142047D03*
X0194930Y0134732D03*
X0194930Y0132528D03*
D27*
X0194930Y0132213D03*
X0193985Y0133315D03*
X0193985Y0133472D03*
X0193828Y0133630D03*
X0193985Y0133787D03*
X0193985Y0133945D03*
X0192568Y0133945D03*
X0192568Y0134102D03*
X0192568Y0134260D03*
X0192568Y0134417D03*
X0192568Y0134575D03*
X0192568Y0134732D03*
X0192568Y0134890D03*
X0192568Y0133787D03*
X0192568Y0133630D03*
X0192568Y0133472D03*
X0192568Y0133315D03*
X0192568Y0133157D03*
X0192568Y0133000D03*
X0192568Y0132843D03*
X0192568Y0132685D03*
X0192568Y0132528D03*
X0192568Y0132370D03*
X0192568Y0131425D03*
X0192568Y0131268D03*
X0192568Y0131110D03*
X0192568Y0130953D03*
X0189733Y0132528D03*
X0189733Y0132685D03*
X0189733Y0132843D03*
X0189576Y0133000D03*
X0189576Y0133157D03*
X0188158Y0132685D03*
X0188158Y0132528D03*
X0186741Y0133157D03*
X0186583Y0133000D03*
X0186583Y0132843D03*
X0186583Y0132685D03*
X0186426Y0132528D03*
X0185166Y0132685D03*
X0185166Y0132843D03*
X0185166Y0133000D03*
X0185166Y0133157D03*
X0185166Y0133315D03*
X0185009Y0133630D03*
X0185009Y0132528D03*
X0185009Y0132370D03*
X0182174Y0132370D03*
X0182174Y0132528D03*
X0182017Y0132685D03*
X0182017Y0132843D03*
X0182017Y0133000D03*
X0182017Y0133157D03*
X0182017Y0133315D03*
X0182017Y0133472D03*
X0182174Y0133630D03*
X0188946Y0134575D03*
X0188946Y0134732D03*
X0194930Y0135047D03*
X0194930Y0139055D03*
X0194930Y0139213D03*
X0194930Y0139370D03*
X0194930Y0139528D03*
X0194930Y0139685D03*
X0194930Y0139843D03*
X0194930Y0141102D03*
X0194930Y0141260D03*
X0194930Y0141417D03*
X0194930Y0141575D03*
X0194930Y0141732D03*
X0194930Y0141890D03*
X0193513Y0141575D03*
X0192883Y0140315D03*
X0192883Y0140157D03*
X0192725Y0139843D03*
X0191308Y0140000D03*
X0191150Y0140315D03*
X0190520Y0141575D03*
X0190520Y0141732D03*
X0189418Y0140630D03*
X0189418Y0140472D03*
X0189576Y0140000D03*
X0189418Y0139685D03*
X0189418Y0139528D03*
X0186898Y0139528D03*
X0186898Y0139685D03*
X0186898Y0139843D03*
X0186898Y0140000D03*
X0186898Y0140157D03*
X0186898Y0140315D03*
X0186898Y0140472D03*
X0186898Y0140630D03*
X0186898Y0140787D03*
X0186898Y0140945D03*
X0185481Y0140945D03*
X0185481Y0141102D03*
X0185481Y0141260D03*
X0185481Y0141417D03*
X0185481Y0141575D03*
X0185481Y0141732D03*
X0185481Y0140787D03*
X0185481Y0140630D03*
X0185481Y0140472D03*
X0185481Y0140315D03*
X0185481Y0140157D03*
X0185481Y0140000D03*
X0185481Y0139843D03*
X0185481Y0139685D03*
X0185481Y0139528D03*
X0185481Y0139370D03*
X0185481Y0139213D03*
X0185481Y0139055D03*
X0185481Y0138898D03*
X0185481Y0138740D03*
X0185481Y0138583D03*
X0185481Y0138425D03*
X0186898Y0139055D03*
X0186898Y0139213D03*
X0186898Y0139370D03*
X0182174Y0139370D03*
X0182174Y0139213D03*
X0182174Y0139055D03*
X0182174Y0138898D03*
X0182174Y0138740D03*
X0182174Y0138583D03*
X0182174Y0138425D03*
X0182174Y0139528D03*
X0182174Y0139685D03*
X0182174Y0139843D03*
X0182174Y0140000D03*
X0182174Y0140157D03*
X0182174Y0140315D03*
X0182174Y0140472D03*
X0182174Y0140630D03*
X0182174Y0140787D03*
X0182174Y0140945D03*
X0182174Y0141102D03*
X0192095Y0138425D03*
X0197135Y0139213D03*
X0197135Y0139370D03*
X0197135Y0139528D03*
X0197135Y0139685D03*
X0196977Y0141102D03*
X0196977Y0141260D03*
X0197135Y0141575D03*
X0197135Y0141732D03*
X0206111Y0141102D03*
X0206111Y0140945D03*
X0206111Y0140787D03*
X0206111Y0140630D03*
X0206111Y0140472D03*
X0206111Y0140315D03*
X0206111Y0139055D03*
X0206111Y0138898D03*
X0206111Y0138740D03*
X0206111Y0138583D03*
X0206111Y0138425D03*
X0208158Y0140315D03*
X0208158Y0141102D03*
X0210048Y0140315D03*
X0210048Y0140157D03*
X0217304Y0135945D03*
X0217213Y0126260D03*
X0221308Y0125945D03*
X0221308Y0124213D03*
X0217686Y0123898D03*
X0213591Y0124055D03*
X0212961Y0124685D03*
X0213619Y0115945D03*
X0213619Y0115787D03*
X0213461Y0114370D03*
X0213619Y0114213D03*
X0215036Y0113110D03*
X0215509Y0114685D03*
X0217556Y0114685D03*
X0217556Y0114528D03*
X0220076Y0113110D03*
X0221335Y0114370D03*
X0221493Y0114213D03*
X0221493Y0115787D03*
X0221493Y0115945D03*
X0218501Y0106890D03*
X0213461Y0105945D03*
X0214879Y0103110D03*
X0216351Y0096575D03*
X0214461Y0095945D03*
X0215721Y0094685D03*
X0216036Y0094055D03*
X0216194Y0093740D03*
X0216351Y0093583D03*
X0218398Y0094055D03*
X0219816Y0093110D03*
X0219957Y0086732D03*
X0216178Y0086575D03*
X0214131Y0085787D03*
X0212713Y0084685D03*
X0212713Y0084528D03*
X0212713Y0084370D03*
X0212713Y0084213D03*
X0216178Y0083425D03*
X0219957Y0083425D03*
X0222162Y0084055D03*
X0222162Y0084213D03*
X0222162Y0084370D03*
X0209091Y0084055D03*
X0208461Y0084685D03*
X0215835Y0076732D03*
X0217725Y0074055D03*
X0215835Y0073425D03*
X0213788Y0073268D03*
X0212213Y0074055D03*
X0212213Y0074843D03*
X0210166Y0073110D03*
X0219300Y0076890D03*
X0220245Y0074528D03*
X0220245Y0074370D03*
X0194753Y0073075D03*
X0194753Y0072917D03*
X0194753Y0071343D03*
X0194753Y0071185D03*
X0194753Y0070713D03*
X0192706Y0071815D03*
X0192706Y0071972D03*
X0192706Y0072130D03*
X0191131Y0070083D03*
X0188926Y0070083D03*
X0187509Y0071972D03*
X0185619Y0071343D03*
D28*
X0185540Y0070555D03*
X0187587Y0071815D03*
X0189005Y0070398D03*
X0189005Y0070240D03*
X0191209Y0070240D03*
X0191209Y0070398D03*
X0191209Y0070555D03*
X0192784Y0071343D03*
X0192784Y0071500D03*
X0192784Y0071657D03*
X0194674Y0072602D03*
X0194674Y0072760D03*
X0190107Y0072760D03*
X0190107Y0072917D03*
X0190107Y0072602D03*
X0194674Y0070555D03*
X0208040Y0074685D03*
X0208040Y0074843D03*
X0208040Y0075000D03*
X0208040Y0075157D03*
X0208040Y0075315D03*
X0210245Y0076890D03*
X0213867Y0075630D03*
X0215757Y0076575D03*
X0220166Y0074843D03*
X0220166Y0074685D03*
X0215757Y0073583D03*
X0214209Y0083268D03*
X0212635Y0084055D03*
X0212635Y0084843D03*
X0214209Y0085630D03*
X0216099Y0086417D03*
X0220036Y0086575D03*
X0222083Y0086102D03*
X0222083Y0084528D03*
X0220036Y0083583D03*
X0218146Y0084055D03*
X0216099Y0083740D03*
X0216099Y0083583D03*
X0210745Y0086890D03*
X0208383Y0085315D03*
X0208383Y0085157D03*
X0208383Y0085000D03*
X0208383Y0084843D03*
X0214540Y0094055D03*
X0216115Y0093898D03*
X0214540Y0096102D03*
X0219894Y0096890D03*
X0219524Y0104528D03*
X0219524Y0104685D03*
X0216847Y0104055D03*
X0214957Y0104055D03*
X0213540Y0104055D03*
X0213540Y0106102D03*
X0214957Y0106890D03*
X0218580Y0106732D03*
X0215430Y0114528D03*
X0217765Y0124055D03*
X0217765Y0124213D03*
X0221229Y0124055D03*
X0217135Y0126102D03*
X0215245Y0126890D03*
X0212883Y0125315D03*
X0212883Y0125157D03*
X0212883Y0125000D03*
X0212883Y0124843D03*
X0192489Y0131583D03*
X0191072Y0131583D03*
X0191072Y0131425D03*
X0191072Y0131268D03*
X0191072Y0131110D03*
X0191072Y0130953D03*
X0191072Y0132370D03*
X0191072Y0132528D03*
X0191072Y0132685D03*
X0191072Y0132843D03*
X0191072Y0133000D03*
X0191072Y0133157D03*
X0191072Y0133315D03*
X0191072Y0133472D03*
X0191072Y0133630D03*
X0191072Y0133787D03*
X0191072Y0133945D03*
X0191072Y0134102D03*
X0191072Y0134260D03*
X0191072Y0134417D03*
X0191072Y0134575D03*
X0191072Y0134732D03*
X0191072Y0134890D03*
X0187292Y0134890D03*
X0187292Y0134732D03*
X0185402Y0134890D03*
X0185087Y0133472D03*
X0186505Y0132370D03*
X0188080Y0132370D03*
X0189812Y0132370D03*
X0183513Y0130953D03*
X0182095Y0138110D03*
X0182095Y0138268D03*
X0185402Y0138268D03*
X0185402Y0138110D03*
X0189497Y0139843D03*
X0189497Y0140157D03*
X0189497Y0140315D03*
X0190442Y0141890D03*
X0193591Y0141890D03*
X0197213Y0141890D03*
X0200993Y0141102D03*
X0200993Y0140945D03*
X0200993Y0140787D03*
X0200993Y0140630D03*
X0200993Y0140472D03*
X0200993Y0140315D03*
X0200993Y0140157D03*
X0200993Y0140000D03*
X0200993Y0139843D03*
X0200993Y0139685D03*
X0200993Y0139528D03*
X0200993Y0139370D03*
X0200993Y0139213D03*
X0200993Y0139055D03*
X0200993Y0138898D03*
X0200993Y0138740D03*
X0200993Y0138583D03*
X0200993Y0138425D03*
X0200993Y0138268D03*
X0200993Y0138110D03*
X0204300Y0138110D03*
X0204300Y0137953D03*
X0204300Y0138268D03*
X0204300Y0138425D03*
X0204300Y0138583D03*
X0204300Y0139370D03*
X0204300Y0139528D03*
X0204300Y0139685D03*
X0204300Y0139843D03*
X0204300Y0140000D03*
X0204300Y0140157D03*
X0204300Y0140315D03*
X0204300Y0140472D03*
X0204300Y0140630D03*
X0204300Y0140787D03*
X0204300Y0140945D03*
X0204300Y0141102D03*
X0204300Y0141260D03*
X0204300Y0141417D03*
X0204300Y0141575D03*
X0204300Y0141732D03*
X0204300Y0141890D03*
X0206662Y0142047D03*
X0192017Y0138268D03*
X0185402Y0141890D03*
X0221162Y0134843D03*
X0221162Y0134685D03*
D29*
X0221162Y0132953D03*
X0223524Y0135787D03*
X0223524Y0135945D03*
X0219430Y0137047D03*
X0209024Y0140630D03*
X0209024Y0140787D03*
X0201938Y0141417D03*
X0201938Y0142047D03*
X0195796Y0138425D03*
X0187765Y0141732D03*
X0211150Y0126890D03*
X0214143Y0124213D03*
X0223591Y0126890D03*
X0211808Y0115315D03*
X0211808Y0115157D03*
X0211808Y0115000D03*
X0211808Y0114843D03*
X0211808Y0114685D03*
X0211808Y0114528D03*
X0211808Y0112953D03*
X0223304Y0112953D03*
X0223461Y0104528D03*
X0223461Y0104370D03*
X0218792Y0095630D03*
X0218792Y0095472D03*
X0218792Y0095315D03*
X0218792Y0095157D03*
X0218792Y0095000D03*
X0218792Y0094843D03*
X0218792Y0094685D03*
X0218792Y0094528D03*
X0213422Y0087047D03*
X0209643Y0084213D03*
X0209300Y0074213D03*
X0220009Y0073110D03*
X0224103Y0074055D03*
X0224103Y0074213D03*
X0197824Y0073390D03*
X0197824Y0073232D03*
D30*
X0190028Y0073547D03*
X0187351Y0072287D03*
X0217725Y0074370D03*
X0217725Y0075630D03*
X0217725Y0075787D03*
X0221820Y0076417D03*
X0224654Y0076417D03*
X0224654Y0076260D03*
X0224654Y0076890D03*
X0220245Y0073898D03*
X0220245Y0073740D03*
X0219800Y0083110D03*
X0218068Y0084370D03*
X0224682Y0085315D03*
X0224682Y0085472D03*
X0224682Y0085630D03*
X0224682Y0085787D03*
X0224682Y0085945D03*
X0224682Y0086102D03*
X0224682Y0086260D03*
X0219800Y0087047D03*
X0216509Y0093268D03*
X0224068Y0096417D03*
X0224068Y0096575D03*
X0224068Y0096732D03*
X0224068Y0096890D03*
X0219446Y0103740D03*
X0217241Y0104843D03*
X0217241Y0105000D03*
X0217241Y0105157D03*
X0218343Y0107047D03*
X0221020Y0106417D03*
X0224013Y0106575D03*
X0224013Y0106732D03*
X0224013Y0106890D03*
X0223855Y0113898D03*
X0223855Y0114055D03*
X0223855Y0114213D03*
X0223855Y0114370D03*
X0223855Y0115472D03*
X0223855Y0115630D03*
X0223855Y0115787D03*
X0223855Y0115945D03*
X0223855Y0116102D03*
X0223855Y0116260D03*
X0223855Y0116417D03*
X0219131Y0116417D03*
X0219131Y0116260D03*
X0215981Y0116260D03*
X0215981Y0116417D03*
X0211257Y0116417D03*
X0211257Y0116260D03*
X0211257Y0116102D03*
X0211257Y0115945D03*
X0211257Y0115787D03*
X0217556Y0113898D03*
X0224143Y0124370D03*
X0224143Y0124528D03*
X0224143Y0124685D03*
X0224143Y0124843D03*
X0224143Y0125000D03*
X0224143Y0125157D03*
X0224143Y0125315D03*
X0224143Y0125472D03*
X0224143Y0125630D03*
X0217371Y0126890D03*
X0210599Y0125472D03*
X0210599Y0125315D03*
X0210599Y0125157D03*
X0210599Y0125000D03*
X0210599Y0124843D03*
X0210599Y0124685D03*
X0210599Y0124528D03*
X0224076Y0133268D03*
X0224076Y0133583D03*
X0224076Y0133740D03*
X0221241Y0133898D03*
X0219509Y0136260D03*
X0215257Y0136260D03*
X0215257Y0136575D03*
X0215257Y0136732D03*
X0215257Y0135315D03*
X0215257Y0135157D03*
X0215257Y0135000D03*
X0215257Y0134843D03*
X0215257Y0134685D03*
X0215257Y0134528D03*
X0209261Y0142047D03*
X0206426Y0141260D03*
X0194930Y0134890D03*
X0194930Y0132370D03*
X0183591Y0131110D03*
X0183591Y0135047D03*
X0192095Y0139055D03*
D31*
X0192095Y0137953D03*
X0216741Y0125000D03*
X0218158Y0125157D03*
X0217556Y0115630D03*
X0217556Y0115472D03*
X0221820Y0074843D03*
X0188926Y0071500D03*
D32*
X0189005Y0071343D03*
X0189005Y0071185D03*
X0190107Y0071657D03*
X0190107Y0071815D03*
X0190107Y0071972D03*
X0191209Y0071500D03*
X0191209Y0071343D03*
X0191209Y0071185D03*
X0187430Y0070713D03*
X0187430Y0070555D03*
X0187272Y0070240D03*
X0215442Y0075000D03*
X0215442Y0075157D03*
X0214524Y0084370D03*
X0214524Y0084528D03*
X0214524Y0084685D03*
X0220351Y0084685D03*
X0220351Y0084843D03*
X0220351Y0085000D03*
X0220351Y0085157D03*
X0220351Y0085315D03*
X0220351Y0085472D03*
X0221769Y0085000D03*
X0221769Y0084843D03*
X0220052Y0093583D03*
X0220052Y0093740D03*
X0216115Y0095315D03*
X0220052Y0096417D03*
X0220052Y0096575D03*
X0221099Y0104843D03*
X0221099Y0105000D03*
X0215272Y0105787D03*
X0213698Y0113898D03*
X0221572Y0113898D03*
X0218080Y0125000D03*
X0216820Y0125157D03*
X0216820Y0125315D03*
X0195481Y0133315D03*
X0195481Y0133945D03*
X0191072Y0131740D03*
X0185402Y0137953D03*
X0182095Y0137953D03*
X0200993Y0137953D03*
X0204300Y0138740D03*
X0206977Y0140157D03*
X0209182Y0139055D03*
X0221162Y0135472D03*
X0221162Y0135315D03*
D33*
X0223367Y0136417D03*
X0223367Y0136575D03*
X0211308Y0127047D03*
X0195954Y0138740D03*
X0195954Y0138898D03*
X0195954Y0140157D03*
X0195954Y0140315D03*
X0192017Y0140472D03*
X0192017Y0140630D03*
X0187922Y0141417D03*
X0187922Y0138583D03*
X0210706Y0106732D03*
X0210548Y0106417D03*
X0219209Y0103110D03*
X0223304Y0103583D03*
X0223304Y0103740D03*
X0211706Y0096732D03*
X0211548Y0096575D03*
X0211548Y0096417D03*
X0211391Y0096260D03*
X0206493Y0086890D03*
X0205706Y0086102D03*
X0205548Y0085945D03*
X0205548Y0085787D03*
X0205548Y0084213D03*
X0205548Y0084055D03*
X0205706Y0083898D03*
X0205863Y0083740D03*
X0206178Y0083425D03*
X0206335Y0083268D03*
X0206308Y0077047D03*
X0205363Y0076102D03*
X0205206Y0075945D03*
X0205206Y0075787D03*
X0205048Y0075630D03*
X0205048Y0074370D03*
X0205206Y0074213D03*
X0205206Y0074055D03*
X0205363Y0073898D03*
X0205993Y0073268D03*
X0206150Y0073110D03*
X0223946Y0073425D03*
X0223946Y0073583D03*
X0186643Y0072602D03*
X0182548Y0072917D03*
X0182548Y0073075D03*
X0182548Y0070083D03*
X0182548Y0069925D03*
D34*
X0190186Y0068350D03*
X0190186Y0074650D03*
X0217769Y0092638D03*
X0217769Y0097362D03*
X0217713Y0102008D03*
X0217713Y0107992D03*
X0217556Y0111850D03*
X0217556Y0112008D03*
X0217556Y0112165D03*
X0217556Y0112323D03*
X0217556Y0112480D03*
X0217556Y0112638D03*
X0217556Y0112795D03*
X0217556Y0117205D03*
X0217556Y0117362D03*
X0217556Y0117520D03*
X0217556Y0117677D03*
X0217556Y0117835D03*
X0217556Y0117992D03*
X0217556Y0118150D03*
D35*
X0217556Y0112953D03*
X0222005Y0082953D03*
D36*
X0206808Y0082953D03*
X0211863Y0093110D03*
X0211391Y0094213D03*
X0211391Y0094370D03*
X0211391Y0094528D03*
X0211391Y0094685D03*
X0211863Y0096890D03*
X0212020Y0097047D03*
X0223146Y0103110D03*
X0210391Y0104213D03*
X0210391Y0104370D03*
X0210391Y0104528D03*
X0210863Y0106890D03*
X0212123Y0115472D03*
X0188080Y0133787D03*
X0188080Y0141102D03*
X0192017Y0140945D03*
X0192017Y0140787D03*
X0216123Y0135787D03*
X0223209Y0137047D03*
X0206465Y0072953D03*
X0197981Y0071657D03*
X0197981Y0071500D03*
X0197824Y0072445D03*
X0197666Y0069925D03*
X0197509Y0069768D03*
X0186800Y0073075D03*
X0186800Y0073232D03*
X0186800Y0073390D03*
X0182391Y0072287D03*
X0182391Y0072130D03*
X0182391Y0071972D03*
X0182391Y0071815D03*
X0182391Y0071657D03*
X0182391Y0071500D03*
X0182391Y0071343D03*
X0182391Y0071185D03*
X0182391Y0071028D03*
X0182391Y0070870D03*
X0182391Y0070713D03*
D37*
X0195343Y0066482D02*
X0222977Y0066482D01*
X0231343Y0066482D01*
X0231343Y0061985D01*
X0228324Y0061985D01*
X0229641Y0063916D01*
X0228391Y0063916D01*
X0227308Y0062260D01*
X0226217Y0063916D01*
X0225011Y0063916D01*
X0226336Y0061985D01*
X0223301Y0061985D01*
X0223301Y0065557D01*
X0222977Y0065557D01*
X0222977Y0066482D01*
X0222977Y0065557D01*
X0196269Y0065557D01*
X0196269Y0057443D01*
X0223301Y0057443D01*
X0223301Y0061985D01*
X0226336Y0061985D01*
X0226696Y0061460D01*
X0225083Y0059088D01*
X0226325Y0059088D01*
X0227340Y0060654D01*
X0228363Y0059088D01*
X0229569Y0059088D01*
X0227956Y0061446D01*
X0228324Y0061985D01*
X0231343Y0061985D01*
X0231343Y0056518D01*
X0223301Y0056518D01*
X0195343Y0056518D01*
X0195343Y0066482D01*
X0195343Y0066478D02*
X0222977Y0066478D01*
X0231343Y0066478D01*
X0231343Y0066441D02*
X0222977Y0066441D01*
X0195343Y0066441D01*
X0195343Y0066403D02*
X0222977Y0066403D01*
X0231343Y0066403D01*
X0231343Y0066365D02*
X0222977Y0066365D01*
X0195343Y0066365D01*
X0195343Y0066327D02*
X0222977Y0066327D01*
X0231343Y0066327D01*
X0231343Y0066289D02*
X0222977Y0066289D01*
X0195343Y0066289D01*
X0195343Y0066251D02*
X0222977Y0066251D01*
X0231343Y0066251D01*
X0231343Y0066213D02*
X0222977Y0066213D01*
X0195343Y0066213D01*
X0195343Y0066175D02*
X0222977Y0066175D01*
X0231343Y0066175D01*
X0231343Y0066137D02*
X0222977Y0066137D01*
X0195343Y0066137D01*
X0195343Y0066100D02*
X0222977Y0066100D01*
X0231343Y0066100D01*
X0231343Y0066062D02*
X0222977Y0066062D01*
X0195343Y0066062D01*
X0195343Y0066024D02*
X0222977Y0066024D01*
X0231343Y0066024D01*
X0231343Y0065986D02*
X0222977Y0065986D01*
X0195343Y0065986D01*
X0195343Y0065948D02*
X0222977Y0065948D01*
X0231343Y0065948D01*
X0231343Y0065910D02*
X0222977Y0065910D01*
X0195343Y0065910D01*
X0195343Y0065872D02*
X0222977Y0065872D01*
X0231343Y0065872D01*
X0231343Y0065834D02*
X0222977Y0065834D01*
X0195343Y0065834D01*
X0195343Y0065797D02*
X0222977Y0065797D01*
X0231343Y0065797D01*
X0231343Y0065759D02*
X0222977Y0065759D01*
X0195343Y0065759D01*
X0195343Y0065721D02*
X0222977Y0065721D01*
X0231343Y0065721D01*
X0231343Y0065683D02*
X0222977Y0065683D01*
X0195343Y0065683D01*
X0195343Y0065645D02*
X0222977Y0065645D01*
X0231343Y0065645D01*
X0231343Y0065607D02*
X0222977Y0065607D01*
X0195343Y0065607D01*
X0195343Y0065569D02*
X0222977Y0065569D01*
X0231343Y0065569D01*
X0231343Y0065531D02*
X0223301Y0065531D01*
X0223301Y0065493D02*
X0231343Y0065493D01*
X0231343Y0065456D02*
X0223301Y0065456D01*
X0223301Y0065418D02*
X0231343Y0065418D01*
X0231343Y0065380D02*
X0223301Y0065380D01*
X0223301Y0065342D02*
X0231343Y0065342D01*
X0231343Y0065304D02*
X0223301Y0065304D01*
X0223301Y0065266D02*
X0231343Y0065266D01*
X0231343Y0065228D02*
X0223301Y0065228D01*
X0223301Y0065190D02*
X0231343Y0065190D01*
X0231343Y0065153D02*
X0223301Y0065153D01*
X0223301Y0065115D02*
X0231343Y0065115D01*
X0231343Y0065077D02*
X0223301Y0065077D01*
X0223301Y0065039D02*
X0231343Y0065039D01*
X0231343Y0065001D02*
X0223301Y0065001D01*
X0223301Y0064963D02*
X0231343Y0064963D01*
X0231343Y0064925D02*
X0223301Y0064925D01*
X0223301Y0064887D02*
X0231343Y0064887D01*
X0231343Y0064850D02*
X0223301Y0064850D01*
X0223301Y0064812D02*
X0231343Y0064812D01*
X0231343Y0064774D02*
X0223301Y0064774D01*
X0223301Y0064736D02*
X0231343Y0064736D01*
X0231343Y0064698D02*
X0223301Y0064698D01*
X0223301Y0064660D02*
X0231343Y0064660D01*
X0231343Y0064622D02*
X0223301Y0064622D01*
X0223301Y0064584D02*
X0231343Y0064584D01*
X0231343Y0064546D02*
X0223301Y0064546D01*
X0223301Y0064509D02*
X0231343Y0064509D01*
X0231343Y0064471D02*
X0223301Y0064471D01*
X0223301Y0064433D02*
X0231343Y0064433D01*
X0231343Y0064395D02*
X0223301Y0064395D01*
X0223301Y0064357D02*
X0231343Y0064357D01*
X0231343Y0064319D02*
X0223301Y0064319D01*
X0223301Y0064281D02*
X0231343Y0064281D01*
X0231343Y0064243D02*
X0223301Y0064243D01*
X0223301Y0064206D02*
X0231343Y0064206D01*
X0231343Y0064168D02*
X0223301Y0064168D01*
X0223301Y0064130D02*
X0231343Y0064130D01*
X0231343Y0064092D02*
X0223301Y0064092D01*
X0223301Y0064054D02*
X0231343Y0064054D01*
X0231343Y0064016D02*
X0223301Y0064016D01*
X0223301Y0063978D02*
X0231343Y0063978D01*
X0231343Y0063940D02*
X0223301Y0063940D01*
X0223301Y0063902D02*
X0225020Y0063902D01*
X0225046Y0063865D02*
X0223301Y0063865D01*
X0223301Y0063827D02*
X0225072Y0063827D01*
X0225098Y0063789D02*
X0223301Y0063789D01*
X0223301Y0063751D02*
X0225124Y0063751D01*
X0225150Y0063713D02*
X0223301Y0063713D01*
X0223301Y0063675D02*
X0225176Y0063675D01*
X0225202Y0063637D02*
X0223301Y0063637D01*
X0223301Y0063599D02*
X0225228Y0063599D01*
X0225254Y0063562D02*
X0223301Y0063562D01*
X0223301Y0063524D02*
X0225280Y0063524D01*
X0225306Y0063486D02*
X0223301Y0063486D01*
X0223301Y0063448D02*
X0225332Y0063448D01*
X0225358Y0063410D02*
X0223301Y0063410D01*
X0223301Y0063372D02*
X0225384Y0063372D01*
X0225410Y0063334D02*
X0223301Y0063334D01*
X0223301Y0063296D02*
X0225436Y0063296D01*
X0225462Y0063258D02*
X0223301Y0063258D01*
X0223301Y0063221D02*
X0225488Y0063221D01*
X0225514Y0063183D02*
X0223301Y0063183D01*
X0223301Y0063145D02*
X0225540Y0063145D01*
X0225566Y0063107D02*
X0223301Y0063107D01*
X0223301Y0063069D02*
X0225592Y0063069D01*
X0225618Y0063031D02*
X0223301Y0063031D01*
X0223301Y0062993D02*
X0225644Y0062993D01*
X0225670Y0062955D02*
X0223301Y0062955D01*
X0223301Y0062918D02*
X0225696Y0062918D01*
X0225722Y0062880D02*
X0223301Y0062880D01*
X0223301Y0062842D02*
X0225748Y0062842D01*
X0225774Y0062804D02*
X0223301Y0062804D01*
X0223301Y0062766D02*
X0225800Y0062766D01*
X0225826Y0062728D02*
X0223301Y0062728D01*
X0223301Y0062690D02*
X0225852Y0062690D01*
X0225878Y0062652D02*
X0223301Y0062652D01*
X0223301Y0062615D02*
X0225904Y0062615D01*
X0225930Y0062577D02*
X0223301Y0062577D01*
X0223301Y0062539D02*
X0225956Y0062539D01*
X0225982Y0062501D02*
X0223301Y0062501D01*
X0223301Y0062463D02*
X0226008Y0062463D01*
X0226034Y0062425D02*
X0223301Y0062425D01*
X0223301Y0062387D02*
X0226060Y0062387D01*
X0226086Y0062349D02*
X0223301Y0062349D01*
X0223301Y0062311D02*
X0226112Y0062311D01*
X0226138Y0062274D02*
X0223301Y0062274D01*
X0223301Y0062236D02*
X0226164Y0062236D01*
X0226190Y0062198D02*
X0223301Y0062198D01*
X0223301Y0062160D02*
X0226216Y0062160D01*
X0226242Y0062122D02*
X0223301Y0062122D01*
X0223301Y0062084D02*
X0226268Y0062084D01*
X0226294Y0062046D02*
X0223301Y0062046D01*
X0223301Y0062008D02*
X0226320Y0062008D01*
X0226346Y0061971D02*
X0223301Y0061971D01*
X0223301Y0061933D02*
X0226372Y0061933D01*
X0226398Y0061895D02*
X0223301Y0061895D01*
X0223301Y0061857D02*
X0226424Y0061857D01*
X0226450Y0061819D02*
X0223301Y0061819D01*
X0223301Y0061781D02*
X0226476Y0061781D01*
X0226502Y0061743D02*
X0223301Y0061743D01*
X0223301Y0061705D02*
X0226528Y0061705D01*
X0226554Y0061667D02*
X0223301Y0061667D01*
X0223301Y0061630D02*
X0226580Y0061630D01*
X0226606Y0061592D02*
X0223301Y0061592D01*
X0223301Y0061554D02*
X0226632Y0061554D01*
X0226658Y0061516D02*
X0223301Y0061516D01*
X0223301Y0061478D02*
X0226684Y0061478D01*
X0226682Y0061440D02*
X0223301Y0061440D01*
X0223301Y0061402D02*
X0226656Y0061402D01*
X0226630Y0061364D02*
X0223301Y0061364D01*
X0223301Y0061327D02*
X0226605Y0061327D01*
X0226579Y0061289D02*
X0223301Y0061289D01*
X0223301Y0061251D02*
X0226553Y0061251D01*
X0226527Y0061213D02*
X0223301Y0061213D01*
X0223301Y0061175D02*
X0226502Y0061175D01*
X0226476Y0061137D02*
X0223301Y0061137D01*
X0223301Y0061099D02*
X0226450Y0061099D01*
X0226424Y0061061D02*
X0223301Y0061061D01*
X0223301Y0061023D02*
X0226399Y0061023D01*
X0226373Y0060986D02*
X0223301Y0060986D01*
X0223301Y0060948D02*
X0226347Y0060948D01*
X0226321Y0060910D02*
X0223301Y0060910D01*
X0223301Y0060872D02*
X0226296Y0060872D01*
X0226270Y0060834D02*
X0223301Y0060834D01*
X0223301Y0060796D02*
X0226244Y0060796D01*
X0226218Y0060758D02*
X0223301Y0060758D01*
X0223301Y0060720D02*
X0226193Y0060720D01*
X0226167Y0060683D02*
X0223301Y0060683D01*
X0223301Y0060645D02*
X0226141Y0060645D01*
X0226115Y0060607D02*
X0223301Y0060607D01*
X0223301Y0060569D02*
X0226090Y0060569D01*
X0226064Y0060531D02*
X0223301Y0060531D01*
X0223301Y0060493D02*
X0226038Y0060493D01*
X0226012Y0060455D02*
X0223301Y0060455D01*
X0223301Y0060417D02*
X0225987Y0060417D01*
X0225961Y0060380D02*
X0223301Y0060380D01*
X0223301Y0060342D02*
X0225935Y0060342D01*
X0225909Y0060304D02*
X0223301Y0060304D01*
X0223301Y0060266D02*
X0225884Y0060266D01*
X0225858Y0060228D02*
X0223301Y0060228D01*
X0223301Y0060190D02*
X0225832Y0060190D01*
X0225806Y0060152D02*
X0223301Y0060152D01*
X0223301Y0060114D02*
X0225781Y0060114D01*
X0225755Y0060076D02*
X0223301Y0060076D01*
X0223301Y0060039D02*
X0225729Y0060039D01*
X0225703Y0060001D02*
X0223301Y0060001D01*
X0223301Y0059963D02*
X0225678Y0059963D01*
X0225652Y0059925D02*
X0223301Y0059925D01*
X0223301Y0059887D02*
X0225626Y0059887D01*
X0225600Y0059849D02*
X0223301Y0059849D01*
X0223301Y0059811D02*
X0225575Y0059811D01*
X0225549Y0059773D02*
X0223301Y0059773D01*
X0223301Y0059736D02*
X0225523Y0059736D01*
X0225497Y0059698D02*
X0223301Y0059698D01*
X0223301Y0059660D02*
X0225472Y0059660D01*
X0225446Y0059622D02*
X0223301Y0059622D01*
X0223301Y0059584D02*
X0225420Y0059584D01*
X0225394Y0059546D02*
X0223301Y0059546D01*
X0223301Y0059508D02*
X0225369Y0059508D01*
X0225343Y0059470D02*
X0223301Y0059470D01*
X0223301Y0059432D02*
X0225317Y0059432D01*
X0225291Y0059395D02*
X0223301Y0059395D01*
X0223301Y0059357D02*
X0225266Y0059357D01*
X0225240Y0059319D02*
X0223301Y0059319D01*
X0223301Y0059281D02*
X0225214Y0059281D01*
X0225188Y0059243D02*
X0223301Y0059243D01*
X0223301Y0059205D02*
X0225163Y0059205D01*
X0225137Y0059167D02*
X0223301Y0059167D01*
X0223301Y0059129D02*
X0225111Y0059129D01*
X0225085Y0059092D02*
X0223301Y0059092D01*
X0223301Y0059054D02*
X0231343Y0059054D01*
X0231343Y0059092D02*
X0229566Y0059092D01*
X0229540Y0059129D02*
X0231343Y0059129D01*
X0231343Y0059167D02*
X0229514Y0059167D01*
X0229488Y0059205D02*
X0231343Y0059205D01*
X0231343Y0059243D02*
X0229462Y0059243D01*
X0229437Y0059281D02*
X0231343Y0059281D01*
X0231343Y0059319D02*
X0229411Y0059319D01*
X0229385Y0059357D02*
X0231343Y0059357D01*
X0231343Y0059395D02*
X0229359Y0059395D01*
X0229333Y0059432D02*
X0231343Y0059432D01*
X0231343Y0059470D02*
X0229307Y0059470D01*
X0229281Y0059508D02*
X0231343Y0059508D01*
X0231343Y0059546D02*
X0229255Y0059546D01*
X0229229Y0059584D02*
X0231343Y0059584D01*
X0231343Y0059622D02*
X0229203Y0059622D01*
X0229177Y0059660D02*
X0231343Y0059660D01*
X0231343Y0059698D02*
X0229152Y0059698D01*
X0229126Y0059736D02*
X0231343Y0059736D01*
X0231343Y0059773D02*
X0229100Y0059773D01*
X0229074Y0059811D02*
X0231343Y0059811D01*
X0231343Y0059849D02*
X0229048Y0059849D01*
X0229022Y0059887D02*
X0231343Y0059887D01*
X0231343Y0059925D02*
X0228996Y0059925D01*
X0228970Y0059963D02*
X0231343Y0059963D01*
X0231343Y0060001D02*
X0228944Y0060001D01*
X0228918Y0060039D02*
X0231343Y0060039D01*
X0231343Y0060076D02*
X0228892Y0060076D01*
X0228867Y0060114D02*
X0231343Y0060114D01*
X0231343Y0060152D02*
X0228841Y0060152D01*
X0228815Y0060190D02*
X0231343Y0060190D01*
X0231343Y0060228D02*
X0228789Y0060228D01*
X0228763Y0060266D02*
X0231343Y0060266D01*
X0231343Y0060304D02*
X0228737Y0060304D01*
X0228711Y0060342D02*
X0231343Y0060342D01*
X0231343Y0060380D02*
X0228685Y0060380D01*
X0228659Y0060417D02*
X0231343Y0060417D01*
X0231343Y0060455D02*
X0228633Y0060455D01*
X0228607Y0060493D02*
X0231343Y0060493D01*
X0231343Y0060531D02*
X0228582Y0060531D01*
X0228556Y0060569D02*
X0231343Y0060569D01*
X0231343Y0060607D02*
X0228530Y0060607D01*
X0228504Y0060645D02*
X0231343Y0060645D01*
X0231343Y0060683D02*
X0228478Y0060683D01*
X0228452Y0060720D02*
X0231343Y0060720D01*
X0231343Y0060758D02*
X0228426Y0060758D01*
X0228400Y0060796D02*
X0231343Y0060796D01*
X0231343Y0060834D02*
X0228374Y0060834D01*
X0228348Y0060872D02*
X0231343Y0060872D01*
X0231343Y0060910D02*
X0228322Y0060910D01*
X0228297Y0060948D02*
X0231343Y0060948D01*
X0231343Y0060986D02*
X0228271Y0060986D01*
X0228245Y0061023D02*
X0231343Y0061023D01*
X0231343Y0061061D02*
X0228219Y0061061D01*
X0228193Y0061099D02*
X0231343Y0061099D01*
X0231343Y0061137D02*
X0228167Y0061137D01*
X0228141Y0061175D02*
X0231343Y0061175D01*
X0231343Y0061213D02*
X0228115Y0061213D01*
X0228089Y0061251D02*
X0231343Y0061251D01*
X0231343Y0061289D02*
X0228063Y0061289D01*
X0228037Y0061327D02*
X0231343Y0061327D01*
X0231343Y0061364D02*
X0228012Y0061364D01*
X0227986Y0061402D02*
X0231343Y0061402D01*
X0231343Y0061440D02*
X0227960Y0061440D01*
X0227978Y0061478D02*
X0231343Y0061478D01*
X0231343Y0061516D02*
X0228003Y0061516D01*
X0228029Y0061554D02*
X0231343Y0061554D01*
X0231343Y0061592D02*
X0228055Y0061592D01*
X0228081Y0061630D02*
X0231343Y0061630D01*
X0231343Y0061667D02*
X0228107Y0061667D01*
X0228133Y0061705D02*
X0231343Y0061705D01*
X0231343Y0061743D02*
X0228159Y0061743D01*
X0228184Y0061781D02*
X0231343Y0061781D01*
X0231343Y0061819D02*
X0228210Y0061819D01*
X0228236Y0061857D02*
X0231343Y0061857D01*
X0231343Y0061895D02*
X0228262Y0061895D01*
X0228288Y0061933D02*
X0231343Y0061933D01*
X0231343Y0061971D02*
X0228314Y0061971D01*
X0228340Y0062008D02*
X0231343Y0062008D01*
X0231343Y0062046D02*
X0228365Y0062046D01*
X0228391Y0062084D02*
X0231343Y0062084D01*
X0231343Y0062122D02*
X0228417Y0062122D01*
X0228443Y0062160D02*
X0231343Y0062160D01*
X0231343Y0062198D02*
X0228469Y0062198D01*
X0228495Y0062236D02*
X0231343Y0062236D01*
X0231343Y0062274D02*
X0228520Y0062274D01*
X0228546Y0062311D02*
X0231343Y0062311D01*
X0231343Y0062349D02*
X0228572Y0062349D01*
X0228598Y0062387D02*
X0231343Y0062387D01*
X0231343Y0062425D02*
X0228624Y0062425D01*
X0228650Y0062463D02*
X0231343Y0062463D01*
X0231343Y0062501D02*
X0228675Y0062501D01*
X0228701Y0062539D02*
X0231343Y0062539D01*
X0231343Y0062577D02*
X0228727Y0062577D01*
X0228753Y0062615D02*
X0231343Y0062615D01*
X0231343Y0062652D02*
X0228779Y0062652D01*
X0228805Y0062690D02*
X0231343Y0062690D01*
X0231343Y0062728D02*
X0228830Y0062728D01*
X0228856Y0062766D02*
X0231343Y0062766D01*
X0231343Y0062804D02*
X0228882Y0062804D01*
X0228908Y0062842D02*
X0231343Y0062842D01*
X0231343Y0062880D02*
X0228934Y0062880D01*
X0228960Y0062918D02*
X0231343Y0062918D01*
X0231343Y0062955D02*
X0228986Y0062955D01*
X0229011Y0062993D02*
X0231343Y0062993D01*
X0231343Y0063031D02*
X0229037Y0063031D01*
X0229063Y0063069D02*
X0231343Y0063069D01*
X0231343Y0063107D02*
X0229089Y0063107D01*
X0229115Y0063145D02*
X0231343Y0063145D01*
X0231343Y0063183D02*
X0229141Y0063183D01*
X0229166Y0063221D02*
X0231343Y0063221D01*
X0231343Y0063258D02*
X0229192Y0063258D01*
X0229218Y0063296D02*
X0231343Y0063296D01*
X0231343Y0063334D02*
X0229244Y0063334D01*
X0229270Y0063372D02*
X0231343Y0063372D01*
X0231343Y0063410D02*
X0229296Y0063410D01*
X0229321Y0063448D02*
X0231343Y0063448D01*
X0231343Y0063486D02*
X0229347Y0063486D01*
X0229373Y0063524D02*
X0231343Y0063524D01*
X0231343Y0063562D02*
X0229399Y0063562D01*
X0229425Y0063599D02*
X0231343Y0063599D01*
X0231343Y0063637D02*
X0229451Y0063637D01*
X0229477Y0063675D02*
X0231343Y0063675D01*
X0231343Y0063713D02*
X0229502Y0063713D01*
X0229528Y0063751D02*
X0231343Y0063751D01*
X0231343Y0063789D02*
X0229554Y0063789D01*
X0229580Y0063827D02*
X0231343Y0063827D01*
X0231343Y0063865D02*
X0229606Y0063865D01*
X0229632Y0063902D02*
X0231343Y0063902D01*
X0228383Y0063902D02*
X0226226Y0063902D01*
X0226251Y0063865D02*
X0228358Y0063865D01*
X0228333Y0063827D02*
X0226275Y0063827D01*
X0226300Y0063789D02*
X0228308Y0063789D01*
X0228284Y0063751D02*
X0226325Y0063751D01*
X0226350Y0063713D02*
X0228259Y0063713D01*
X0228234Y0063675D02*
X0226375Y0063675D01*
X0226400Y0063637D02*
X0228209Y0063637D01*
X0228184Y0063599D02*
X0226425Y0063599D01*
X0226450Y0063562D02*
X0228160Y0063562D01*
X0228135Y0063524D02*
X0226475Y0063524D01*
X0226500Y0063486D02*
X0228110Y0063486D01*
X0228085Y0063448D02*
X0226525Y0063448D01*
X0226550Y0063410D02*
X0228060Y0063410D01*
X0228036Y0063372D02*
X0226575Y0063372D01*
X0226600Y0063334D02*
X0228011Y0063334D01*
X0227986Y0063296D02*
X0226625Y0063296D01*
X0226650Y0063258D02*
X0227961Y0063258D01*
X0227937Y0063221D02*
X0226675Y0063221D01*
X0226700Y0063183D02*
X0227912Y0063183D01*
X0227887Y0063145D02*
X0226725Y0063145D01*
X0226750Y0063107D02*
X0227862Y0063107D01*
X0227837Y0063069D02*
X0226775Y0063069D01*
X0226799Y0063031D02*
X0227813Y0063031D01*
X0227788Y0062993D02*
X0226824Y0062993D01*
X0226849Y0062955D02*
X0227763Y0062955D01*
X0227738Y0062918D02*
X0226874Y0062918D01*
X0226899Y0062880D02*
X0227713Y0062880D01*
X0227689Y0062842D02*
X0226924Y0062842D01*
X0226949Y0062804D02*
X0227664Y0062804D01*
X0227639Y0062766D02*
X0226974Y0062766D01*
X0226999Y0062728D02*
X0227614Y0062728D01*
X0227590Y0062690D02*
X0227024Y0062690D01*
X0227049Y0062652D02*
X0227565Y0062652D01*
X0227540Y0062615D02*
X0227074Y0062615D01*
X0227099Y0062577D02*
X0227515Y0062577D01*
X0227490Y0062539D02*
X0227124Y0062539D01*
X0227149Y0062501D02*
X0227466Y0062501D01*
X0227441Y0062463D02*
X0227174Y0062463D01*
X0227199Y0062425D02*
X0227416Y0062425D01*
X0227391Y0062387D02*
X0227224Y0062387D01*
X0227249Y0062349D02*
X0227366Y0062349D01*
X0227342Y0062311D02*
X0227274Y0062311D01*
X0227298Y0062274D02*
X0227317Y0062274D01*
X0221947Y0063916D02*
X0219892Y0061136D01*
X0220679Y0060316D01*
X0219435Y0060316D01*
X0220576Y0059088D01*
X0221857Y0059088D01*
X0220679Y0060316D01*
X0219435Y0060316D01*
X0218617Y0061198D01*
X0218617Y0060316D01*
X0217555Y0060316D01*
X0217555Y0059088D01*
X0218617Y0059088D01*
X0218617Y0060316D01*
X0217555Y0060316D01*
X0217555Y0063916D01*
X0218617Y0063916D01*
X0218617Y0062440D01*
X0219175Y0061860D01*
X0220673Y0063916D01*
X0221947Y0063916D01*
X0221938Y0063902D02*
X0220663Y0063902D01*
X0220636Y0063865D02*
X0221910Y0063865D01*
X0221882Y0063827D02*
X0220608Y0063827D01*
X0220581Y0063789D02*
X0221854Y0063789D01*
X0221826Y0063751D02*
X0220553Y0063751D01*
X0220525Y0063713D02*
X0221798Y0063713D01*
X0221769Y0063675D02*
X0220498Y0063675D01*
X0220470Y0063637D02*
X0221741Y0063637D01*
X0221713Y0063599D02*
X0220443Y0063599D01*
X0220415Y0063562D02*
X0221685Y0063562D01*
X0221657Y0063524D02*
X0220387Y0063524D01*
X0220360Y0063486D02*
X0221629Y0063486D01*
X0221601Y0063448D02*
X0220332Y0063448D01*
X0220305Y0063410D02*
X0221573Y0063410D01*
X0221545Y0063372D02*
X0220277Y0063372D01*
X0220249Y0063334D02*
X0221517Y0063334D01*
X0221489Y0063296D02*
X0220222Y0063296D01*
X0220194Y0063258D02*
X0221461Y0063258D01*
X0221433Y0063221D02*
X0220167Y0063221D01*
X0220139Y0063183D02*
X0221405Y0063183D01*
X0221377Y0063145D02*
X0220111Y0063145D01*
X0220084Y0063107D02*
X0221349Y0063107D01*
X0221321Y0063069D02*
X0220056Y0063069D01*
X0220029Y0063031D02*
X0221293Y0063031D01*
X0221265Y0062993D02*
X0220001Y0062993D01*
X0219973Y0062955D02*
X0221237Y0062955D01*
X0221209Y0062918D02*
X0219946Y0062918D01*
X0219918Y0062880D02*
X0221181Y0062880D01*
X0221153Y0062842D02*
X0219891Y0062842D01*
X0219863Y0062804D02*
X0221125Y0062804D01*
X0221097Y0062766D02*
X0219835Y0062766D01*
X0219808Y0062728D02*
X0221069Y0062728D01*
X0221041Y0062690D02*
X0219780Y0062690D01*
X0219753Y0062652D02*
X0221013Y0062652D01*
X0220985Y0062615D02*
X0219725Y0062615D01*
X0219697Y0062577D02*
X0220957Y0062577D01*
X0220929Y0062539D02*
X0219670Y0062539D01*
X0219642Y0062501D02*
X0220901Y0062501D01*
X0220873Y0062463D02*
X0219615Y0062463D01*
X0219587Y0062425D02*
X0220845Y0062425D01*
X0220817Y0062387D02*
X0219559Y0062387D01*
X0219532Y0062349D02*
X0220789Y0062349D01*
X0220761Y0062311D02*
X0219504Y0062311D01*
X0219477Y0062274D02*
X0220733Y0062274D01*
X0220705Y0062236D02*
X0219449Y0062236D01*
X0219421Y0062198D02*
X0220677Y0062198D01*
X0220649Y0062160D02*
X0219394Y0062160D01*
X0219366Y0062122D02*
X0220621Y0062122D01*
X0220593Y0062084D02*
X0219339Y0062084D01*
X0219311Y0062046D02*
X0220565Y0062046D01*
X0220537Y0062008D02*
X0219283Y0062008D01*
X0219256Y0061971D02*
X0220509Y0061971D01*
X0220481Y0061933D02*
X0219228Y0061933D01*
X0219201Y0061895D02*
X0220453Y0061895D01*
X0220425Y0061857D02*
X0217555Y0061857D01*
X0217555Y0061895D02*
X0219142Y0061895D01*
X0219105Y0061933D02*
X0217555Y0061933D01*
X0217555Y0061971D02*
X0219069Y0061971D01*
X0219032Y0062008D02*
X0217555Y0062008D01*
X0217555Y0062046D02*
X0218996Y0062046D01*
X0218959Y0062084D02*
X0217555Y0062084D01*
X0217555Y0062122D02*
X0218923Y0062122D01*
X0218887Y0062160D02*
X0217555Y0062160D01*
X0217555Y0062198D02*
X0218850Y0062198D01*
X0218814Y0062236D02*
X0217555Y0062236D01*
X0217555Y0062274D02*
X0218777Y0062274D01*
X0218741Y0062311D02*
X0217555Y0062311D01*
X0217555Y0062349D02*
X0218704Y0062349D01*
X0218668Y0062387D02*
X0217555Y0062387D01*
X0217555Y0062425D02*
X0218631Y0062425D01*
X0218617Y0062463D02*
X0217555Y0062463D01*
X0217555Y0062501D02*
X0218617Y0062501D01*
X0218617Y0062539D02*
X0217555Y0062539D01*
X0217555Y0062577D02*
X0218617Y0062577D01*
X0218617Y0062615D02*
X0217555Y0062615D01*
X0217555Y0062652D02*
X0218617Y0062652D01*
X0218617Y0062690D02*
X0217555Y0062690D01*
X0217555Y0062728D02*
X0218617Y0062728D01*
X0218617Y0062766D02*
X0217555Y0062766D01*
X0217555Y0062804D02*
X0218617Y0062804D01*
X0218617Y0062842D02*
X0217555Y0062842D01*
X0217555Y0062880D02*
X0218617Y0062880D01*
X0218617Y0062918D02*
X0217555Y0062918D01*
X0217555Y0062955D02*
X0218617Y0062955D01*
X0218617Y0062993D02*
X0217555Y0062993D01*
X0217555Y0063031D02*
X0218617Y0063031D01*
X0218617Y0063069D02*
X0217555Y0063069D01*
X0217555Y0063107D02*
X0218617Y0063107D01*
X0218617Y0063145D02*
X0217555Y0063145D01*
X0217555Y0063183D02*
X0218617Y0063183D01*
X0218617Y0063221D02*
X0217555Y0063221D01*
X0217555Y0063258D02*
X0218617Y0063258D01*
X0218617Y0063296D02*
X0217555Y0063296D01*
X0217555Y0063334D02*
X0218617Y0063334D01*
X0218617Y0063372D02*
X0217555Y0063372D01*
X0217555Y0063410D02*
X0218617Y0063410D01*
X0218617Y0063448D02*
X0217555Y0063448D01*
X0217555Y0063486D02*
X0218617Y0063486D01*
X0218617Y0063524D02*
X0217555Y0063524D01*
X0217555Y0063562D02*
X0218617Y0063562D01*
X0218617Y0063599D02*
X0217555Y0063599D01*
X0217555Y0063637D02*
X0218617Y0063637D01*
X0218617Y0063675D02*
X0217555Y0063675D01*
X0217555Y0063713D02*
X0218617Y0063713D01*
X0218617Y0063751D02*
X0217555Y0063751D01*
X0217555Y0063789D02*
X0218617Y0063789D01*
X0218617Y0063827D02*
X0217555Y0063827D01*
X0217555Y0063865D02*
X0218617Y0063865D01*
X0218617Y0063902D02*
X0217555Y0063902D01*
X0216738Y0063916D02*
X0215557Y0062191D01*
X0215976Y0061970D01*
X0216306Y0061651D01*
X0216522Y0061228D01*
X0216594Y0060697D01*
X0216594Y0060683D01*
X0216565Y0060328D01*
X0216561Y0060316D01*
X0215373Y0060316D01*
X0215298Y0060218D01*
X0215034Y0060089D01*
X0214683Y0060046D01*
X0213628Y0060046D01*
X0213628Y0060316D01*
X0212566Y0060316D01*
X0212566Y0059088D01*
X0214773Y0059088D01*
X0215180Y0059114D01*
X0215540Y0059193D01*
X0215851Y0059325D01*
X0216115Y0059509D01*
X0216325Y0059741D01*
X0216475Y0060014D01*
X0216561Y0060316D01*
X0215373Y0060316D01*
X0215463Y0060434D01*
X0215518Y0060737D01*
X0215518Y0060748D01*
X0215466Y0061026D01*
X0215309Y0061244D01*
X0215053Y0061384D01*
X0214704Y0061432D01*
X0213628Y0061432D01*
X0213628Y0060316D01*
X0212566Y0060316D01*
X0212566Y0063916D01*
X0213628Y0063916D01*
X0213628Y0062371D01*
X0214463Y0062371D01*
X0215496Y0063916D01*
X0216738Y0063916D01*
X0216729Y0063902D02*
X0215487Y0063902D01*
X0215462Y0063865D02*
X0216703Y0063865D01*
X0216677Y0063827D02*
X0215437Y0063827D01*
X0215411Y0063789D02*
X0216651Y0063789D01*
X0216625Y0063751D02*
X0215386Y0063751D01*
X0215361Y0063713D02*
X0216599Y0063713D01*
X0216573Y0063675D02*
X0215335Y0063675D01*
X0215310Y0063637D02*
X0216548Y0063637D01*
X0216522Y0063599D02*
X0215285Y0063599D01*
X0215259Y0063562D02*
X0216496Y0063562D01*
X0216470Y0063524D02*
X0215234Y0063524D01*
X0215209Y0063486D02*
X0216444Y0063486D01*
X0216418Y0063448D02*
X0215183Y0063448D01*
X0215158Y0063410D02*
X0216392Y0063410D01*
X0216366Y0063372D02*
X0215133Y0063372D01*
X0215107Y0063334D02*
X0216340Y0063334D01*
X0216314Y0063296D02*
X0215082Y0063296D01*
X0215056Y0063258D02*
X0216288Y0063258D01*
X0216262Y0063221D02*
X0215031Y0063221D01*
X0215006Y0063183D02*
X0216236Y0063183D01*
X0216210Y0063145D02*
X0214980Y0063145D01*
X0214955Y0063107D02*
X0216184Y0063107D01*
X0216158Y0063069D02*
X0214930Y0063069D01*
X0214904Y0063031D02*
X0216133Y0063031D01*
X0216107Y0062993D02*
X0214879Y0062993D01*
X0214854Y0062955D02*
X0216081Y0062955D01*
X0216055Y0062918D02*
X0214828Y0062918D01*
X0214803Y0062880D02*
X0216029Y0062880D01*
X0216003Y0062842D02*
X0214778Y0062842D01*
X0214752Y0062804D02*
X0215977Y0062804D01*
X0215951Y0062766D02*
X0214727Y0062766D01*
X0214702Y0062728D02*
X0215925Y0062728D01*
X0215899Y0062690D02*
X0214676Y0062690D01*
X0214651Y0062652D02*
X0215873Y0062652D01*
X0215847Y0062615D02*
X0214626Y0062615D01*
X0214600Y0062577D02*
X0215821Y0062577D01*
X0215795Y0062539D02*
X0214575Y0062539D01*
X0214550Y0062501D02*
X0215769Y0062501D01*
X0215743Y0062463D02*
X0214524Y0062463D01*
X0214499Y0062425D02*
X0215717Y0062425D01*
X0215692Y0062387D02*
X0214474Y0062387D01*
X0213628Y0062387D02*
X0212566Y0062387D01*
X0212566Y0062349D02*
X0215666Y0062349D01*
X0215640Y0062311D02*
X0212566Y0062311D01*
X0212566Y0062274D02*
X0215614Y0062274D01*
X0215588Y0062236D02*
X0212566Y0062236D01*
X0212566Y0062198D02*
X0215562Y0062198D01*
X0215616Y0062160D02*
X0212566Y0062160D01*
X0212566Y0062122D02*
X0215688Y0062122D01*
X0215760Y0062084D02*
X0212566Y0062084D01*
X0212566Y0062046D02*
X0215831Y0062046D01*
X0215903Y0062008D02*
X0212566Y0062008D01*
X0212566Y0061971D02*
X0215974Y0061971D01*
X0216014Y0061933D02*
X0212566Y0061933D01*
X0212566Y0061895D02*
X0216054Y0061895D01*
X0216093Y0061857D02*
X0212566Y0061857D01*
X0212566Y0061819D02*
X0216132Y0061819D01*
X0216171Y0061781D02*
X0212566Y0061781D01*
X0212566Y0061743D02*
X0216211Y0061743D01*
X0216250Y0061705D02*
X0212566Y0061705D01*
X0212566Y0061667D02*
X0216289Y0061667D01*
X0216317Y0061630D02*
X0212566Y0061630D01*
X0212566Y0061592D02*
X0216336Y0061592D01*
X0216356Y0061554D02*
X0212566Y0061554D01*
X0212566Y0061516D02*
X0216375Y0061516D01*
X0216394Y0061478D02*
X0212566Y0061478D01*
X0212566Y0061440D02*
X0216414Y0061440D01*
X0216433Y0061402D02*
X0214919Y0061402D01*
X0215088Y0061364D02*
X0216452Y0061364D01*
X0216472Y0061327D02*
X0215158Y0061327D01*
X0215228Y0061289D02*
X0216491Y0061289D01*
X0216510Y0061251D02*
X0215297Y0061251D01*
X0215332Y0061213D02*
X0216524Y0061213D01*
X0216529Y0061175D02*
X0215359Y0061175D01*
X0215386Y0061137D02*
X0216534Y0061137D01*
X0216539Y0061099D02*
X0215413Y0061099D01*
X0215440Y0061061D02*
X0216544Y0061061D01*
X0216550Y0061023D02*
X0215466Y0061023D01*
X0215474Y0060986D02*
X0216555Y0060986D01*
X0216560Y0060948D02*
X0215481Y0060948D01*
X0215488Y0060910D02*
X0216565Y0060910D01*
X0216570Y0060872D02*
X0215495Y0060872D01*
X0215502Y0060834D02*
X0216575Y0060834D01*
X0216581Y0060796D02*
X0215509Y0060796D01*
X0215516Y0060758D02*
X0216586Y0060758D01*
X0216591Y0060720D02*
X0215515Y0060720D01*
X0215508Y0060683D02*
X0216594Y0060683D01*
X0216591Y0060645D02*
X0215501Y0060645D01*
X0215494Y0060607D02*
X0216588Y0060607D01*
X0216585Y0060569D02*
X0215487Y0060569D01*
X0215481Y0060531D02*
X0216581Y0060531D01*
X0216578Y0060493D02*
X0215474Y0060493D01*
X0215467Y0060455D02*
X0216575Y0060455D01*
X0216572Y0060417D02*
X0215450Y0060417D01*
X0215421Y0060380D02*
X0216569Y0060380D01*
X0216566Y0060342D02*
X0215392Y0060342D01*
X0215363Y0060304D02*
X0216557Y0060304D01*
X0216547Y0060266D02*
X0215334Y0060266D01*
X0215305Y0060228D02*
X0216536Y0060228D01*
X0216525Y0060190D02*
X0215240Y0060190D01*
X0215163Y0060152D02*
X0216514Y0060152D01*
X0216504Y0060114D02*
X0215086Y0060114D01*
X0214933Y0060076D02*
X0216493Y0060076D01*
X0216482Y0060039D02*
X0212566Y0060039D01*
X0212566Y0060076D02*
X0213628Y0060076D01*
X0213628Y0060114D02*
X0212566Y0060114D01*
X0212566Y0060152D02*
X0213628Y0060152D01*
X0213628Y0060190D02*
X0212566Y0060190D01*
X0212566Y0060228D02*
X0213628Y0060228D01*
X0213628Y0060266D02*
X0212566Y0060266D01*
X0212566Y0060304D02*
X0213628Y0060304D01*
X0213628Y0060342D02*
X0212566Y0060342D01*
X0212566Y0060380D02*
X0213628Y0060380D01*
X0213628Y0060417D02*
X0212566Y0060417D01*
X0212566Y0060455D02*
X0213628Y0060455D01*
X0213628Y0060493D02*
X0212566Y0060493D01*
X0212566Y0060531D02*
X0213628Y0060531D01*
X0213628Y0060569D02*
X0212566Y0060569D01*
X0212566Y0060607D02*
X0213628Y0060607D01*
X0213628Y0060645D02*
X0212566Y0060645D01*
X0212566Y0060683D02*
X0213628Y0060683D01*
X0213628Y0060720D02*
X0212566Y0060720D01*
X0212566Y0060758D02*
X0213628Y0060758D01*
X0213628Y0060796D02*
X0212566Y0060796D01*
X0212566Y0060834D02*
X0213628Y0060834D01*
X0213628Y0060872D02*
X0212566Y0060872D01*
X0212566Y0060910D02*
X0213628Y0060910D01*
X0213628Y0060948D02*
X0212566Y0060948D01*
X0212566Y0060986D02*
X0213628Y0060986D01*
X0213628Y0061023D02*
X0212566Y0061023D01*
X0212566Y0061061D02*
X0213628Y0061061D01*
X0213628Y0061099D02*
X0212566Y0061099D01*
X0212566Y0061137D02*
X0213628Y0061137D01*
X0213628Y0061175D02*
X0212566Y0061175D01*
X0212566Y0061213D02*
X0213628Y0061213D01*
X0213628Y0061251D02*
X0212566Y0061251D01*
X0212566Y0061289D02*
X0213628Y0061289D01*
X0213628Y0061327D02*
X0212566Y0061327D01*
X0212566Y0061364D02*
X0213628Y0061364D01*
X0213628Y0061402D02*
X0212566Y0061402D01*
X0212566Y0062425D02*
X0213628Y0062425D01*
X0213628Y0062463D02*
X0212566Y0062463D01*
X0212566Y0062501D02*
X0213628Y0062501D01*
X0213628Y0062539D02*
X0212566Y0062539D01*
X0212566Y0062577D02*
X0213628Y0062577D01*
X0213628Y0062615D02*
X0212566Y0062615D01*
X0212566Y0062652D02*
X0213628Y0062652D01*
X0213628Y0062690D02*
X0212566Y0062690D01*
X0212566Y0062728D02*
X0213628Y0062728D01*
X0213628Y0062766D02*
X0212566Y0062766D01*
X0212566Y0062804D02*
X0213628Y0062804D01*
X0213628Y0062842D02*
X0212566Y0062842D01*
X0212566Y0062880D02*
X0213628Y0062880D01*
X0213628Y0062918D02*
X0212566Y0062918D01*
X0212566Y0062955D02*
X0213628Y0062955D01*
X0213628Y0062993D02*
X0212566Y0062993D01*
X0212566Y0063031D02*
X0213628Y0063031D01*
X0213628Y0063069D02*
X0212566Y0063069D01*
X0212566Y0063107D02*
X0213628Y0063107D01*
X0213628Y0063145D02*
X0212566Y0063145D01*
X0212566Y0063183D02*
X0213628Y0063183D01*
X0213628Y0063221D02*
X0212566Y0063221D01*
X0212566Y0063258D02*
X0213628Y0063258D01*
X0213628Y0063296D02*
X0212566Y0063296D01*
X0212566Y0063334D02*
X0213628Y0063334D01*
X0213628Y0063372D02*
X0212566Y0063372D01*
X0212566Y0063410D02*
X0213628Y0063410D01*
X0213628Y0063448D02*
X0212566Y0063448D01*
X0212566Y0063486D02*
X0213628Y0063486D01*
X0213628Y0063524D02*
X0212566Y0063524D01*
X0212566Y0063562D02*
X0213628Y0063562D01*
X0213628Y0063599D02*
X0212566Y0063599D01*
X0212566Y0063637D02*
X0213628Y0063637D01*
X0213628Y0063675D02*
X0212566Y0063675D01*
X0212566Y0063713D02*
X0213628Y0063713D01*
X0213628Y0063751D02*
X0212566Y0063751D01*
X0212566Y0063789D02*
X0213628Y0063789D01*
X0213628Y0063827D02*
X0212566Y0063827D01*
X0212566Y0063865D02*
X0213628Y0063865D01*
X0213628Y0063902D02*
X0212566Y0063902D01*
X0211821Y0063916D02*
X0210289Y0060316D01*
X0208233Y0060316D01*
X0208771Y0059052D01*
X0209751Y0059052D01*
X0210289Y0060316D01*
X0208233Y0060316D01*
X0206701Y0063916D01*
X0207785Y0063916D01*
X0209247Y0060330D01*
X0210708Y0063916D01*
X0211821Y0063916D01*
X0211815Y0063902D02*
X0210703Y0063902D01*
X0210687Y0063865D02*
X0211799Y0063865D01*
X0211783Y0063827D02*
X0210672Y0063827D01*
X0210656Y0063789D02*
X0211767Y0063789D01*
X0211750Y0063751D02*
X0210641Y0063751D01*
X0210626Y0063713D02*
X0211734Y0063713D01*
X0211718Y0063675D02*
X0210610Y0063675D01*
X0210595Y0063637D02*
X0211702Y0063637D01*
X0211686Y0063599D02*
X0210579Y0063599D01*
X0210564Y0063562D02*
X0211670Y0063562D01*
X0211654Y0063524D02*
X0210548Y0063524D01*
X0210533Y0063486D02*
X0211638Y0063486D01*
X0211621Y0063448D02*
X0210517Y0063448D01*
X0210502Y0063410D02*
X0211605Y0063410D01*
X0211589Y0063372D02*
X0210487Y0063372D01*
X0210471Y0063334D02*
X0211573Y0063334D01*
X0211557Y0063296D02*
X0210456Y0063296D01*
X0210440Y0063258D02*
X0211541Y0063258D01*
X0211525Y0063221D02*
X0210425Y0063221D01*
X0210409Y0063183D02*
X0211509Y0063183D01*
X0211492Y0063145D02*
X0210394Y0063145D01*
X0210378Y0063107D02*
X0211476Y0063107D01*
X0211460Y0063069D02*
X0210363Y0063069D01*
X0210348Y0063031D02*
X0211444Y0063031D01*
X0211428Y0062993D02*
X0210332Y0062993D01*
X0210317Y0062955D02*
X0211412Y0062955D01*
X0211396Y0062918D02*
X0210301Y0062918D01*
X0210286Y0062880D02*
X0211380Y0062880D01*
X0211363Y0062842D02*
X0210270Y0062842D01*
X0210255Y0062804D02*
X0211347Y0062804D01*
X0211331Y0062766D02*
X0210240Y0062766D01*
X0210224Y0062728D02*
X0211315Y0062728D01*
X0211299Y0062690D02*
X0210209Y0062690D01*
X0210193Y0062652D02*
X0211283Y0062652D01*
X0211267Y0062615D02*
X0210178Y0062615D01*
X0210162Y0062577D02*
X0211251Y0062577D01*
X0211234Y0062539D02*
X0210147Y0062539D01*
X0210131Y0062501D02*
X0211218Y0062501D01*
X0211202Y0062463D02*
X0210116Y0062463D01*
X0210101Y0062425D02*
X0211186Y0062425D01*
X0211170Y0062387D02*
X0210085Y0062387D01*
X0210070Y0062349D02*
X0211154Y0062349D01*
X0211138Y0062311D02*
X0210054Y0062311D01*
X0210039Y0062274D02*
X0211122Y0062274D01*
X0211105Y0062236D02*
X0210023Y0062236D01*
X0210008Y0062198D02*
X0211089Y0062198D01*
X0211073Y0062160D02*
X0209992Y0062160D01*
X0209977Y0062122D02*
X0211057Y0062122D01*
X0211041Y0062084D02*
X0209962Y0062084D01*
X0209946Y0062046D02*
X0211025Y0062046D01*
X0211009Y0062008D02*
X0209931Y0062008D01*
X0209915Y0061971D02*
X0210993Y0061971D01*
X0210976Y0061933D02*
X0209900Y0061933D01*
X0209884Y0061895D02*
X0210960Y0061895D01*
X0210944Y0061857D02*
X0209869Y0061857D01*
X0209853Y0061819D02*
X0210928Y0061819D01*
X0210912Y0061781D02*
X0209838Y0061781D01*
X0209823Y0061743D02*
X0210896Y0061743D01*
X0210880Y0061705D02*
X0209807Y0061705D01*
X0209792Y0061667D02*
X0210864Y0061667D01*
X0210847Y0061630D02*
X0209776Y0061630D01*
X0209761Y0061592D02*
X0210831Y0061592D01*
X0210815Y0061554D02*
X0209745Y0061554D01*
X0209730Y0061516D02*
X0210799Y0061516D01*
X0210783Y0061478D02*
X0209714Y0061478D01*
X0209699Y0061440D02*
X0210767Y0061440D01*
X0210751Y0061402D02*
X0209684Y0061402D01*
X0209668Y0061364D02*
X0210735Y0061364D01*
X0210718Y0061327D02*
X0209653Y0061327D01*
X0209637Y0061289D02*
X0210702Y0061289D01*
X0210686Y0061251D02*
X0209622Y0061251D01*
X0209606Y0061213D02*
X0210670Y0061213D01*
X0210654Y0061175D02*
X0209591Y0061175D01*
X0209576Y0061137D02*
X0210638Y0061137D01*
X0210622Y0061099D02*
X0209560Y0061099D01*
X0209545Y0061061D02*
X0210606Y0061061D01*
X0210589Y0061023D02*
X0209529Y0061023D01*
X0209514Y0060986D02*
X0210573Y0060986D01*
X0210557Y0060948D02*
X0209498Y0060948D01*
X0209483Y0060910D02*
X0210541Y0060910D01*
X0210525Y0060872D02*
X0209467Y0060872D01*
X0209452Y0060834D02*
X0210509Y0060834D01*
X0210493Y0060796D02*
X0209437Y0060796D01*
X0209421Y0060758D02*
X0210477Y0060758D01*
X0210460Y0060720D02*
X0209406Y0060720D01*
X0209390Y0060683D02*
X0210444Y0060683D01*
X0210428Y0060645D02*
X0209375Y0060645D01*
X0209359Y0060607D02*
X0210412Y0060607D01*
X0210396Y0060569D02*
X0209344Y0060569D01*
X0209328Y0060531D02*
X0210380Y0060531D01*
X0210364Y0060493D02*
X0209313Y0060493D01*
X0209298Y0060455D02*
X0210348Y0060455D01*
X0210331Y0060417D02*
X0209282Y0060417D01*
X0209267Y0060380D02*
X0210315Y0060380D01*
X0210299Y0060342D02*
X0209251Y0060342D01*
X0209242Y0060342D02*
X0208222Y0060342D01*
X0208206Y0060380D02*
X0209226Y0060380D01*
X0209211Y0060417D02*
X0208190Y0060417D01*
X0208174Y0060455D02*
X0209195Y0060455D01*
X0209180Y0060493D02*
X0208158Y0060493D01*
X0208142Y0060531D02*
X0209165Y0060531D01*
X0209149Y0060569D02*
X0208125Y0060569D01*
X0208109Y0060607D02*
X0209134Y0060607D01*
X0209118Y0060645D02*
X0208093Y0060645D01*
X0208077Y0060683D02*
X0209103Y0060683D01*
X0209087Y0060720D02*
X0208061Y0060720D01*
X0208045Y0060758D02*
X0209072Y0060758D01*
X0209056Y0060796D02*
X0208029Y0060796D01*
X0208013Y0060834D02*
X0209041Y0060834D01*
X0209026Y0060872D02*
X0207997Y0060872D01*
X0207980Y0060910D02*
X0209010Y0060910D01*
X0208995Y0060948D02*
X0207964Y0060948D01*
X0207948Y0060986D02*
X0208979Y0060986D01*
X0208964Y0061023D02*
X0207932Y0061023D01*
X0207916Y0061061D02*
X0208948Y0061061D01*
X0208933Y0061099D02*
X0207900Y0061099D01*
X0207884Y0061137D02*
X0208917Y0061137D01*
X0208902Y0061175D02*
X0207868Y0061175D01*
X0207851Y0061213D02*
X0208887Y0061213D01*
X0208871Y0061251D02*
X0207835Y0061251D01*
X0207819Y0061289D02*
X0208856Y0061289D01*
X0208840Y0061327D02*
X0207803Y0061327D01*
X0207787Y0061364D02*
X0208825Y0061364D01*
X0208809Y0061402D02*
X0207771Y0061402D01*
X0207755Y0061440D02*
X0208794Y0061440D01*
X0208779Y0061478D02*
X0207739Y0061478D01*
X0207722Y0061516D02*
X0208763Y0061516D01*
X0208748Y0061554D02*
X0207706Y0061554D01*
X0207690Y0061592D02*
X0208732Y0061592D01*
X0208717Y0061630D02*
X0207674Y0061630D01*
X0207658Y0061667D02*
X0208701Y0061667D01*
X0208686Y0061705D02*
X0207642Y0061705D01*
X0207626Y0061743D02*
X0208670Y0061743D01*
X0208655Y0061781D02*
X0207610Y0061781D01*
X0207594Y0061819D02*
X0208640Y0061819D01*
X0208624Y0061857D02*
X0207577Y0061857D01*
X0207561Y0061895D02*
X0208609Y0061895D01*
X0208593Y0061933D02*
X0207545Y0061933D01*
X0207529Y0061971D02*
X0208578Y0061971D01*
X0208562Y0062008D02*
X0207513Y0062008D01*
X0207497Y0062046D02*
X0208547Y0062046D01*
X0208531Y0062084D02*
X0207481Y0062084D01*
X0207465Y0062122D02*
X0208516Y0062122D01*
X0208501Y0062160D02*
X0207448Y0062160D01*
X0207432Y0062198D02*
X0208485Y0062198D01*
X0208470Y0062236D02*
X0207416Y0062236D01*
X0207400Y0062274D02*
X0208454Y0062274D01*
X0208439Y0062311D02*
X0207384Y0062311D01*
X0207368Y0062349D02*
X0208423Y0062349D01*
X0208408Y0062387D02*
X0207352Y0062387D01*
X0207336Y0062425D02*
X0208392Y0062425D01*
X0208377Y0062463D02*
X0207319Y0062463D01*
X0207303Y0062501D02*
X0208362Y0062501D01*
X0208346Y0062539D02*
X0207287Y0062539D01*
X0207271Y0062577D02*
X0208331Y0062577D01*
X0208315Y0062615D02*
X0207255Y0062615D01*
X0207239Y0062652D02*
X0208300Y0062652D01*
X0208284Y0062690D02*
X0207223Y0062690D01*
X0207207Y0062728D02*
X0208269Y0062728D01*
X0208253Y0062766D02*
X0207191Y0062766D01*
X0207174Y0062804D02*
X0208238Y0062804D01*
X0208223Y0062842D02*
X0207158Y0062842D01*
X0207142Y0062880D02*
X0208207Y0062880D01*
X0208192Y0062918D02*
X0207126Y0062918D01*
X0207110Y0062955D02*
X0208176Y0062955D01*
X0208161Y0062993D02*
X0207094Y0062993D01*
X0207078Y0063031D02*
X0208145Y0063031D01*
X0208130Y0063069D02*
X0207062Y0063069D01*
X0207045Y0063107D02*
X0208115Y0063107D01*
X0208099Y0063145D02*
X0207029Y0063145D01*
X0207013Y0063183D02*
X0208084Y0063183D01*
X0208068Y0063221D02*
X0206997Y0063221D01*
X0206981Y0063258D02*
X0208053Y0063258D01*
X0208037Y0063296D02*
X0206965Y0063296D01*
X0206949Y0063334D02*
X0208022Y0063334D01*
X0208006Y0063372D02*
X0206933Y0063372D01*
X0206916Y0063410D02*
X0207991Y0063410D01*
X0207976Y0063448D02*
X0206900Y0063448D01*
X0206884Y0063486D02*
X0207960Y0063486D01*
X0207945Y0063524D02*
X0206868Y0063524D01*
X0206852Y0063562D02*
X0207929Y0063562D01*
X0207914Y0063599D02*
X0206836Y0063599D01*
X0206820Y0063637D02*
X0207898Y0063637D01*
X0207883Y0063675D02*
X0206804Y0063675D01*
X0206787Y0063713D02*
X0207867Y0063713D01*
X0207852Y0063751D02*
X0206771Y0063751D01*
X0206755Y0063789D02*
X0207837Y0063789D01*
X0207821Y0063827D02*
X0206739Y0063827D01*
X0206723Y0063865D02*
X0207806Y0063865D01*
X0207790Y0063902D02*
X0206707Y0063902D01*
X0205471Y0062219D02*
X0205758Y0062033D01*
X0205995Y0061792D01*
X0206176Y0061500D01*
X0206289Y0061157D01*
X0206327Y0060762D01*
X0206331Y0060769D01*
X0206331Y0060755D01*
X0206299Y0060398D01*
X0206275Y0060316D01*
X0205087Y0060316D01*
X0205024Y0060233D01*
X0204752Y0060092D01*
X0204394Y0060046D01*
X0203573Y0060046D01*
X0203573Y0060316D01*
X0202507Y0060316D01*
X0202507Y0059081D01*
X0204480Y0059081D01*
X0204893Y0059112D01*
X0205258Y0059203D01*
X0205573Y0059350D01*
X0205837Y0059545D01*
X0206049Y0059788D01*
X0206205Y0060074D01*
X0206275Y0060316D01*
X0205087Y0060316D01*
X0205197Y0060462D01*
X0205254Y0060776D01*
X0205254Y0060791D01*
X0205200Y0061076D01*
X0205035Y0061313D01*
X0204769Y0061470D01*
X0204415Y0061522D01*
X0203573Y0061522D01*
X0203573Y0060316D01*
X0202507Y0060316D01*
X0202507Y0063908D01*
X0203569Y0063908D01*
X0203569Y0062461D01*
X0204376Y0062461D01*
X0204769Y0062434D01*
X0205139Y0062353D01*
X0205471Y0062219D01*
X0205504Y0062198D02*
X0202507Y0062198D01*
X0202507Y0062236D02*
X0205430Y0062236D01*
X0205336Y0062274D02*
X0202507Y0062274D01*
X0202507Y0062311D02*
X0205242Y0062311D01*
X0205148Y0062349D02*
X0202507Y0062349D01*
X0202507Y0062387D02*
X0204983Y0062387D01*
X0204810Y0062425D02*
X0202507Y0062425D01*
X0202507Y0062463D02*
X0203569Y0062463D01*
X0203569Y0062501D02*
X0202507Y0062501D01*
X0202507Y0062539D02*
X0203569Y0062539D01*
X0203569Y0062577D02*
X0202507Y0062577D01*
X0202507Y0062615D02*
X0203569Y0062615D01*
X0203569Y0062652D02*
X0202507Y0062652D01*
X0202507Y0062690D02*
X0203569Y0062690D01*
X0203569Y0062728D02*
X0202507Y0062728D01*
X0202507Y0062766D02*
X0203569Y0062766D01*
X0203569Y0062804D02*
X0202507Y0062804D01*
X0202507Y0062842D02*
X0203569Y0062842D01*
X0203569Y0062880D02*
X0202507Y0062880D01*
X0202507Y0062918D02*
X0203569Y0062918D01*
X0203569Y0062955D02*
X0202507Y0062955D01*
X0202507Y0062993D02*
X0203569Y0062993D01*
X0203569Y0063031D02*
X0202507Y0063031D01*
X0202507Y0063069D02*
X0203569Y0063069D01*
X0203569Y0063107D02*
X0202507Y0063107D01*
X0202507Y0063145D02*
X0203569Y0063145D01*
X0203569Y0063183D02*
X0202507Y0063183D01*
X0202507Y0063221D02*
X0203569Y0063221D01*
X0203569Y0063258D02*
X0202507Y0063258D01*
X0202507Y0063296D02*
X0203569Y0063296D01*
X0203569Y0063334D02*
X0202507Y0063334D01*
X0202507Y0063372D02*
X0203569Y0063372D01*
X0203569Y0063410D02*
X0202507Y0063410D01*
X0202507Y0063448D02*
X0203569Y0063448D01*
X0203569Y0063486D02*
X0202507Y0063486D01*
X0202507Y0063524D02*
X0203569Y0063524D01*
X0203569Y0063562D02*
X0202507Y0063562D01*
X0202507Y0063599D02*
X0203569Y0063599D01*
X0203569Y0063637D02*
X0202507Y0063637D01*
X0202507Y0063675D02*
X0203569Y0063675D01*
X0203569Y0063713D02*
X0202507Y0063713D01*
X0202507Y0063751D02*
X0203569Y0063751D01*
X0203569Y0063789D02*
X0202507Y0063789D01*
X0202507Y0063827D02*
X0203569Y0063827D01*
X0203569Y0063865D02*
X0202507Y0063865D01*
X0202507Y0063902D02*
X0203569Y0063902D01*
X0201456Y0063138D02*
X0201553Y0062838D01*
X0201586Y0062501D01*
X0200520Y0062501D01*
X0200528Y0062539D02*
X0201582Y0062539D01*
X0201578Y0062577D02*
X0200537Y0062577D01*
X0200538Y0062584D02*
X0200538Y0062598D01*
X0200492Y0062790D01*
X0200355Y0062933D01*
X0200135Y0063024D01*
X0199840Y0063055D01*
X0199442Y0063015D01*
X0199077Y0062897D01*
X0198732Y0062711D01*
X0198396Y0062468D01*
X0197770Y0063221D01*
X0198228Y0063564D01*
X0198735Y0063804D01*
X0199271Y0063947D01*
X0199818Y0063995D01*
X0200194Y0063970D01*
X0200535Y0063894D01*
X0200835Y0063772D01*
X0201093Y0063606D01*
X0201300Y0063394D01*
X0201456Y0063138D01*
X0201452Y0063145D02*
X0197833Y0063145D01*
X0197801Y0063183D02*
X0201429Y0063183D01*
X0201406Y0063221D02*
X0197770Y0063221D01*
X0197820Y0063258D02*
X0201383Y0063258D01*
X0201359Y0063296D02*
X0197871Y0063296D01*
X0197921Y0063334D02*
X0201336Y0063334D01*
X0201313Y0063372D02*
X0197972Y0063372D01*
X0198023Y0063410D02*
X0201284Y0063410D01*
X0201247Y0063448D02*
X0198073Y0063448D01*
X0198124Y0063486D02*
X0201210Y0063486D01*
X0201173Y0063524D02*
X0198174Y0063524D01*
X0198225Y0063562D02*
X0201136Y0063562D01*
X0201099Y0063599D02*
X0198303Y0063599D01*
X0198383Y0063637D02*
X0201044Y0063637D01*
X0200985Y0063675D02*
X0198463Y0063675D01*
X0198543Y0063713D02*
X0200926Y0063713D01*
X0200867Y0063751D02*
X0198623Y0063751D01*
X0198703Y0063789D02*
X0200793Y0063789D01*
X0200700Y0063827D02*
X0198820Y0063827D01*
X0198962Y0063865D02*
X0200607Y0063865D01*
X0200496Y0063902D02*
X0199104Y0063902D01*
X0199247Y0063940D02*
X0200327Y0063940D01*
X0200069Y0063978D02*
X0199629Y0063978D01*
X0199601Y0063031D02*
X0197928Y0063031D01*
X0197959Y0062993D02*
X0199374Y0062993D01*
X0199257Y0062955D02*
X0197991Y0062955D01*
X0198022Y0062918D02*
X0199141Y0062918D01*
X0199045Y0062880D02*
X0198054Y0062880D01*
X0198085Y0062842D02*
X0198975Y0062842D01*
X0198905Y0062804D02*
X0198117Y0062804D01*
X0198148Y0062766D02*
X0198834Y0062766D01*
X0198764Y0062728D02*
X0198180Y0062728D01*
X0198211Y0062690D02*
X0198704Y0062690D01*
X0198651Y0062652D02*
X0198243Y0062652D01*
X0198274Y0062615D02*
X0198599Y0062615D01*
X0198546Y0062577D02*
X0198306Y0062577D01*
X0198338Y0062539D02*
X0198494Y0062539D01*
X0198441Y0062501D02*
X0198369Y0062501D01*
X0197896Y0063069D02*
X0201478Y0063069D01*
X0201466Y0063107D02*
X0197864Y0063107D01*
X0196269Y0063107D02*
X0195343Y0063107D01*
X0195343Y0063145D02*
X0196269Y0063145D01*
X0196269Y0063183D02*
X0195343Y0063183D01*
X0195343Y0063221D02*
X0196269Y0063221D01*
X0196269Y0063258D02*
X0195343Y0063258D01*
X0195343Y0063296D02*
X0196269Y0063296D01*
X0196269Y0063334D02*
X0195343Y0063334D01*
X0195343Y0063372D02*
X0196269Y0063372D01*
X0196269Y0063410D02*
X0195343Y0063410D01*
X0195343Y0063448D02*
X0196269Y0063448D01*
X0196269Y0063486D02*
X0195343Y0063486D01*
X0195343Y0063524D02*
X0196269Y0063524D01*
X0196269Y0063562D02*
X0195343Y0063562D01*
X0195343Y0063599D02*
X0196269Y0063599D01*
X0196269Y0063637D02*
X0195343Y0063637D01*
X0195343Y0063675D02*
X0196269Y0063675D01*
X0196269Y0063713D02*
X0195343Y0063713D01*
X0195343Y0063751D02*
X0196269Y0063751D01*
X0196269Y0063789D02*
X0195343Y0063789D01*
X0195343Y0063827D02*
X0196269Y0063827D01*
X0196269Y0063865D02*
X0195343Y0063865D01*
X0195343Y0063902D02*
X0196269Y0063902D01*
X0196269Y0063940D02*
X0195343Y0063940D01*
X0195343Y0063978D02*
X0196269Y0063978D01*
X0196269Y0064016D02*
X0195343Y0064016D01*
X0195343Y0064054D02*
X0196269Y0064054D01*
X0196269Y0064092D02*
X0195343Y0064092D01*
X0195343Y0064130D02*
X0196269Y0064130D01*
X0196269Y0064168D02*
X0195343Y0064168D01*
X0195343Y0064206D02*
X0196269Y0064206D01*
X0196269Y0064243D02*
X0195343Y0064243D01*
X0195343Y0064281D02*
X0196269Y0064281D01*
X0196269Y0064319D02*
X0195343Y0064319D01*
X0195343Y0064357D02*
X0196269Y0064357D01*
X0196269Y0064395D02*
X0195343Y0064395D01*
X0195343Y0064433D02*
X0196269Y0064433D01*
X0196269Y0064471D02*
X0195343Y0064471D01*
X0195343Y0064509D02*
X0196269Y0064509D01*
X0196269Y0064546D02*
X0195343Y0064546D01*
X0195343Y0064584D02*
X0196269Y0064584D01*
X0196269Y0064622D02*
X0195343Y0064622D01*
X0195343Y0064660D02*
X0196269Y0064660D01*
X0196269Y0064698D02*
X0195343Y0064698D01*
X0195343Y0064736D02*
X0196269Y0064736D01*
X0196269Y0064774D02*
X0195343Y0064774D01*
X0195343Y0064812D02*
X0196269Y0064812D01*
X0196269Y0064850D02*
X0195343Y0064850D01*
X0195343Y0064887D02*
X0196269Y0064887D01*
X0196269Y0064925D02*
X0195343Y0064925D01*
X0195343Y0064963D02*
X0196269Y0064963D01*
X0196269Y0065001D02*
X0195343Y0065001D01*
X0195343Y0065039D02*
X0196269Y0065039D01*
X0196269Y0065077D02*
X0195343Y0065077D01*
X0195343Y0065115D02*
X0196269Y0065115D01*
X0196269Y0065153D02*
X0195343Y0065153D01*
X0195343Y0065190D02*
X0196269Y0065190D01*
X0196269Y0065228D02*
X0195343Y0065228D01*
X0195343Y0065266D02*
X0196269Y0065266D01*
X0196269Y0065304D02*
X0195343Y0065304D01*
X0195343Y0065342D02*
X0196269Y0065342D01*
X0196269Y0065380D02*
X0195343Y0065380D01*
X0195343Y0065418D02*
X0196269Y0065418D01*
X0196269Y0065456D02*
X0195343Y0065456D01*
X0195343Y0065493D02*
X0196269Y0065493D01*
X0196269Y0065531D02*
X0195343Y0065531D01*
X0195343Y0063069D02*
X0196269Y0063069D01*
X0196269Y0063031D02*
X0195343Y0063031D01*
X0195343Y0062993D02*
X0196269Y0062993D01*
X0196269Y0062955D02*
X0195343Y0062955D01*
X0195343Y0062918D02*
X0196269Y0062918D01*
X0196269Y0062880D02*
X0195343Y0062880D01*
X0195343Y0062842D02*
X0196269Y0062842D01*
X0196269Y0062804D02*
X0195343Y0062804D01*
X0195343Y0062766D02*
X0196269Y0062766D01*
X0196269Y0062728D02*
X0195343Y0062728D01*
X0195343Y0062690D02*
X0196269Y0062690D01*
X0196269Y0062652D02*
X0195343Y0062652D01*
X0195343Y0062615D02*
X0196269Y0062615D01*
X0196269Y0062577D02*
X0195343Y0062577D01*
X0195343Y0062539D02*
X0196269Y0062539D01*
X0196269Y0062501D02*
X0195343Y0062501D01*
X0195343Y0062463D02*
X0196269Y0062463D01*
X0196269Y0062425D02*
X0195343Y0062425D01*
X0195343Y0062387D02*
X0196269Y0062387D01*
X0196269Y0062349D02*
X0195343Y0062349D01*
X0195343Y0062311D02*
X0196269Y0062311D01*
X0196269Y0062274D02*
X0195343Y0062274D01*
X0195343Y0062236D02*
X0196269Y0062236D01*
X0196269Y0062198D02*
X0195343Y0062198D01*
X0195343Y0062160D02*
X0196269Y0062160D01*
X0196269Y0062122D02*
X0195343Y0062122D01*
X0195343Y0062084D02*
X0196269Y0062084D01*
X0196269Y0062046D02*
X0195343Y0062046D01*
X0195343Y0062008D02*
X0196269Y0062008D01*
X0196269Y0061971D02*
X0195343Y0061971D01*
X0195343Y0061933D02*
X0196269Y0061933D01*
X0196269Y0061895D02*
X0195343Y0061895D01*
X0195343Y0061857D02*
X0196269Y0061857D01*
X0196269Y0061819D02*
X0195343Y0061819D01*
X0195343Y0061781D02*
X0196269Y0061781D01*
X0196269Y0061743D02*
X0195343Y0061743D01*
X0195343Y0061705D02*
X0196269Y0061705D01*
X0196269Y0061667D02*
X0195343Y0061667D01*
X0195343Y0061630D02*
X0196269Y0061630D01*
X0196269Y0061592D02*
X0195343Y0061592D01*
X0195343Y0061554D02*
X0196269Y0061554D01*
X0196269Y0061516D02*
X0195343Y0061516D01*
X0195343Y0061478D02*
X0196269Y0061478D01*
X0196269Y0061440D02*
X0195343Y0061440D01*
X0195343Y0061402D02*
X0196269Y0061402D01*
X0196269Y0061364D02*
X0195343Y0061364D01*
X0195343Y0061327D02*
X0196269Y0061327D01*
X0196269Y0061289D02*
X0195343Y0061289D01*
X0195343Y0061251D02*
X0196269Y0061251D01*
X0196269Y0061213D02*
X0195343Y0061213D01*
X0195343Y0061175D02*
X0196269Y0061175D01*
X0196269Y0061137D02*
X0195343Y0061137D01*
X0195343Y0061099D02*
X0196269Y0061099D01*
X0196269Y0061061D02*
X0195343Y0061061D01*
X0195343Y0061023D02*
X0196269Y0061023D01*
X0196269Y0060986D02*
X0195343Y0060986D01*
X0195343Y0060948D02*
X0196269Y0060948D01*
X0196269Y0060910D02*
X0195343Y0060910D01*
X0195343Y0060872D02*
X0196269Y0060872D01*
X0196269Y0060834D02*
X0195343Y0060834D01*
X0195343Y0060796D02*
X0196269Y0060796D01*
X0196269Y0060758D02*
X0195343Y0060758D01*
X0195343Y0060720D02*
X0196269Y0060720D01*
X0196269Y0060683D02*
X0195343Y0060683D01*
X0195343Y0060645D02*
X0196269Y0060645D01*
X0196269Y0060607D02*
X0195343Y0060607D01*
X0195343Y0060569D02*
X0196269Y0060569D01*
X0196269Y0060531D02*
X0195343Y0060531D01*
X0195343Y0060493D02*
X0196269Y0060493D01*
X0196269Y0060455D02*
X0195343Y0060455D01*
X0195343Y0060417D02*
X0196269Y0060417D01*
X0196269Y0060380D02*
X0195343Y0060380D01*
X0195343Y0060342D02*
X0196269Y0060342D01*
X0196269Y0060304D02*
X0195343Y0060304D01*
X0195343Y0060266D02*
X0196269Y0060266D01*
X0196269Y0060228D02*
X0195343Y0060228D01*
X0195343Y0060190D02*
X0196269Y0060190D01*
X0196269Y0060152D02*
X0195343Y0060152D01*
X0195343Y0060114D02*
X0196269Y0060114D01*
X0196269Y0060076D02*
X0195343Y0060076D01*
X0195343Y0060039D02*
X0196269Y0060039D01*
X0196269Y0060001D02*
X0195343Y0060001D01*
X0195343Y0059963D02*
X0196269Y0059963D01*
X0196269Y0059925D02*
X0195343Y0059925D01*
X0195343Y0059887D02*
X0196269Y0059887D01*
X0196269Y0059849D02*
X0195343Y0059849D01*
X0195343Y0059811D02*
X0196269Y0059811D01*
X0196269Y0059773D02*
X0195343Y0059773D01*
X0195343Y0059736D02*
X0196269Y0059736D01*
X0196269Y0059698D02*
X0195343Y0059698D01*
X0195343Y0059660D02*
X0196269Y0059660D01*
X0196269Y0059622D02*
X0195343Y0059622D01*
X0195343Y0059584D02*
X0196269Y0059584D01*
X0196269Y0059546D02*
X0195343Y0059546D01*
X0195343Y0059508D02*
X0196269Y0059508D01*
X0196269Y0059470D02*
X0195343Y0059470D01*
X0195343Y0059432D02*
X0196269Y0059432D01*
X0196269Y0059395D02*
X0195343Y0059395D01*
X0195343Y0059357D02*
X0196269Y0059357D01*
X0196269Y0059319D02*
X0195343Y0059319D01*
X0195343Y0059281D02*
X0196269Y0059281D01*
X0196269Y0059243D02*
X0195343Y0059243D01*
X0195343Y0059205D02*
X0196269Y0059205D01*
X0196269Y0059167D02*
X0195343Y0059167D01*
X0195343Y0059129D02*
X0196269Y0059129D01*
X0196269Y0059092D02*
X0195343Y0059092D01*
X0195343Y0059054D02*
X0196269Y0059054D01*
X0196269Y0059016D02*
X0195343Y0059016D01*
X0195343Y0058978D02*
X0196269Y0058978D01*
X0196269Y0058940D02*
X0195343Y0058940D01*
X0195343Y0058902D02*
X0196269Y0058902D01*
X0196269Y0058864D02*
X0195343Y0058864D01*
X0195343Y0058826D02*
X0196269Y0058826D01*
X0196269Y0058788D02*
X0195343Y0058788D01*
X0195343Y0058751D02*
X0196269Y0058751D01*
X0196269Y0058713D02*
X0195343Y0058713D01*
X0195343Y0058675D02*
X0196269Y0058675D01*
X0196269Y0058637D02*
X0195343Y0058637D01*
X0195343Y0058599D02*
X0196269Y0058599D01*
X0196269Y0058561D02*
X0195343Y0058561D01*
X0195343Y0058523D02*
X0196269Y0058523D01*
X0196269Y0058485D02*
X0195343Y0058485D01*
X0195343Y0058448D02*
X0196269Y0058448D01*
X0196269Y0058410D02*
X0195343Y0058410D01*
X0195343Y0058372D02*
X0196269Y0058372D01*
X0196269Y0058334D02*
X0195343Y0058334D01*
X0195343Y0058296D02*
X0196269Y0058296D01*
X0196269Y0058258D02*
X0195343Y0058258D01*
X0195343Y0058220D02*
X0196269Y0058220D01*
X0196269Y0058182D02*
X0195343Y0058182D01*
X0195343Y0058145D02*
X0196269Y0058145D01*
X0196269Y0058107D02*
X0195343Y0058107D01*
X0195343Y0058069D02*
X0196269Y0058069D01*
X0196269Y0058031D02*
X0195343Y0058031D01*
X0195343Y0057993D02*
X0196269Y0057993D01*
X0196269Y0057955D02*
X0195343Y0057955D01*
X0195343Y0057917D02*
X0196269Y0057917D01*
X0196269Y0057879D02*
X0195343Y0057879D01*
X0195343Y0057841D02*
X0196269Y0057841D01*
X0196269Y0057804D02*
X0195343Y0057804D01*
X0195343Y0057766D02*
X0196269Y0057766D01*
X0196269Y0057728D02*
X0195343Y0057728D01*
X0195343Y0057690D02*
X0196269Y0057690D01*
X0196269Y0057652D02*
X0195343Y0057652D01*
X0195343Y0057614D02*
X0196269Y0057614D01*
X0196269Y0057576D02*
X0195343Y0057576D01*
X0195343Y0057538D02*
X0196269Y0057538D01*
X0196269Y0057501D02*
X0195343Y0057501D01*
X0195343Y0057463D02*
X0196269Y0057463D01*
X0195343Y0057425D02*
X0231343Y0057425D01*
X0231343Y0057463D02*
X0223301Y0057463D01*
X0223301Y0057501D02*
X0231343Y0057501D01*
X0231343Y0057538D02*
X0223301Y0057538D01*
X0223301Y0057576D02*
X0231343Y0057576D01*
X0231343Y0057614D02*
X0223301Y0057614D01*
X0223301Y0057652D02*
X0231343Y0057652D01*
X0231343Y0057690D02*
X0223301Y0057690D01*
X0223301Y0057728D02*
X0231343Y0057728D01*
X0231343Y0057766D02*
X0223301Y0057766D01*
X0223301Y0057804D02*
X0231343Y0057804D01*
X0231343Y0057841D02*
X0223301Y0057841D01*
X0223301Y0057879D02*
X0231343Y0057879D01*
X0231343Y0057917D02*
X0223301Y0057917D01*
X0223301Y0057955D02*
X0231343Y0057955D01*
X0231343Y0057993D02*
X0223301Y0057993D01*
X0223301Y0058031D02*
X0231343Y0058031D01*
X0231343Y0058069D02*
X0223301Y0058069D01*
X0223301Y0058107D02*
X0231343Y0058107D01*
X0231343Y0058145D02*
X0223301Y0058145D01*
X0223301Y0058182D02*
X0231343Y0058182D01*
X0231343Y0058220D02*
X0223301Y0058220D01*
X0223301Y0058258D02*
X0231343Y0058258D01*
X0231343Y0058296D02*
X0223301Y0058296D01*
X0223301Y0058334D02*
X0231343Y0058334D01*
X0231343Y0058372D02*
X0223301Y0058372D01*
X0223301Y0058410D02*
X0231343Y0058410D01*
X0231343Y0058448D02*
X0223301Y0058448D01*
X0223301Y0058485D02*
X0231343Y0058485D01*
X0231343Y0058523D02*
X0223301Y0058523D01*
X0223301Y0058561D02*
X0231343Y0058561D01*
X0231343Y0058599D02*
X0223301Y0058599D01*
X0223301Y0058637D02*
X0231343Y0058637D01*
X0231343Y0058675D02*
X0223301Y0058675D01*
X0223301Y0058713D02*
X0231343Y0058713D01*
X0231343Y0058751D02*
X0223301Y0058751D01*
X0223301Y0058788D02*
X0231343Y0058788D01*
X0231343Y0058826D02*
X0223301Y0058826D01*
X0223301Y0058864D02*
X0231343Y0058864D01*
X0231343Y0058902D02*
X0223301Y0058902D01*
X0223301Y0058940D02*
X0231343Y0058940D01*
X0231343Y0058978D02*
X0223301Y0058978D01*
X0223301Y0059016D02*
X0231343Y0059016D01*
X0231343Y0057387D02*
X0195343Y0057387D01*
X0195343Y0057349D02*
X0231343Y0057349D01*
X0231343Y0057311D02*
X0195343Y0057311D01*
X0195343Y0057273D02*
X0231343Y0057273D01*
X0231343Y0057235D02*
X0195343Y0057235D01*
X0195343Y0057197D02*
X0231343Y0057197D01*
X0231343Y0057160D02*
X0195343Y0057160D01*
X0195343Y0057122D02*
X0231343Y0057122D01*
X0231343Y0057084D02*
X0195343Y0057084D01*
X0195343Y0057046D02*
X0231343Y0057046D01*
X0231343Y0057008D02*
X0195343Y0057008D01*
X0195343Y0056970D02*
X0231343Y0056970D01*
X0231343Y0056932D02*
X0195343Y0056932D01*
X0195343Y0056894D02*
X0231343Y0056894D01*
X0231343Y0056857D02*
X0195343Y0056857D01*
X0195343Y0056819D02*
X0231343Y0056819D01*
X0231343Y0056781D02*
X0195343Y0056781D01*
X0195343Y0056743D02*
X0231343Y0056743D01*
X0231343Y0056705D02*
X0195343Y0056705D01*
X0195343Y0056667D02*
X0231343Y0056667D01*
X0231343Y0056629D02*
X0195343Y0056629D01*
X0195343Y0056591D02*
X0231343Y0056591D01*
X0231343Y0056553D02*
X0195343Y0056553D01*
X0198670Y0059254D02*
X0198958Y0059128D01*
X0199282Y0059050D01*
X0199638Y0059023D01*
X0200148Y0059063D01*
X0200614Y0059182D01*
X0201040Y0059373D01*
X0201431Y0059635D01*
X0200961Y0060316D01*
X0200880Y0060434D01*
X0200666Y0060316D01*
X0200961Y0060316D01*
X0200666Y0060316D01*
X0200247Y0060085D01*
X0199937Y0059991D01*
X0199627Y0059959D01*
X0199357Y0059991D01*
X0199163Y0060082D01*
X0199047Y0060216D01*
X0199023Y0060316D01*
X0199008Y0060380D01*
X0199008Y0060395D01*
X0199051Y0060600D01*
X0199213Y0060755D01*
X0199534Y0060884D01*
X0200049Y0061028D01*
X0200704Y0061244D01*
X0201186Y0061532D01*
X0201360Y0061716D01*
X0201485Y0061928D01*
X0201561Y0062177D01*
X0201586Y0062472D01*
X0201586Y0062501D01*
X0201585Y0062463D02*
X0200512Y0062463D01*
X0200504Y0062425D02*
X0201582Y0062425D01*
X0201579Y0062387D02*
X0200486Y0062387D01*
X0200499Y0062400D02*
X0200538Y0062584D01*
X0200534Y0062615D02*
X0201575Y0062615D01*
X0201571Y0062652D02*
X0200525Y0062652D01*
X0200516Y0062690D02*
X0201568Y0062690D01*
X0201564Y0062728D02*
X0200507Y0062728D01*
X0200498Y0062766D02*
X0201560Y0062766D01*
X0201557Y0062804D02*
X0200478Y0062804D01*
X0200442Y0062842D02*
X0201552Y0062842D01*
X0201540Y0062880D02*
X0200406Y0062880D01*
X0200369Y0062918D02*
X0201528Y0062918D01*
X0201515Y0062955D02*
X0200300Y0062955D01*
X0200208Y0062993D02*
X0201503Y0062993D01*
X0201491Y0063031D02*
X0200064Y0063031D01*
X0200499Y0062400D02*
X0200355Y0062252D01*
X0200056Y0062116D01*
X0199563Y0061972D01*
X0198897Y0061770D01*
X0198393Y0061496D01*
X0198209Y0061315D01*
X0198072Y0061093D01*
X0197986Y0060821D01*
X0197957Y0060492D01*
X0197957Y0060478D01*
X0197972Y0060316D01*
X0199023Y0060316D01*
X0197972Y0060316D01*
X0197987Y0060161D01*
X0198079Y0059880D01*
X0198228Y0059634D01*
X0198425Y0059423D01*
X0198670Y0059254D01*
X0198694Y0059243D02*
X0200750Y0059243D01*
X0200666Y0059205D02*
X0198780Y0059205D01*
X0198867Y0059167D02*
X0200557Y0059167D01*
X0200408Y0059129D02*
X0198954Y0059129D01*
X0199107Y0059092D02*
X0200259Y0059092D01*
X0200026Y0059054D02*
X0199265Y0059054D01*
X0198630Y0059281D02*
X0200835Y0059281D01*
X0200919Y0059319D02*
X0198575Y0059319D01*
X0198521Y0059357D02*
X0201003Y0059357D01*
X0201072Y0059395D02*
X0198466Y0059395D01*
X0198416Y0059432D02*
X0201128Y0059432D01*
X0201185Y0059470D02*
X0198381Y0059470D01*
X0198345Y0059508D02*
X0201241Y0059508D01*
X0201298Y0059546D02*
X0198310Y0059546D01*
X0198274Y0059584D02*
X0201354Y0059584D01*
X0201411Y0059622D02*
X0198239Y0059622D01*
X0198212Y0059660D02*
X0201414Y0059660D01*
X0201388Y0059698D02*
X0198189Y0059698D01*
X0198166Y0059736D02*
X0201362Y0059736D01*
X0201336Y0059773D02*
X0198144Y0059773D01*
X0198121Y0059811D02*
X0201310Y0059811D01*
X0201283Y0059849D02*
X0198098Y0059849D01*
X0198077Y0059887D02*
X0201257Y0059887D01*
X0201231Y0059925D02*
X0198065Y0059925D01*
X0198052Y0059963D02*
X0199597Y0059963D01*
X0199662Y0059963D02*
X0201205Y0059963D01*
X0201179Y0060001D02*
X0199968Y0060001D01*
X0200093Y0060039D02*
X0201153Y0060039D01*
X0201127Y0060076D02*
X0200218Y0060076D01*
X0200299Y0060114D02*
X0201101Y0060114D01*
X0201074Y0060152D02*
X0200368Y0060152D01*
X0200437Y0060190D02*
X0201048Y0060190D01*
X0201022Y0060228D02*
X0200506Y0060228D01*
X0200574Y0060266D02*
X0200996Y0060266D01*
X0200970Y0060304D02*
X0200643Y0060304D01*
X0200712Y0060342D02*
X0200944Y0060342D01*
X0200918Y0060380D02*
X0200781Y0060380D01*
X0200849Y0060417D02*
X0200892Y0060417D01*
X0200608Y0061213D02*
X0198146Y0061213D01*
X0198169Y0061251D02*
X0200714Y0061251D01*
X0200778Y0061289D02*
X0198193Y0061289D01*
X0198221Y0061327D02*
X0200841Y0061327D01*
X0200905Y0061364D02*
X0198259Y0061364D01*
X0198297Y0061402D02*
X0200968Y0061402D01*
X0201032Y0061440D02*
X0198336Y0061440D01*
X0198374Y0061478D02*
X0201095Y0061478D01*
X0201159Y0061516D02*
X0198429Y0061516D01*
X0198498Y0061554D02*
X0201206Y0061554D01*
X0201242Y0061592D02*
X0198568Y0061592D01*
X0198638Y0061630D02*
X0201278Y0061630D01*
X0201314Y0061667D02*
X0198708Y0061667D01*
X0198777Y0061705D02*
X0201350Y0061705D01*
X0201376Y0061743D02*
X0198847Y0061743D01*
X0198933Y0061781D02*
X0201398Y0061781D01*
X0201421Y0061819D02*
X0199058Y0061819D01*
X0199183Y0061857D02*
X0201443Y0061857D01*
X0201465Y0061895D02*
X0199309Y0061895D01*
X0199434Y0061933D02*
X0201486Y0061933D01*
X0201498Y0061971D02*
X0199559Y0061971D01*
X0199689Y0062008D02*
X0201509Y0062008D01*
X0201521Y0062046D02*
X0199818Y0062046D01*
X0199948Y0062084D02*
X0201532Y0062084D01*
X0201544Y0062122D02*
X0200070Y0062122D01*
X0200153Y0062160D02*
X0201556Y0062160D01*
X0201563Y0062198D02*
X0200235Y0062198D01*
X0200318Y0062236D02*
X0201566Y0062236D01*
X0201569Y0062274D02*
X0200375Y0062274D01*
X0200412Y0062311D02*
X0201572Y0062311D01*
X0201575Y0062349D02*
X0200449Y0062349D01*
X0200493Y0061175D02*
X0198123Y0061175D01*
X0198099Y0061137D02*
X0200378Y0061137D01*
X0200263Y0061099D02*
X0198076Y0061099D01*
X0198062Y0061061D02*
X0200149Y0061061D01*
X0200031Y0061023D02*
X0198050Y0061023D01*
X0198038Y0060986D02*
X0199896Y0060986D01*
X0199760Y0060948D02*
X0198026Y0060948D01*
X0198014Y0060910D02*
X0199625Y0060910D01*
X0199503Y0060872D02*
X0198002Y0060872D01*
X0197990Y0060834D02*
X0199409Y0060834D01*
X0199316Y0060796D02*
X0197984Y0060796D01*
X0197981Y0060758D02*
X0199222Y0060758D01*
X0199177Y0060720D02*
X0197977Y0060720D01*
X0197974Y0060683D02*
X0199138Y0060683D01*
X0199098Y0060645D02*
X0197970Y0060645D01*
X0197967Y0060607D02*
X0199058Y0060607D01*
X0199045Y0060569D02*
X0197964Y0060569D01*
X0197960Y0060531D02*
X0199037Y0060531D01*
X0199029Y0060493D02*
X0197957Y0060493D01*
X0197959Y0060455D02*
X0199021Y0060455D01*
X0199013Y0060417D02*
X0197963Y0060417D01*
X0197966Y0060380D02*
X0199008Y0060380D01*
X0199017Y0060342D02*
X0197970Y0060342D01*
X0197973Y0060304D02*
X0199026Y0060304D01*
X0199035Y0060266D02*
X0197977Y0060266D01*
X0197981Y0060228D02*
X0199044Y0060228D01*
X0199069Y0060190D02*
X0197984Y0060190D01*
X0197990Y0060152D02*
X0199102Y0060152D01*
X0199135Y0060114D02*
X0198002Y0060114D01*
X0198015Y0060076D02*
X0199174Y0060076D01*
X0199255Y0060039D02*
X0198027Y0060039D01*
X0198040Y0060001D02*
X0199336Y0060001D01*
X0202507Y0060001D02*
X0206165Y0060001D01*
X0206185Y0060039D02*
X0202507Y0060039D01*
X0202507Y0060076D02*
X0203573Y0060076D01*
X0203573Y0060114D02*
X0202507Y0060114D01*
X0202507Y0060152D02*
X0203573Y0060152D01*
X0203573Y0060190D02*
X0202507Y0060190D01*
X0202507Y0060228D02*
X0203573Y0060228D01*
X0203573Y0060266D02*
X0202507Y0060266D01*
X0202507Y0060304D02*
X0203573Y0060304D01*
X0203573Y0060342D02*
X0202507Y0060342D01*
X0202507Y0060380D02*
X0203573Y0060380D01*
X0203573Y0060417D02*
X0202507Y0060417D01*
X0202507Y0060455D02*
X0203573Y0060455D01*
X0203573Y0060493D02*
X0202507Y0060493D01*
X0202507Y0060531D02*
X0203573Y0060531D01*
X0203573Y0060569D02*
X0202507Y0060569D01*
X0202507Y0060607D02*
X0203573Y0060607D01*
X0203573Y0060645D02*
X0202507Y0060645D01*
X0202507Y0060683D02*
X0203573Y0060683D01*
X0203573Y0060720D02*
X0202507Y0060720D01*
X0202507Y0060758D02*
X0203573Y0060758D01*
X0203573Y0060796D02*
X0202507Y0060796D01*
X0202507Y0060834D02*
X0203573Y0060834D01*
X0203573Y0060872D02*
X0202507Y0060872D01*
X0202507Y0060910D02*
X0203573Y0060910D01*
X0203573Y0060948D02*
X0202507Y0060948D01*
X0202507Y0060986D02*
X0203573Y0060986D01*
X0203573Y0061023D02*
X0202507Y0061023D01*
X0202507Y0061061D02*
X0203573Y0061061D01*
X0203573Y0061099D02*
X0202507Y0061099D01*
X0202507Y0061137D02*
X0203573Y0061137D01*
X0203573Y0061175D02*
X0202507Y0061175D01*
X0202507Y0061213D02*
X0203573Y0061213D01*
X0203573Y0061251D02*
X0202507Y0061251D01*
X0202507Y0061289D02*
X0203573Y0061289D01*
X0203573Y0061327D02*
X0202507Y0061327D01*
X0202507Y0061364D02*
X0203573Y0061364D01*
X0203573Y0061402D02*
X0202507Y0061402D01*
X0202507Y0061440D02*
X0203573Y0061440D01*
X0203573Y0061478D02*
X0202507Y0061478D01*
X0202507Y0061516D02*
X0203573Y0061516D01*
X0204454Y0061516D02*
X0206166Y0061516D01*
X0206183Y0061478D02*
X0204714Y0061478D01*
X0204820Y0061440D02*
X0206195Y0061440D01*
X0206208Y0061402D02*
X0204884Y0061402D01*
X0204947Y0061364D02*
X0206220Y0061364D01*
X0206233Y0061327D02*
X0205011Y0061327D01*
X0205051Y0061289D02*
X0206245Y0061289D01*
X0206258Y0061251D02*
X0205078Y0061251D01*
X0205104Y0061213D02*
X0206270Y0061213D01*
X0206283Y0061175D02*
X0205131Y0061175D01*
X0205157Y0061137D02*
X0206291Y0061137D01*
X0206294Y0061099D02*
X0205183Y0061099D01*
X0205202Y0061061D02*
X0206298Y0061061D01*
X0206302Y0061023D02*
X0205210Y0061023D01*
X0205217Y0060986D02*
X0206305Y0060986D01*
X0206309Y0060948D02*
X0205224Y0060948D01*
X0205231Y0060910D02*
X0206313Y0060910D01*
X0206316Y0060872D02*
X0205239Y0060872D01*
X0205246Y0060834D02*
X0206320Y0060834D01*
X0206324Y0060796D02*
X0205253Y0060796D01*
X0205251Y0060758D02*
X0206331Y0060758D01*
X0206327Y0060720D02*
X0205244Y0060720D01*
X0205237Y0060683D02*
X0206324Y0060683D01*
X0206321Y0060645D02*
X0205230Y0060645D01*
X0205223Y0060607D02*
X0206317Y0060607D01*
X0206314Y0060569D02*
X0205216Y0060569D01*
X0205210Y0060531D02*
X0206310Y0060531D01*
X0206307Y0060493D02*
X0205203Y0060493D01*
X0205192Y0060455D02*
X0206304Y0060455D01*
X0206300Y0060417D02*
X0205163Y0060417D01*
X0205135Y0060380D02*
X0206293Y0060380D01*
X0206282Y0060342D02*
X0205106Y0060342D01*
X0205077Y0060304D02*
X0206271Y0060304D01*
X0206260Y0060266D02*
X0205049Y0060266D01*
X0205014Y0060228D02*
X0206249Y0060228D01*
X0206238Y0060190D02*
X0204941Y0060190D01*
X0204868Y0060152D02*
X0206227Y0060152D01*
X0206216Y0060114D02*
X0204795Y0060114D01*
X0204632Y0060076D02*
X0206205Y0060076D01*
X0206144Y0059963D02*
X0202507Y0059963D01*
X0202507Y0059925D02*
X0206123Y0059925D01*
X0206103Y0059887D02*
X0202507Y0059887D01*
X0202507Y0059849D02*
X0206082Y0059849D01*
X0206062Y0059811D02*
X0202507Y0059811D01*
X0202507Y0059773D02*
X0206036Y0059773D01*
X0206003Y0059736D02*
X0202507Y0059736D01*
X0202507Y0059698D02*
X0205970Y0059698D01*
X0205937Y0059660D02*
X0202507Y0059660D01*
X0202507Y0059622D02*
X0205904Y0059622D01*
X0205871Y0059584D02*
X0202507Y0059584D01*
X0202507Y0059546D02*
X0205838Y0059546D01*
X0205787Y0059508D02*
X0202507Y0059508D01*
X0202507Y0059470D02*
X0205736Y0059470D01*
X0205685Y0059432D02*
X0202507Y0059432D01*
X0202507Y0059395D02*
X0205634Y0059395D01*
X0205582Y0059357D02*
X0202507Y0059357D01*
X0202507Y0059319D02*
X0205506Y0059319D01*
X0205425Y0059281D02*
X0202507Y0059281D01*
X0202507Y0059243D02*
X0205343Y0059243D01*
X0205262Y0059205D02*
X0202507Y0059205D01*
X0202507Y0059167D02*
X0205114Y0059167D01*
X0204962Y0059129D02*
X0202507Y0059129D01*
X0202507Y0059092D02*
X0204621Y0059092D01*
X0208238Y0060304D02*
X0210283Y0060304D01*
X0210267Y0060266D02*
X0208254Y0060266D01*
X0208271Y0060228D02*
X0210251Y0060228D01*
X0210235Y0060190D02*
X0208287Y0060190D01*
X0208303Y0060152D02*
X0210219Y0060152D01*
X0210203Y0060114D02*
X0208319Y0060114D01*
X0208335Y0060076D02*
X0210186Y0060076D01*
X0210170Y0060039D02*
X0208351Y0060039D01*
X0208367Y0060001D02*
X0210154Y0060001D01*
X0210138Y0059963D02*
X0208383Y0059963D01*
X0208400Y0059925D02*
X0210122Y0059925D01*
X0210106Y0059887D02*
X0208416Y0059887D01*
X0208432Y0059849D02*
X0210090Y0059849D01*
X0210074Y0059811D02*
X0208448Y0059811D01*
X0208464Y0059773D02*
X0210057Y0059773D01*
X0210041Y0059736D02*
X0208480Y0059736D01*
X0208496Y0059698D02*
X0210025Y0059698D01*
X0210009Y0059660D02*
X0208513Y0059660D01*
X0208529Y0059622D02*
X0209993Y0059622D01*
X0209977Y0059584D02*
X0208545Y0059584D01*
X0208561Y0059546D02*
X0209961Y0059546D01*
X0209945Y0059508D02*
X0208577Y0059508D01*
X0208593Y0059470D02*
X0209929Y0059470D01*
X0209912Y0059432D02*
X0208609Y0059432D01*
X0208625Y0059395D02*
X0209896Y0059395D01*
X0209880Y0059357D02*
X0208642Y0059357D01*
X0208658Y0059319D02*
X0209864Y0059319D01*
X0209848Y0059281D02*
X0208674Y0059281D01*
X0208690Y0059243D02*
X0209832Y0059243D01*
X0209816Y0059205D02*
X0208706Y0059205D01*
X0208722Y0059167D02*
X0209800Y0059167D01*
X0209783Y0059129D02*
X0208738Y0059129D01*
X0208754Y0059092D02*
X0209767Y0059092D01*
X0209751Y0059054D02*
X0208771Y0059054D01*
X0212566Y0059092D02*
X0214827Y0059092D01*
X0215249Y0059129D02*
X0212566Y0059129D01*
X0212566Y0059167D02*
X0215422Y0059167D01*
X0215568Y0059205D02*
X0212566Y0059205D01*
X0212566Y0059243D02*
X0215658Y0059243D01*
X0215747Y0059281D02*
X0212566Y0059281D01*
X0212566Y0059319D02*
X0215837Y0059319D01*
X0215897Y0059357D02*
X0212566Y0059357D01*
X0212566Y0059395D02*
X0215951Y0059395D01*
X0216005Y0059432D02*
X0212566Y0059432D01*
X0212566Y0059470D02*
X0216060Y0059470D01*
X0216114Y0059508D02*
X0212566Y0059508D01*
X0212566Y0059546D02*
X0216149Y0059546D01*
X0216183Y0059584D02*
X0212566Y0059584D01*
X0212566Y0059622D02*
X0216217Y0059622D01*
X0216252Y0059660D02*
X0212566Y0059660D01*
X0212566Y0059698D02*
X0216286Y0059698D01*
X0216321Y0059736D02*
X0212566Y0059736D01*
X0212566Y0059773D02*
X0216343Y0059773D01*
X0216364Y0059811D02*
X0212566Y0059811D01*
X0212566Y0059849D02*
X0216385Y0059849D01*
X0216406Y0059887D02*
X0212566Y0059887D01*
X0212566Y0059925D02*
X0216426Y0059925D01*
X0216447Y0059963D02*
X0212566Y0059963D01*
X0212566Y0060001D02*
X0216468Y0060001D01*
X0217555Y0060001D02*
X0218617Y0060001D01*
X0218617Y0060039D02*
X0217555Y0060039D01*
X0217555Y0060076D02*
X0218617Y0060076D01*
X0218617Y0060114D02*
X0217555Y0060114D01*
X0217555Y0060152D02*
X0218617Y0060152D01*
X0218617Y0060190D02*
X0217555Y0060190D01*
X0217555Y0060228D02*
X0218617Y0060228D01*
X0218617Y0060266D02*
X0217555Y0060266D01*
X0217555Y0060304D02*
X0218617Y0060304D01*
X0218617Y0060342D02*
X0217555Y0060342D01*
X0217555Y0060380D02*
X0218617Y0060380D01*
X0218617Y0060417D02*
X0217555Y0060417D01*
X0217555Y0060455D02*
X0218617Y0060455D01*
X0218617Y0060493D02*
X0217555Y0060493D01*
X0217555Y0060531D02*
X0218617Y0060531D01*
X0218617Y0060569D02*
X0217555Y0060569D01*
X0217555Y0060607D02*
X0218617Y0060607D01*
X0218617Y0060645D02*
X0217555Y0060645D01*
X0217555Y0060683D02*
X0218617Y0060683D01*
X0218617Y0060720D02*
X0217555Y0060720D01*
X0217555Y0060758D02*
X0218617Y0060758D01*
X0218617Y0060796D02*
X0217555Y0060796D01*
X0217555Y0060834D02*
X0218617Y0060834D01*
X0218617Y0060872D02*
X0217555Y0060872D01*
X0217555Y0060910D02*
X0218617Y0060910D01*
X0218617Y0060948D02*
X0217555Y0060948D01*
X0217555Y0060986D02*
X0218617Y0060986D01*
X0218617Y0061023D02*
X0217555Y0061023D01*
X0217555Y0061061D02*
X0218617Y0061061D01*
X0218617Y0061099D02*
X0217555Y0061099D01*
X0217555Y0061137D02*
X0218617Y0061137D01*
X0218617Y0061175D02*
X0217555Y0061175D01*
X0217555Y0061213D02*
X0219948Y0061213D01*
X0219920Y0061175D02*
X0218638Y0061175D01*
X0218673Y0061137D02*
X0219892Y0061137D01*
X0219927Y0061099D02*
X0218709Y0061099D01*
X0218744Y0061061D02*
X0219964Y0061061D01*
X0220000Y0061023D02*
X0218779Y0061023D01*
X0218814Y0060986D02*
X0220036Y0060986D01*
X0220073Y0060948D02*
X0218849Y0060948D01*
X0218884Y0060910D02*
X0220109Y0060910D01*
X0220145Y0060872D02*
X0218920Y0060872D01*
X0218955Y0060834D02*
X0220182Y0060834D01*
X0220218Y0060796D02*
X0218990Y0060796D01*
X0219025Y0060758D02*
X0220254Y0060758D01*
X0220291Y0060720D02*
X0219060Y0060720D01*
X0219095Y0060683D02*
X0220327Y0060683D01*
X0220364Y0060645D02*
X0219131Y0060645D01*
X0219166Y0060607D02*
X0220400Y0060607D01*
X0220436Y0060569D02*
X0219201Y0060569D01*
X0219236Y0060531D02*
X0220473Y0060531D01*
X0220509Y0060493D02*
X0219271Y0060493D01*
X0219306Y0060455D02*
X0220545Y0060455D01*
X0220582Y0060417D02*
X0219342Y0060417D01*
X0219377Y0060380D02*
X0220618Y0060380D01*
X0220654Y0060342D02*
X0219412Y0060342D01*
X0219447Y0060304D02*
X0220691Y0060304D01*
X0220727Y0060266D02*
X0219482Y0060266D01*
X0219517Y0060228D02*
X0220763Y0060228D01*
X0220800Y0060190D02*
X0219553Y0060190D01*
X0219588Y0060152D02*
X0220836Y0060152D01*
X0220872Y0060114D02*
X0219623Y0060114D01*
X0219658Y0060076D02*
X0220909Y0060076D01*
X0220945Y0060039D02*
X0219693Y0060039D01*
X0219728Y0060001D02*
X0220981Y0060001D01*
X0221018Y0059963D02*
X0219764Y0059963D01*
X0219799Y0059925D02*
X0221054Y0059925D01*
X0221091Y0059887D02*
X0219834Y0059887D01*
X0219869Y0059849D02*
X0221127Y0059849D01*
X0221163Y0059811D02*
X0219904Y0059811D01*
X0219939Y0059773D02*
X0221200Y0059773D01*
X0221236Y0059736D02*
X0219975Y0059736D01*
X0220010Y0059698D02*
X0221272Y0059698D01*
X0221309Y0059660D02*
X0220045Y0059660D01*
X0220080Y0059622D02*
X0221345Y0059622D01*
X0221381Y0059584D02*
X0220115Y0059584D01*
X0220150Y0059546D02*
X0221418Y0059546D01*
X0221454Y0059508D02*
X0220186Y0059508D01*
X0220221Y0059470D02*
X0221490Y0059470D01*
X0221527Y0059432D02*
X0220256Y0059432D01*
X0220291Y0059395D02*
X0221563Y0059395D01*
X0221599Y0059357D02*
X0220326Y0059357D01*
X0220361Y0059319D02*
X0221636Y0059319D01*
X0221672Y0059281D02*
X0220397Y0059281D01*
X0220432Y0059243D02*
X0221709Y0059243D01*
X0221745Y0059205D02*
X0220467Y0059205D01*
X0220502Y0059167D02*
X0221781Y0059167D01*
X0221818Y0059129D02*
X0220537Y0059129D01*
X0220572Y0059092D02*
X0221854Y0059092D01*
X0218617Y0059092D02*
X0217555Y0059092D01*
X0217555Y0059129D02*
X0218617Y0059129D01*
X0218617Y0059167D02*
X0217555Y0059167D01*
X0217555Y0059205D02*
X0218617Y0059205D01*
X0218617Y0059243D02*
X0217555Y0059243D01*
X0217555Y0059281D02*
X0218617Y0059281D01*
X0218617Y0059319D02*
X0217555Y0059319D01*
X0217555Y0059357D02*
X0218617Y0059357D01*
X0218617Y0059395D02*
X0217555Y0059395D01*
X0217555Y0059432D02*
X0218617Y0059432D01*
X0218617Y0059470D02*
X0217555Y0059470D01*
X0217555Y0059508D02*
X0218617Y0059508D01*
X0218617Y0059546D02*
X0217555Y0059546D01*
X0217555Y0059584D02*
X0218617Y0059584D01*
X0218617Y0059622D02*
X0217555Y0059622D01*
X0217555Y0059660D02*
X0218617Y0059660D01*
X0218617Y0059698D02*
X0217555Y0059698D01*
X0217555Y0059736D02*
X0218617Y0059736D01*
X0218617Y0059773D02*
X0217555Y0059773D01*
X0217555Y0059811D02*
X0218617Y0059811D01*
X0218617Y0059849D02*
X0217555Y0059849D01*
X0217555Y0059887D02*
X0218617Y0059887D01*
X0218617Y0059925D02*
X0217555Y0059925D01*
X0217555Y0059963D02*
X0218617Y0059963D01*
X0217555Y0061251D02*
X0219976Y0061251D01*
X0220004Y0061289D02*
X0217555Y0061289D01*
X0217555Y0061327D02*
X0220032Y0061327D01*
X0220060Y0061364D02*
X0217555Y0061364D01*
X0217555Y0061402D02*
X0220088Y0061402D01*
X0220116Y0061440D02*
X0217555Y0061440D01*
X0217555Y0061478D02*
X0220144Y0061478D01*
X0220172Y0061516D02*
X0217555Y0061516D01*
X0217555Y0061554D02*
X0220200Y0061554D01*
X0220228Y0061592D02*
X0217555Y0061592D01*
X0217555Y0061630D02*
X0220256Y0061630D01*
X0220285Y0061667D02*
X0217555Y0061667D01*
X0217555Y0061705D02*
X0220313Y0061705D01*
X0220341Y0061743D02*
X0217555Y0061743D01*
X0217555Y0061781D02*
X0220369Y0061781D01*
X0220397Y0061819D02*
X0217555Y0061819D01*
X0226327Y0059092D02*
X0228360Y0059092D01*
X0228335Y0059129D02*
X0226352Y0059129D01*
X0226376Y0059167D02*
X0228311Y0059167D01*
X0228286Y0059205D02*
X0226401Y0059205D01*
X0226425Y0059243D02*
X0228261Y0059243D01*
X0228237Y0059281D02*
X0226450Y0059281D01*
X0226475Y0059319D02*
X0228212Y0059319D01*
X0228187Y0059357D02*
X0226499Y0059357D01*
X0226524Y0059395D02*
X0228162Y0059395D01*
X0228138Y0059432D02*
X0226548Y0059432D01*
X0226573Y0059470D02*
X0228113Y0059470D01*
X0228088Y0059508D02*
X0226597Y0059508D01*
X0226622Y0059546D02*
X0228063Y0059546D01*
X0228039Y0059584D02*
X0226646Y0059584D01*
X0226671Y0059622D02*
X0228014Y0059622D01*
X0227989Y0059660D02*
X0226696Y0059660D01*
X0226720Y0059698D02*
X0227964Y0059698D01*
X0227940Y0059736D02*
X0226745Y0059736D01*
X0226769Y0059773D02*
X0227915Y0059773D01*
X0227890Y0059811D02*
X0226794Y0059811D01*
X0226818Y0059849D02*
X0227866Y0059849D01*
X0227841Y0059887D02*
X0226843Y0059887D01*
X0226867Y0059925D02*
X0227816Y0059925D01*
X0227791Y0059963D02*
X0226892Y0059963D01*
X0226917Y0060001D02*
X0227767Y0060001D01*
X0227742Y0060039D02*
X0226941Y0060039D01*
X0226966Y0060076D02*
X0227717Y0060076D01*
X0227692Y0060114D02*
X0226990Y0060114D01*
X0227015Y0060152D02*
X0227668Y0060152D01*
X0227643Y0060190D02*
X0227039Y0060190D01*
X0227064Y0060228D02*
X0227618Y0060228D01*
X0227594Y0060266D02*
X0227088Y0060266D01*
X0227113Y0060304D02*
X0227569Y0060304D01*
X0227544Y0060342D02*
X0227138Y0060342D01*
X0227162Y0060380D02*
X0227519Y0060380D01*
X0227495Y0060417D02*
X0227187Y0060417D01*
X0227211Y0060455D02*
X0227470Y0060455D01*
X0227445Y0060493D02*
X0227236Y0060493D01*
X0227260Y0060531D02*
X0227420Y0060531D01*
X0227396Y0060569D02*
X0227285Y0060569D01*
X0227309Y0060607D02*
X0227371Y0060607D01*
X0227346Y0060645D02*
X0227334Y0060645D01*
X0206142Y0061554D02*
X0202507Y0061554D01*
X0202507Y0061592D02*
X0206119Y0061592D01*
X0206096Y0061630D02*
X0202507Y0061630D01*
X0202507Y0061667D02*
X0206072Y0061667D01*
X0206049Y0061705D02*
X0202507Y0061705D01*
X0202507Y0061743D02*
X0206025Y0061743D01*
X0206002Y0061781D02*
X0202507Y0061781D01*
X0202507Y0061819D02*
X0205969Y0061819D01*
X0205931Y0061857D02*
X0202507Y0061857D01*
X0202507Y0061895D02*
X0205894Y0061895D01*
X0205857Y0061933D02*
X0202507Y0061933D01*
X0202507Y0061971D02*
X0205819Y0061971D01*
X0205782Y0062008D02*
X0202507Y0062008D01*
X0202507Y0062046D02*
X0205737Y0062046D01*
X0205679Y0062084D02*
X0202507Y0062084D01*
X0202507Y0062122D02*
X0205620Y0062122D01*
X0205562Y0062160D02*
X0202507Y0062160D01*
D38*
X0215942Y0081850D03*
X0215942Y0088150D03*
D39*
X0215863Y0087992D03*
X0215863Y0082008D03*
D40*
X0215706Y0082165D03*
X0215678Y0077992D03*
X0215678Y0072008D03*
X0215706Y0087835D03*
D41*
X0215627Y0087677D03*
X0215627Y0082323D03*
D42*
X0215548Y0082480D03*
X0215520Y0077835D03*
X0215520Y0072165D03*
X0215548Y0087520D03*
D43*
X0215469Y0087362D03*
X0215469Y0082638D03*
X0215442Y0077677D03*
X0215442Y0072323D03*
D44*
X0215363Y0072480D03*
X0215363Y0077520D03*
X0215391Y0082795D03*
X0215391Y0087205D03*
D45*
X0213658Y0082953D03*
D46*
X0218477Y0091850D03*
X0218477Y0098150D03*
D47*
X0218241Y0097992D03*
X0218241Y0092008D03*
D48*
X0218083Y0092165D03*
X0218083Y0097835D03*
D49*
X0217926Y0097677D03*
X0217926Y0092323D03*
D50*
X0217847Y0092480D03*
X0217847Y0097520D03*
D51*
X0217690Y0097205D03*
X0217690Y0092795D03*
D52*
X0223044Y0093110D03*
X0223044Y0093268D03*
X0212178Y0092953D03*
X0211548Y0095000D03*
X0211178Y0102953D03*
X0210548Y0105000D03*
X0188080Y0133315D03*
X0184143Y0134732D03*
X0192017Y0141102D03*
X0192017Y0141260D03*
X0186800Y0073547D03*
X0197824Y0072130D03*
X0197824Y0071972D03*
X0197351Y0069610D03*
D53*
X0221863Y0092953D03*
D54*
X0223123Y0093425D03*
X0223123Y0093583D03*
X0223123Y0093740D03*
X0223123Y0093898D03*
X0223123Y0094055D03*
X0223123Y0094213D03*
X0223123Y0094370D03*
X0223123Y0094528D03*
X0223123Y0094685D03*
X0223123Y0094843D03*
X0223123Y0095000D03*
X0223123Y0095157D03*
X0223123Y0095315D03*
X0223123Y0095472D03*
X0223123Y0095630D03*
X0223123Y0095787D03*
X0223123Y0095945D03*
X0223123Y0096102D03*
X0223123Y0096260D03*
X0211469Y0095787D03*
X0211469Y0094843D03*
X0210942Y0103110D03*
X0210469Y0104685D03*
X0210469Y0104843D03*
X0210469Y0105787D03*
X0211099Y0107047D03*
X0183591Y0131898D03*
X0188158Y0133472D03*
X0188158Y0133630D03*
X0197902Y0072287D03*
X0197902Y0071815D03*
D55*
X0211627Y0095157D03*
X0210627Y0105157D03*
X0184064Y0134575D03*
D56*
X0211784Y0095315D03*
D57*
X0212099Y0095472D03*
X0211099Y0105472D03*
D58*
X0212257Y0095630D03*
X0216989Y0132953D03*
D59*
X0217950Y0108150D03*
X0217950Y0101850D03*
D60*
X0217556Y0102165D03*
X0217556Y0107835D03*
D61*
X0217398Y0107677D03*
X0217398Y0102323D03*
D62*
X0217320Y0102480D03*
X0217320Y0107520D03*
D63*
X0217162Y0107205D03*
X0217162Y0102795D03*
D64*
X0210863Y0105315D03*
D65*
X0211335Y0105630D03*
D66*
X0219666Y0131850D03*
X0219666Y0132008D03*
X0219666Y0132165D03*
X0219666Y0132323D03*
X0219666Y0132480D03*
X0219666Y0132638D03*
X0219666Y0132795D03*
X0219666Y0137205D03*
X0219666Y0137362D03*
X0219666Y0137520D03*
X0219666Y0137677D03*
X0219666Y0137835D03*
X0219666Y0137992D03*
X0219666Y0138150D03*
D67*
X0215757Y0078150D03*
X0215757Y0071850D03*
D68*
X0215284Y0072638D03*
X0215284Y0077362D03*
D69*
X0215206Y0077205D03*
X0215206Y0072795D03*
D70*
X0213237Y0072953D03*
D71*
X0221820Y0072953D03*
D72*
X0190107Y0069453D03*
X0183828Y0134260D03*
X0183985Y0134417D03*
D73*
X0194093Y0066875D02*
X0194093Y0063125D01*
D74*
X0190186Y0068665D03*
X0190186Y0074335D03*
D75*
X0190186Y0074177D03*
X0190186Y0068823D03*
D76*
X0190186Y0068980D03*
X0190186Y0074020D03*
D77*
X0190186Y0073862D03*
X0190186Y0069138D03*
D78*
X0190186Y0069295D03*
X0190186Y0073705D03*
D79*
X0184595Y0069453D03*
D80*
X0195698Y0069453D03*
M02*
