G75*
%MOIN*%
%OFA0B0*%
%FSLAX25Y25*%
%IPPOS*%
%LPD*%
%AMOC8*
5,1,8,0,0,1.08239X$1,22.5*
%
%ADD10R,0.06500X0.06500*%
%ADD11C,0.06500*%
%ADD12C,0.07400*%
%ADD13C,0.01181*%
%ADD14R,0.04331X0.03937*%
%ADD15C,0.01000*%
%ADD16C,0.02200*%
%ADD17C,0.00800*%
%ADD18C,0.02378*%
%ADD19C,0.01200*%
%ADD20C,0.02500*%
D10*
X0190906Y0111374D03*
D11*
X0198780Y0111374D03*
X0198780Y0103500D03*
X0190906Y0103500D03*
X0190906Y0095626D03*
X0198780Y0095626D03*
D12*
X0227843Y0095000D03*
X0227843Y0105000D03*
X0227843Y0115000D03*
X0227843Y0125000D03*
X0227843Y0135000D03*
X0227843Y0085000D03*
X0227843Y0075000D03*
D13*
X0192674Y0066378D02*
X0192674Y0063622D01*
X0189918Y0063622D01*
X0189918Y0066378D01*
X0192674Y0066378D01*
X0192674Y0064744D02*
X0189918Y0064744D01*
X0189918Y0065866D02*
X0192674Y0065866D01*
X0185769Y0066378D02*
X0185769Y0063622D01*
X0183013Y0063622D01*
X0183013Y0066378D01*
X0185769Y0066378D01*
X0185769Y0064744D02*
X0183013Y0064744D01*
X0183013Y0065866D02*
X0185769Y0065866D01*
D14*
X0184497Y0060000D03*
X0191190Y0060000D03*
D15*
X0195843Y0064654D01*
X0195843Y0070500D01*
X0191843Y0075000D02*
X0191843Y0065547D01*
X0191296Y0065000D01*
X0184391Y0065000D02*
X0184391Y0060106D01*
X0184497Y0060000D01*
X0204843Y0075500D02*
X0220343Y0075500D01*
X0222843Y0078000D01*
X0222843Y0100000D01*
X0227843Y0105000D01*
X0223343Y0109000D02*
X0223343Y0110000D01*
X0211843Y0115000D02*
X0210843Y0115000D01*
X0208843Y0117000D01*
X0208843Y0122500D01*
X0206843Y0124500D01*
X0197843Y0130000D02*
X0197793Y0130000D01*
X0194293Y0133500D01*
X0191394Y0133500D01*
X0188894Y0131000D01*
X0188843Y0131000D01*
X0186356Y0128513D01*
X0186356Y0107586D01*
X0186843Y0107099D01*
X0186843Y0107000D01*
X0190343Y0103500D01*
X0190906Y0103500D01*
X0190343Y0103500D02*
X0185843Y0099000D01*
X0185843Y0091000D01*
X0187843Y0089000D01*
X0194843Y0089000D01*
X0199843Y0084000D01*
X0199843Y0080500D01*
X0204843Y0075500D01*
X0203843Y0083500D02*
X0203843Y0098138D01*
X0203993Y0098287D01*
X0198780Y0103500D01*
X0203343Y0108063D01*
X0203343Y0119500D01*
X0192843Y0130000D01*
X0198780Y0095626D02*
X0198780Y0088563D01*
X0201343Y0086000D01*
D16*
X0201343Y0086000D03*
X0203843Y0083500D03*
X0199843Y0080500D03*
X0191843Y0081500D03*
X0216843Y0081500D03*
X0212843Y0098500D03*
X0223343Y0110000D03*
X0211843Y0115000D03*
X0202843Y0130126D03*
X0197843Y0130000D03*
D17*
X0181522Y0057144D02*
X0181522Y0055899D01*
X0232243Y0055899D01*
X0232243Y0072818D01*
X0231997Y0072224D01*
X0230619Y0070846D01*
X0228818Y0070100D01*
X0226869Y0070100D01*
X0225068Y0070846D01*
X0223689Y0072224D01*
X0222943Y0074025D01*
X0222943Y0075696D01*
X0222043Y0074796D01*
X0221047Y0073800D01*
X0204139Y0073800D01*
X0203143Y0074796D01*
X0199739Y0078200D01*
X0198891Y0078200D01*
X0197543Y0079547D01*
X0197543Y0081453D01*
X0198143Y0082053D01*
X0198143Y0083296D01*
X0194139Y0087300D01*
X0187139Y0087300D01*
X0185139Y0089300D01*
X0184143Y0090296D01*
X0184143Y0099704D01*
X0186631Y0102192D01*
X0186456Y0102615D01*
X0186456Y0104385D01*
X0186631Y0104808D01*
X0185143Y0106296D01*
X0185143Y0106394D01*
X0184656Y0106881D01*
X0184656Y0129217D01*
X0188139Y0132700D01*
X0188189Y0132700D01*
X0190689Y0135200D01*
X0194997Y0135200D01*
X0197897Y0132300D01*
X0198796Y0132300D01*
X0200143Y0130953D01*
X0200143Y0129047D01*
X0198796Y0127700D01*
X0197547Y0127700D01*
X0204047Y0121200D01*
X0205043Y0120204D01*
X0205043Y0107359D01*
X0204047Y0106363D01*
X0202890Y0105206D01*
X0203230Y0104385D01*
X0203230Y0102615D01*
X0202890Y0101794D01*
X0204697Y0099987D01*
X0205693Y0098992D01*
X0205693Y0097583D01*
X0205543Y0097434D01*
X0205543Y0085053D01*
X0206143Y0084453D01*
X0206143Y0082547D01*
X0204796Y0081200D01*
X0202891Y0081200D01*
X0201543Y0082547D01*
X0201543Y0083700D01*
X0201543Y0083700D01*
X0201543Y0082053D01*
X0202143Y0081453D01*
X0202143Y0080604D01*
X0205547Y0077200D01*
X0219639Y0077200D01*
X0221143Y0078704D01*
X0221143Y0100704D01*
X0223389Y0102950D01*
X0222943Y0104025D01*
X0222943Y0105975D01*
X0223000Y0106111D01*
X0215143Y0098254D01*
X0215143Y0097547D01*
X0213796Y0096200D01*
X0211891Y0096200D01*
X0210543Y0097547D01*
X0210543Y0099453D01*
X0211891Y0100800D01*
X0212598Y0100800D01*
X0221043Y0109246D01*
X0221043Y0110953D01*
X0222391Y0112300D01*
X0223658Y0112300D01*
X0222943Y0114025D01*
X0222943Y0115975D01*
X0223347Y0116950D01*
X0211972Y0128326D01*
X0204296Y0128326D01*
X0203796Y0127826D01*
X0201891Y0127826D01*
X0200543Y0129173D01*
X0200543Y0131079D01*
X0201891Y0132426D01*
X0203796Y0132426D01*
X0204296Y0131926D01*
X0213463Y0131926D01*
X0225893Y0119496D01*
X0226869Y0119900D01*
X0228818Y0119900D01*
X0230619Y0119154D01*
X0231997Y0117776D01*
X0232243Y0117182D01*
X0232243Y0122402D01*
X0232205Y0122327D01*
X0231733Y0121678D01*
X0231166Y0121110D01*
X0230516Y0120638D01*
X0229801Y0120274D01*
X0229038Y0120026D01*
X0228245Y0119900D01*
X0228243Y0119900D01*
X0228243Y0124600D01*
X0227443Y0124600D01*
X0222743Y0124600D01*
X0222743Y0124599D01*
X0222869Y0123806D01*
X0223117Y0123042D01*
X0223481Y0122327D01*
X0223953Y0121678D01*
X0224521Y0121110D01*
X0225170Y0120638D01*
X0225886Y0120274D01*
X0226649Y0120026D01*
X0227442Y0119900D01*
X0227443Y0119900D01*
X0227443Y0124600D01*
X0227443Y0125400D01*
X0222743Y0125400D01*
X0222743Y0125401D01*
X0222869Y0126194D01*
X0223117Y0126958D01*
X0223481Y0127673D01*
X0223953Y0128322D01*
X0224521Y0128890D01*
X0225170Y0129362D01*
X0225886Y0129726D01*
X0226649Y0129974D01*
X0227442Y0130100D01*
X0227443Y0130100D01*
X0227443Y0125400D01*
X0228243Y0125400D01*
X0228243Y0130100D01*
X0228245Y0130100D01*
X0229038Y0129974D01*
X0229801Y0129726D01*
X0230516Y0129362D01*
X0231166Y0128890D01*
X0231733Y0128322D01*
X0232205Y0127673D01*
X0232243Y0127598D01*
X0232243Y0132818D01*
X0231997Y0132224D01*
X0230619Y0130846D01*
X0228818Y0130100D01*
X0226869Y0130100D01*
X0225068Y0130846D01*
X0223689Y0132224D01*
X0222943Y0134025D01*
X0222943Y0135975D01*
X0223689Y0137776D01*
X0225068Y0139154D01*
X0226869Y0139900D01*
X0228818Y0139900D01*
X0230619Y0139154D01*
X0231997Y0137776D01*
X0232243Y0137182D01*
X0232243Y0143400D01*
X0181522Y0143400D01*
X0181522Y0067420D01*
X0182271Y0068168D01*
X0186510Y0068168D01*
X0187559Y0067120D01*
X0187559Y0062880D01*
X0187503Y0062825D01*
X0187843Y0062484D01*
X0188118Y0062759D01*
X0188063Y0062854D01*
X0187928Y0063360D01*
X0187928Y0064600D01*
X0190896Y0064600D01*
X0190896Y0065400D01*
X0187928Y0065400D01*
X0187928Y0066640D01*
X0188063Y0067146D01*
X0188325Y0067600D01*
X0188696Y0067971D01*
X0189150Y0068233D01*
X0189656Y0068368D01*
X0190896Y0068368D01*
X0190896Y0065400D01*
X0191696Y0065400D01*
X0191696Y0068368D01*
X0192936Y0068368D01*
X0193442Y0068233D01*
X0193896Y0067971D01*
X0194143Y0067724D01*
X0194143Y0068735D01*
X0193766Y0069112D01*
X0193393Y0070013D01*
X0193393Y0070987D01*
X0193766Y0071888D01*
X0194455Y0072577D01*
X0195356Y0072950D01*
X0196331Y0072950D01*
X0197231Y0072577D01*
X0197920Y0071888D01*
X0198293Y0070987D01*
X0198293Y0070013D01*
X0197920Y0069112D01*
X0197543Y0068735D01*
X0197543Y0063949D01*
X0196547Y0062954D01*
X0194555Y0060961D01*
X0194555Y0057534D01*
X0193852Y0056831D01*
X0188527Y0056831D01*
X0187843Y0057516D01*
X0187159Y0056831D01*
X0181834Y0056831D01*
X0181522Y0057144D01*
X0181522Y0056388D02*
X0232243Y0056388D01*
X0232243Y0057187D02*
X0194207Y0057187D01*
X0194555Y0057985D02*
X0232243Y0057985D01*
X0232243Y0058784D02*
X0194555Y0058784D01*
X0194555Y0059582D02*
X0232243Y0059582D01*
X0232243Y0060381D02*
X0194555Y0060381D01*
X0194773Y0061179D02*
X0232243Y0061179D01*
X0232243Y0061978D02*
X0195572Y0061978D01*
X0196370Y0062776D02*
X0232243Y0062776D01*
X0232243Y0063575D02*
X0197169Y0063575D01*
X0197543Y0064373D02*
X0232243Y0064373D01*
X0232243Y0065172D02*
X0197543Y0065172D01*
X0197543Y0065970D02*
X0232243Y0065970D01*
X0232243Y0066769D02*
X0197543Y0066769D01*
X0197543Y0067567D02*
X0232243Y0067567D01*
X0232243Y0068366D02*
X0197543Y0068366D01*
X0197942Y0069164D02*
X0232243Y0069164D01*
X0232243Y0069963D02*
X0198273Y0069963D01*
X0198293Y0070761D02*
X0225272Y0070761D01*
X0224354Y0071560D02*
X0198056Y0071560D01*
X0197450Y0072358D02*
X0223634Y0072358D01*
X0223303Y0073157D02*
X0181522Y0073157D01*
X0181522Y0073955D02*
X0203984Y0073955D01*
X0203185Y0074754D02*
X0181522Y0074754D01*
X0181522Y0075552D02*
X0202387Y0075552D01*
X0201588Y0076351D02*
X0181522Y0076351D01*
X0181522Y0077149D02*
X0200790Y0077149D01*
X0199991Y0077948D02*
X0181522Y0077948D01*
X0181522Y0078746D02*
X0198344Y0078746D01*
X0197546Y0079545D02*
X0181522Y0079545D01*
X0181522Y0080343D02*
X0197543Y0080343D01*
X0197543Y0081142D02*
X0181522Y0081142D01*
X0181522Y0081940D02*
X0198031Y0081940D01*
X0198143Y0082739D02*
X0181522Y0082739D01*
X0181522Y0083537D02*
X0197902Y0083537D01*
X0197103Y0084336D02*
X0181522Y0084336D01*
X0181522Y0085134D02*
X0196305Y0085134D01*
X0195506Y0085933D02*
X0181522Y0085933D01*
X0181522Y0086732D02*
X0194708Y0086732D01*
X0201543Y0083537D02*
X0201543Y0083537D01*
X0201543Y0082739D02*
X0201543Y0082739D01*
X0201656Y0081940D02*
X0202150Y0081940D01*
X0202143Y0081142D02*
X0221143Y0081142D01*
X0221143Y0081940D02*
X0205536Y0081940D01*
X0206143Y0082739D02*
X0221143Y0082739D01*
X0221143Y0083537D02*
X0206143Y0083537D01*
X0206143Y0084336D02*
X0221143Y0084336D01*
X0221143Y0085134D02*
X0205543Y0085134D01*
X0205543Y0085933D02*
X0221143Y0085933D01*
X0221143Y0086732D02*
X0205543Y0086732D01*
X0205543Y0087530D02*
X0221143Y0087530D01*
X0221143Y0088329D02*
X0205543Y0088329D01*
X0205543Y0089127D02*
X0221143Y0089127D01*
X0221143Y0089926D02*
X0205543Y0089926D01*
X0205543Y0090724D02*
X0221143Y0090724D01*
X0221143Y0091523D02*
X0205543Y0091523D01*
X0205543Y0092321D02*
X0221143Y0092321D01*
X0221143Y0093120D02*
X0205543Y0093120D01*
X0205543Y0093918D02*
X0221143Y0093918D01*
X0221143Y0094717D02*
X0205543Y0094717D01*
X0205543Y0095515D02*
X0221143Y0095515D01*
X0221143Y0096314D02*
X0213910Y0096314D01*
X0214708Y0097112D02*
X0221143Y0097112D01*
X0221143Y0097911D02*
X0215143Y0097911D01*
X0215598Y0098709D02*
X0221143Y0098709D01*
X0221143Y0099508D02*
X0216397Y0099508D01*
X0217195Y0100306D02*
X0221143Y0100306D01*
X0221544Y0101105D02*
X0217994Y0101105D01*
X0218792Y0101903D02*
X0222342Y0101903D01*
X0223141Y0102702D02*
X0219591Y0102702D01*
X0220389Y0103500D02*
X0223161Y0103500D01*
X0222943Y0104299D02*
X0221188Y0104299D01*
X0221986Y0105097D02*
X0222943Y0105097D01*
X0222943Y0105896D02*
X0222785Y0105896D01*
X0219291Y0107493D02*
X0205043Y0107493D01*
X0205043Y0108291D02*
X0220089Y0108291D01*
X0220888Y0109090D02*
X0205043Y0109090D01*
X0205043Y0109888D02*
X0221043Y0109888D01*
X0221043Y0110687D02*
X0205043Y0110687D01*
X0205043Y0111485D02*
X0221576Y0111485D01*
X0222375Y0112284D02*
X0205043Y0112284D01*
X0205043Y0113082D02*
X0223334Y0113082D01*
X0223003Y0113881D02*
X0205043Y0113881D01*
X0205043Y0114679D02*
X0222943Y0114679D01*
X0222943Y0115478D02*
X0205043Y0115478D01*
X0205043Y0116276D02*
X0223068Y0116276D01*
X0223223Y0117075D02*
X0205043Y0117075D01*
X0205043Y0117873D02*
X0222424Y0117873D01*
X0221626Y0118672D02*
X0205043Y0118672D01*
X0205043Y0119470D02*
X0220827Y0119470D01*
X0220029Y0120269D02*
X0204978Y0120269D01*
X0204180Y0121068D02*
X0219230Y0121068D01*
X0218432Y0121866D02*
X0203381Y0121866D01*
X0202583Y0122665D02*
X0217633Y0122665D01*
X0216835Y0123463D02*
X0201784Y0123463D01*
X0200986Y0124262D02*
X0216036Y0124262D01*
X0215238Y0125060D02*
X0200187Y0125060D01*
X0199389Y0125859D02*
X0214439Y0125859D01*
X0213641Y0126657D02*
X0198590Y0126657D01*
X0197792Y0127456D02*
X0212842Y0127456D01*
X0212044Y0128254D02*
X0204224Y0128254D01*
X0201462Y0128254D02*
X0199350Y0128254D01*
X0200143Y0129053D02*
X0200664Y0129053D01*
X0200543Y0129851D02*
X0200143Y0129851D01*
X0200143Y0130650D02*
X0200543Y0130650D01*
X0200913Y0131448D02*
X0199648Y0131448D01*
X0198849Y0132247D02*
X0201711Y0132247D01*
X0203975Y0132247D02*
X0223680Y0132247D01*
X0223349Y0133045D02*
X0197152Y0133045D01*
X0196354Y0133844D02*
X0223019Y0133844D01*
X0222943Y0134642D02*
X0195555Y0134642D01*
X0190132Y0134642D02*
X0181522Y0134642D01*
X0181522Y0133844D02*
X0189333Y0133844D01*
X0188535Y0133045D02*
X0181522Y0133045D01*
X0181522Y0132247D02*
X0187686Y0132247D01*
X0186887Y0131448D02*
X0181522Y0131448D01*
X0181522Y0130650D02*
X0186089Y0130650D01*
X0185290Y0129851D02*
X0181522Y0129851D01*
X0181522Y0129053D02*
X0184656Y0129053D01*
X0184656Y0128254D02*
X0181522Y0128254D01*
X0181522Y0127456D02*
X0184656Y0127456D01*
X0184656Y0126657D02*
X0181522Y0126657D01*
X0181522Y0125859D02*
X0184656Y0125859D01*
X0184656Y0125060D02*
X0181522Y0125060D01*
X0181522Y0124262D02*
X0184656Y0124262D01*
X0184656Y0123463D02*
X0181522Y0123463D01*
X0181522Y0122665D02*
X0184656Y0122665D01*
X0184656Y0121866D02*
X0181522Y0121866D01*
X0181522Y0121068D02*
X0184656Y0121068D01*
X0184656Y0120269D02*
X0181522Y0120269D01*
X0181522Y0119470D02*
X0184656Y0119470D01*
X0184656Y0118672D02*
X0181522Y0118672D01*
X0181522Y0117873D02*
X0184656Y0117873D01*
X0184656Y0117075D02*
X0181522Y0117075D01*
X0181522Y0116276D02*
X0184656Y0116276D01*
X0184656Y0115478D02*
X0181522Y0115478D01*
X0181522Y0114679D02*
X0184656Y0114679D01*
X0184656Y0113881D02*
X0181522Y0113881D01*
X0181522Y0113082D02*
X0184656Y0113082D01*
X0184656Y0112284D02*
X0181522Y0112284D01*
X0181522Y0111485D02*
X0184656Y0111485D01*
X0184656Y0110687D02*
X0181522Y0110687D01*
X0181522Y0109888D02*
X0184656Y0109888D01*
X0184656Y0109090D02*
X0181522Y0109090D01*
X0181522Y0108291D02*
X0184656Y0108291D01*
X0184656Y0107493D02*
X0181522Y0107493D01*
X0181522Y0106694D02*
X0184843Y0106694D01*
X0185543Y0105896D02*
X0181522Y0105896D01*
X0181522Y0105097D02*
X0186342Y0105097D01*
X0186456Y0104299D02*
X0181522Y0104299D01*
X0181522Y0103500D02*
X0186456Y0103500D01*
X0186456Y0102702D02*
X0181522Y0102702D01*
X0181522Y0101903D02*
X0186342Y0101903D01*
X0185544Y0101105D02*
X0181522Y0101105D01*
X0181522Y0100306D02*
X0184745Y0100306D01*
X0184143Y0099508D02*
X0181522Y0099508D01*
X0181522Y0098709D02*
X0184143Y0098709D01*
X0184143Y0097911D02*
X0181522Y0097911D01*
X0181522Y0097112D02*
X0184143Y0097112D01*
X0184143Y0096314D02*
X0181522Y0096314D01*
X0181522Y0095515D02*
X0184143Y0095515D01*
X0184143Y0094717D02*
X0181522Y0094717D01*
X0181522Y0093918D02*
X0184143Y0093918D01*
X0184143Y0093120D02*
X0181522Y0093120D01*
X0181522Y0092321D02*
X0184143Y0092321D01*
X0184143Y0091523D02*
X0181522Y0091523D01*
X0181522Y0090724D02*
X0184143Y0090724D01*
X0184514Y0089926D02*
X0181522Y0089926D01*
X0181522Y0089127D02*
X0185312Y0089127D01*
X0186111Y0088329D02*
X0181522Y0088329D01*
X0181522Y0087530D02*
X0186909Y0087530D01*
X0202404Y0080343D02*
X0221143Y0080343D01*
X0221143Y0079545D02*
X0203203Y0079545D01*
X0204001Y0078746D02*
X0221143Y0078746D01*
X0220387Y0077948D02*
X0204800Y0077948D01*
X0194237Y0072358D02*
X0181522Y0072358D01*
X0181522Y0071560D02*
X0193630Y0071560D01*
X0193393Y0070761D02*
X0181522Y0070761D01*
X0181522Y0069963D02*
X0193414Y0069963D01*
X0193745Y0069164D02*
X0181522Y0069164D01*
X0181522Y0068366D02*
X0189646Y0068366D01*
X0190896Y0068366D02*
X0191696Y0068366D01*
X0191696Y0067567D02*
X0190896Y0067567D01*
X0190896Y0066769D02*
X0191696Y0066769D01*
X0191696Y0065970D02*
X0190896Y0065970D01*
X0190896Y0065172D02*
X0187559Y0065172D01*
X0187559Y0065970D02*
X0187928Y0065970D01*
X0187962Y0066769D02*
X0187559Y0066769D01*
X0187111Y0067567D02*
X0188306Y0067567D01*
X0192946Y0068366D02*
X0194143Y0068366D01*
X0187928Y0064373D02*
X0187559Y0064373D01*
X0187559Y0063575D02*
X0187928Y0063575D01*
X0188108Y0062776D02*
X0187552Y0062776D01*
X0181670Y0067567D02*
X0181522Y0067567D01*
X0187514Y0057187D02*
X0188172Y0057187D01*
X0221203Y0073955D02*
X0222972Y0073955D01*
X0222943Y0074754D02*
X0222001Y0074754D01*
X0222800Y0075552D02*
X0222943Y0075552D01*
X0231333Y0071560D02*
X0232243Y0071560D01*
X0232243Y0072358D02*
X0232053Y0072358D01*
X0232243Y0070761D02*
X0230414Y0070761D01*
X0211777Y0096314D02*
X0205543Y0096314D01*
X0205543Y0097112D02*
X0210978Y0097112D01*
X0210543Y0097911D02*
X0205693Y0097911D01*
X0205693Y0098709D02*
X0210543Y0098709D01*
X0210598Y0099508D02*
X0205177Y0099508D01*
X0204378Y0100306D02*
X0211397Y0100306D01*
X0212902Y0101105D02*
X0203580Y0101105D01*
X0202936Y0101903D02*
X0213701Y0101903D01*
X0214499Y0102702D02*
X0203230Y0102702D01*
X0203230Y0103500D02*
X0215298Y0103500D01*
X0216096Y0104299D02*
X0203230Y0104299D01*
X0202935Y0105097D02*
X0216895Y0105097D01*
X0217694Y0105896D02*
X0203580Y0105896D01*
X0204379Y0106694D02*
X0218492Y0106694D01*
X0201643Y0115042D02*
X0201217Y0115351D01*
X0200565Y0115683D01*
X0199869Y0115910D01*
X0199180Y0116019D01*
X0199180Y0111774D01*
X0198380Y0111774D01*
X0198380Y0116019D01*
X0197691Y0115910D01*
X0196995Y0115683D01*
X0196343Y0115351D01*
X0195751Y0114921D01*
X0195356Y0114526D01*
X0195356Y0115121D01*
X0194653Y0115824D01*
X0188056Y0115824D01*
X0188056Y0127809D01*
X0189547Y0129300D01*
X0189598Y0129300D01*
X0190454Y0130157D01*
X0190454Y0129010D01*
X0191854Y0127611D01*
X0192828Y0127611D01*
X0201643Y0118796D01*
X0201643Y0115042D01*
X0201643Y0115478D02*
X0200968Y0115478D01*
X0201643Y0116276D02*
X0188056Y0116276D01*
X0188056Y0117075D02*
X0201643Y0117075D01*
X0201643Y0117873D02*
X0188056Y0117873D01*
X0188056Y0118672D02*
X0201643Y0118672D01*
X0200969Y0119470D02*
X0188056Y0119470D01*
X0188056Y0120269D02*
X0200170Y0120269D01*
X0199372Y0121068D02*
X0188056Y0121068D01*
X0188056Y0121866D02*
X0198573Y0121866D01*
X0197775Y0122665D02*
X0188056Y0122665D01*
X0188056Y0123463D02*
X0196976Y0123463D01*
X0196178Y0124262D02*
X0188056Y0124262D01*
X0188056Y0125060D02*
X0195379Y0125060D01*
X0194581Y0125859D02*
X0188056Y0125859D01*
X0188056Y0126657D02*
X0193782Y0126657D01*
X0192984Y0127456D02*
X0188056Y0127456D01*
X0188502Y0128254D02*
X0191211Y0128254D01*
X0190454Y0129053D02*
X0189300Y0129053D01*
X0190149Y0129851D02*
X0190454Y0129851D01*
X0181522Y0135441D02*
X0222943Y0135441D01*
X0223053Y0136239D02*
X0181522Y0136239D01*
X0181522Y0137038D02*
X0223384Y0137038D01*
X0223750Y0137836D02*
X0181522Y0137836D01*
X0181522Y0138635D02*
X0224548Y0138635D01*
X0225742Y0139433D02*
X0181522Y0139433D01*
X0181522Y0140232D02*
X0232243Y0140232D01*
X0232243Y0141030D02*
X0181522Y0141030D01*
X0181522Y0141829D02*
X0232243Y0141829D01*
X0232243Y0142627D02*
X0181522Y0142627D01*
X0213941Y0131448D02*
X0224466Y0131448D01*
X0225542Y0130650D02*
X0214739Y0130650D01*
X0215538Y0129851D02*
X0226270Y0129851D01*
X0227443Y0129851D02*
X0228243Y0129851D01*
X0228243Y0129053D02*
X0227443Y0129053D01*
X0227443Y0128254D02*
X0228243Y0128254D01*
X0228243Y0127456D02*
X0227443Y0127456D01*
X0227443Y0126657D02*
X0228243Y0126657D01*
X0228243Y0125859D02*
X0227443Y0125859D01*
X0227443Y0125060D02*
X0220329Y0125060D01*
X0221127Y0124262D02*
X0222797Y0124262D01*
X0222980Y0123463D02*
X0221926Y0123463D01*
X0222724Y0122665D02*
X0223309Y0122665D01*
X0223523Y0121866D02*
X0223816Y0121866D01*
X0224321Y0121068D02*
X0224579Y0121068D01*
X0225120Y0120269D02*
X0225900Y0120269D01*
X0227443Y0120269D02*
X0228243Y0120269D01*
X0228243Y0121068D02*
X0227443Y0121068D01*
X0227443Y0121866D02*
X0228243Y0121866D01*
X0228243Y0122665D02*
X0227443Y0122665D01*
X0227443Y0123463D02*
X0228243Y0123463D01*
X0228243Y0124262D02*
X0227443Y0124262D01*
X0222816Y0125859D02*
X0219530Y0125859D01*
X0218732Y0126657D02*
X0223019Y0126657D01*
X0223371Y0127456D02*
X0217933Y0127456D01*
X0217135Y0128254D02*
X0223904Y0128254D01*
X0224745Y0129053D02*
X0216336Y0129053D01*
X0229417Y0129851D02*
X0232243Y0129851D01*
X0232243Y0129053D02*
X0230942Y0129053D01*
X0231783Y0128254D02*
X0232243Y0128254D01*
X0232243Y0130650D02*
X0230145Y0130650D01*
X0231221Y0131448D02*
X0232243Y0131448D01*
X0232243Y0132247D02*
X0232007Y0132247D01*
X0231937Y0137836D02*
X0232243Y0137836D01*
X0232243Y0138635D02*
X0231138Y0138635D01*
X0232243Y0139433D02*
X0229945Y0139433D01*
X0231870Y0121866D02*
X0232243Y0121866D01*
X0232243Y0121068D02*
X0231107Y0121068D01*
X0232243Y0120269D02*
X0229787Y0120269D01*
X0229855Y0119470D02*
X0232243Y0119470D01*
X0232243Y0118672D02*
X0231101Y0118672D01*
X0231899Y0117873D02*
X0232243Y0117873D01*
X0199180Y0115478D02*
X0198380Y0115478D01*
X0198380Y0114679D02*
X0199180Y0114679D01*
X0199180Y0113881D02*
X0198380Y0113881D01*
X0198380Y0113082D02*
X0199180Y0113082D01*
X0199180Y0112284D02*
X0198380Y0112284D01*
X0196592Y0115478D02*
X0194999Y0115478D01*
X0195356Y0114679D02*
X0195510Y0114679D01*
D18*
X0206843Y0124500D03*
X0192843Y0130000D03*
D19*
X0202843Y0130126D02*
X0212717Y0130126D01*
X0227843Y0115000D01*
X0223343Y0109000D02*
X0212843Y0098500D01*
D20*
X0195843Y0070500D03*
M02*
