%
M48
M72
T01C0.0120
T02C0.0138
T03C0.0150
T04C0.0394
T05C0.0400
%
T01
X19984Y8050
X20384Y8350
X20134Y8600
X19184Y8150
X21684Y8150
X21284Y9850
X22334Y11000
X21184Y11500
X20284Y13013
X19784Y13000
T02
X19284Y13000
X20684Y12450
T03
X19584Y7050
T04
X19878Y9563
X19091Y9563
X19091Y10350
X19878Y10350
X19878Y11137
X19091Y11137
T05
X22784Y11500
X22784Y10500
X22784Y9500
X22784Y8500
X22784Y7500
X22784Y12500
X22784Y13500
M30
