G75*
%MOIN*%
%OFA0B0*%
%FSLAX25Y25*%
%IPPOS*%
%LPD*%
%AMOC8*
5,1,8,0,0,1.08239X$1,22.5*
%
%ADD10C,0.01000*%
%ADD11C,0.00800*%
%ADD12C,0.01000*%
%ADD13C,0.00050*%
D10*
X0182262Y0111500D02*
X0182264Y0111579D01*
X0182270Y0111659D01*
X0182280Y0111738D01*
X0182294Y0111816D01*
X0182312Y0111893D01*
X0182333Y0111970D01*
X0182359Y0112045D01*
X0182388Y0112119D01*
X0182421Y0112191D01*
X0182458Y0112262D01*
X0182498Y0112330D01*
X0182541Y0112397D01*
X0182588Y0112461D01*
X0182638Y0112523D01*
X0182691Y0112582D01*
X0182746Y0112639D01*
X0182805Y0112692D01*
X0182866Y0112743D01*
X0182930Y0112791D01*
X0182996Y0112835D01*
X0183064Y0112876D01*
X0183134Y0112913D01*
X0183206Y0112947D01*
X0183280Y0112977D01*
X0183354Y0113004D01*
X0183431Y0113026D01*
X0183508Y0113045D01*
X0183586Y0113060D01*
X0183665Y0113071D01*
X0183744Y0113078D01*
X0183823Y0113081D01*
X0183903Y0113080D01*
X0183982Y0113075D01*
X0184061Y0113066D01*
X0184139Y0113053D01*
X0184217Y0113036D01*
X0184294Y0113015D01*
X0184369Y0112991D01*
X0184443Y0112963D01*
X0184516Y0112931D01*
X0184587Y0112895D01*
X0184656Y0112856D01*
X0184723Y0112813D01*
X0184788Y0112767D01*
X0184851Y0112718D01*
X0184911Y0112666D01*
X0184968Y0112611D01*
X0185022Y0112553D01*
X0185074Y0112492D01*
X0185122Y0112429D01*
X0185167Y0112364D01*
X0185209Y0112296D01*
X0185247Y0112227D01*
X0185282Y0112155D01*
X0185313Y0112082D01*
X0185340Y0112007D01*
X0185364Y0111932D01*
X0185384Y0111855D01*
X0185400Y0111777D01*
X0185412Y0111698D01*
X0185420Y0111619D01*
X0185424Y0111540D01*
X0185424Y0111460D01*
X0185420Y0111381D01*
X0185412Y0111302D01*
X0185400Y0111223D01*
X0185384Y0111145D01*
X0185364Y0111068D01*
X0185340Y0110993D01*
X0185313Y0110918D01*
X0185282Y0110845D01*
X0185247Y0110773D01*
X0185209Y0110704D01*
X0185167Y0110636D01*
X0185122Y0110571D01*
X0185074Y0110508D01*
X0185022Y0110447D01*
X0184968Y0110389D01*
X0184911Y0110334D01*
X0184851Y0110282D01*
X0184788Y0110233D01*
X0184723Y0110187D01*
X0184656Y0110144D01*
X0184587Y0110105D01*
X0184516Y0110069D01*
X0184443Y0110037D01*
X0184369Y0110009D01*
X0184294Y0109985D01*
X0184217Y0109964D01*
X0184139Y0109947D01*
X0184061Y0109934D01*
X0183982Y0109925D01*
X0183903Y0109920D01*
X0183823Y0109919D01*
X0183744Y0109922D01*
X0183665Y0109929D01*
X0183586Y0109940D01*
X0183508Y0109955D01*
X0183431Y0109974D01*
X0183354Y0109996D01*
X0183280Y0110023D01*
X0183206Y0110053D01*
X0183134Y0110087D01*
X0183064Y0110124D01*
X0182996Y0110165D01*
X0182930Y0110209D01*
X0182866Y0110257D01*
X0182805Y0110308D01*
X0182746Y0110361D01*
X0182691Y0110418D01*
X0182638Y0110477D01*
X0182588Y0110539D01*
X0182541Y0110603D01*
X0182498Y0110670D01*
X0182458Y0110738D01*
X0182421Y0110809D01*
X0182388Y0110881D01*
X0182359Y0110955D01*
X0182333Y0111030D01*
X0182312Y0111107D01*
X0182294Y0111184D01*
X0182280Y0111262D01*
X0182270Y0111341D01*
X0182264Y0111421D01*
X0182262Y0111500D01*
D11*
X0186032Y0073622D02*
X0186032Y0067126D01*
X0186032Y0073622D02*
X0188985Y0073622D01*
X0187601Y0076181D02*
X0187603Y0076221D01*
X0187609Y0076260D01*
X0187619Y0076299D01*
X0187632Y0076336D01*
X0187650Y0076372D01*
X0187671Y0076406D01*
X0187695Y0076438D01*
X0187722Y0076467D01*
X0187752Y0076494D01*
X0187784Y0076517D01*
X0187819Y0076537D01*
X0187855Y0076553D01*
X0187893Y0076566D01*
X0187932Y0076575D01*
X0187971Y0076580D01*
X0188011Y0076581D01*
X0188051Y0076578D01*
X0188090Y0076571D01*
X0188128Y0076560D01*
X0188166Y0076546D01*
X0188201Y0076527D01*
X0188234Y0076506D01*
X0188266Y0076481D01*
X0188294Y0076453D01*
X0188320Y0076423D01*
X0188342Y0076390D01*
X0188361Y0076355D01*
X0188377Y0076318D01*
X0188389Y0076280D01*
X0188397Y0076241D01*
X0188401Y0076201D01*
X0188401Y0076161D01*
X0188397Y0076121D01*
X0188389Y0076082D01*
X0188377Y0076044D01*
X0188361Y0076007D01*
X0188342Y0075972D01*
X0188320Y0075939D01*
X0188294Y0075909D01*
X0188266Y0075881D01*
X0188234Y0075856D01*
X0188201Y0075835D01*
X0188166Y0075816D01*
X0188128Y0075802D01*
X0188090Y0075791D01*
X0188051Y0075784D01*
X0188011Y0075781D01*
X0187971Y0075782D01*
X0187932Y0075787D01*
X0187893Y0075796D01*
X0187855Y0075809D01*
X0187819Y0075825D01*
X0187784Y0075845D01*
X0187752Y0075868D01*
X0187722Y0075895D01*
X0187695Y0075924D01*
X0187671Y0075956D01*
X0187650Y0075990D01*
X0187632Y0076026D01*
X0187619Y0076063D01*
X0187609Y0076102D01*
X0187603Y0076141D01*
X0187601Y0076181D01*
X0206702Y0073622D02*
X0209654Y0073622D01*
X0209654Y0067126D01*
X0203749Y0056890D02*
X0191938Y0056890D01*
X0209300Y0095276D02*
X0206938Y0097638D01*
X0206938Y0102362D01*
X0209300Y0104724D01*
X0216387Y0104724D02*
X0218252Y0102670D01*
X0218335Y0102577D01*
X0218415Y0102482D01*
X0218493Y0102383D01*
X0218567Y0102283D01*
X0218637Y0102180D01*
X0218705Y0102075D01*
X0218769Y0101968D01*
X0218830Y0101859D01*
X0218887Y0101748D01*
X0218940Y0101635D01*
X0218991Y0101520D01*
X0219037Y0101405D01*
X0219080Y0101287D01*
X0219119Y0101169D01*
X0219154Y0101049D01*
X0219185Y0100928D01*
X0219213Y0100806D01*
X0219236Y0100683D01*
X0219256Y0100560D01*
X0219272Y0100436D01*
X0219284Y0100312D01*
X0219292Y0100187D01*
X0219296Y0100062D01*
X0219296Y0099938D01*
X0219292Y0099813D01*
X0219284Y0099688D01*
X0219272Y0099564D01*
X0219256Y0099440D01*
X0219236Y0099317D01*
X0219213Y0099194D01*
X0219185Y0099072D01*
X0219154Y0098951D01*
X0219119Y0098831D01*
X0219080Y0098713D01*
X0219037Y0098595D01*
X0218991Y0098480D01*
X0218940Y0098365D01*
X0218887Y0098252D01*
X0218830Y0098141D01*
X0218769Y0098032D01*
X0218705Y0097925D01*
X0218637Y0097820D01*
X0218567Y0097717D01*
X0218493Y0097617D01*
X0218415Y0097518D01*
X0218335Y0097423D01*
X0218252Y0097330D01*
X0216387Y0095276D01*
X0214534Y0110000D02*
X0211153Y0110000D01*
X0210053Y0113943D02*
X0210053Y0116057D01*
X0211153Y0120000D02*
X0214534Y0120000D01*
X0207286Y0123287D02*
X0207288Y0123327D01*
X0207294Y0123366D01*
X0207304Y0123405D01*
X0207317Y0123442D01*
X0207335Y0123478D01*
X0207356Y0123512D01*
X0207380Y0123544D01*
X0207407Y0123573D01*
X0207437Y0123600D01*
X0207469Y0123623D01*
X0207504Y0123643D01*
X0207540Y0123659D01*
X0207578Y0123672D01*
X0207617Y0123681D01*
X0207656Y0123686D01*
X0207696Y0123687D01*
X0207736Y0123684D01*
X0207775Y0123677D01*
X0207813Y0123666D01*
X0207851Y0123652D01*
X0207886Y0123633D01*
X0207919Y0123612D01*
X0207951Y0123587D01*
X0207979Y0123559D01*
X0208005Y0123529D01*
X0208027Y0123496D01*
X0208046Y0123461D01*
X0208062Y0123424D01*
X0208074Y0123386D01*
X0208082Y0123347D01*
X0208086Y0123307D01*
X0208086Y0123267D01*
X0208082Y0123227D01*
X0208074Y0123188D01*
X0208062Y0123150D01*
X0208046Y0123113D01*
X0208027Y0123078D01*
X0208005Y0123045D01*
X0207979Y0123015D01*
X0207951Y0122987D01*
X0207919Y0122962D01*
X0207886Y0122941D01*
X0207851Y0122922D01*
X0207813Y0122908D01*
X0207775Y0122897D01*
X0207736Y0122890D01*
X0207696Y0122887D01*
X0207656Y0122888D01*
X0207617Y0122893D01*
X0207578Y0122902D01*
X0207540Y0122915D01*
X0207504Y0122931D01*
X0207469Y0122951D01*
X0207437Y0122974D01*
X0207407Y0123001D01*
X0207380Y0123030D01*
X0207356Y0123062D01*
X0207335Y0123096D01*
X0207317Y0123132D01*
X0207304Y0123169D01*
X0207294Y0123208D01*
X0207288Y0123247D01*
X0207286Y0123287D01*
X0206702Y0125846D02*
X0209654Y0125846D01*
X0209654Y0132343D01*
X0188985Y0125846D02*
X0186032Y0125846D01*
X0186032Y0132343D01*
X0191938Y0142579D02*
X0203749Y0142579D01*
D12*
X0216843Y0108700D03*
D13*
X0216770Y0077829D02*
X0216148Y0077766D01*
X0215551Y0077581D01*
X0215363Y0077492D01*
X0214997Y0077294D01*
X0214824Y0077180D01*
X0214502Y0076914D01*
X0214348Y0076776D01*
X0213950Y0076293D01*
X0213949Y0076293D02*
X0219759Y0076293D01*
X0219782Y0076265D02*
X0219388Y0076750D01*
X0219238Y0076893D01*
X0218917Y0077158D01*
X0218747Y0077278D01*
X0218195Y0077571D01*
X0217598Y0077756D01*
X0217392Y0077784D01*
X0216978Y0077826D01*
X0216770Y0077829D01*
X0216455Y0077797D02*
X0217261Y0077797D01*
X0217623Y0077748D02*
X0216092Y0077748D01*
X0215936Y0077700D02*
X0217779Y0077700D01*
X0217935Y0077651D02*
X0215780Y0077651D01*
X0215623Y0077603D02*
X0218091Y0077603D01*
X0218226Y0077554D02*
X0215496Y0077554D01*
X0215392Y0077506D02*
X0218317Y0077506D01*
X0218409Y0077457D02*
X0215299Y0077457D01*
X0215209Y0077409D02*
X0218500Y0077409D01*
X0218591Y0077360D02*
X0215120Y0077360D01*
X0215031Y0077312D02*
X0218683Y0077312D01*
X0218768Y0077263D02*
X0214951Y0077263D01*
X0214877Y0077215D02*
X0218836Y0077215D01*
X0218905Y0077166D02*
X0214808Y0077166D01*
X0214749Y0077118D02*
X0218966Y0077118D01*
X0219025Y0077069D02*
X0214690Y0077069D01*
X0214631Y0077021D02*
X0219083Y0077021D01*
X0219142Y0076972D02*
X0214573Y0076972D01*
X0214514Y0076924D02*
X0219201Y0076924D01*
X0219257Y0076875D02*
X0214459Y0076875D01*
X0214405Y0076827D02*
X0219308Y0076827D01*
X0219359Y0076778D02*
X0214350Y0076778D01*
X0214310Y0076730D02*
X0219405Y0076730D01*
X0219444Y0076681D02*
X0214270Y0076681D01*
X0214230Y0076633D02*
X0219484Y0076633D01*
X0219523Y0076584D02*
X0214190Y0076584D01*
X0214149Y0076536D02*
X0219562Y0076536D01*
X0219602Y0076487D02*
X0214109Y0076487D01*
X0214069Y0076439D02*
X0219641Y0076439D01*
X0219680Y0076390D02*
X0214029Y0076390D01*
X0213989Y0076342D02*
X0219719Y0076342D01*
X0219782Y0076265D02*
X0220080Y0075715D01*
X0220270Y0075120D01*
X0220308Y0074916D01*
X0220367Y0074294D01*
X0220367Y0062118D01*
X0220256Y0062111D01*
X0214865Y0062111D01*
X0214865Y0062296D01*
X0218865Y0063775D01*
X0218916Y0063798D01*
X0218916Y0065110D01*
X0218833Y0065137D01*
X0216415Y0065890D01*
X0216590Y0065942D01*
X0218780Y0066617D01*
X0218916Y0066665D01*
X0218916Y0067975D01*
X0218781Y0068025D01*
X0214876Y0069448D01*
X0214875Y0069606D01*
X0218717Y0069606D01*
X0218916Y0069605D01*
X0218916Y0070935D01*
X0218867Y0070930D01*
X0214877Y0070930D01*
X0214871Y0071199D01*
X0218831Y0071199D01*
X0218916Y0071202D01*
X0218916Y0072524D01*
X0218708Y0072519D01*
X0218317Y0073284D01*
X0218484Y0073467D01*
X0218816Y0073996D01*
X0218957Y0074817D01*
X0218955Y0075025D01*
X0218951Y0075116D01*
X0217997Y0075116D01*
X0217876Y0075111D01*
X0217868Y0074835D01*
X0217825Y0074631D01*
X0217718Y0074457D01*
X0217578Y0074306D01*
X0217395Y0074208D01*
X0217199Y0074145D01*
X0216993Y0074115D01*
X0216787Y0074119D01*
X0216581Y0074149D01*
X0216389Y0074223D01*
X0216205Y0074321D01*
X0216074Y0074481D01*
X0215978Y0074661D01*
X0215934Y0074865D01*
X0215938Y0075071D01*
X0215946Y0075116D01*
X0214835Y0075116D01*
X0214828Y0074975D01*
X0214840Y0074768D01*
X0214948Y0074152D01*
X0215003Y0073954D01*
X0215340Y0073428D01*
X0215483Y0073283D01*
X0216009Y0072944D01*
X0216206Y0072887D01*
X0216821Y0072778D01*
X0217027Y0072783D01*
X0217642Y0072892D01*
X0217833Y0072964D01*
X0218315Y0073279D01*
X0218704Y0072523D01*
X0215002Y0072523D01*
X0214869Y0072528D01*
X0214871Y0071248D01*
X0213347Y0071248D01*
X0213347Y0071296D02*
X0214871Y0071296D01*
X0214871Y0071248D02*
X0214877Y0070942D01*
X0214869Y0070760D01*
X0214869Y0069718D01*
X0214874Y0069603D01*
X0214869Y0069405D01*
X0214869Y0068154D01*
X0215022Y0068110D01*
X0217421Y0067402D01*
X0217594Y0067343D01*
X0214994Y0066583D01*
X0214869Y0066548D01*
X0214869Y0065276D01*
X0214925Y0065259D01*
X0217587Y0064485D01*
X0217488Y0064447D01*
X0214889Y0063680D01*
X0213347Y0063680D01*
X0213347Y0063632D02*
X0214869Y0063632D01*
X0214869Y0063677D02*
X0214889Y0063680D01*
X0214869Y0063677D02*
X0214869Y0062445D01*
X0214867Y0062347D01*
X0214868Y0062192D01*
X0214869Y0062079D01*
X0214869Y0060781D01*
X0215029Y0060780D01*
X0215237Y0060780D01*
X0215434Y0060778D01*
X0215216Y0060607D01*
X0215086Y0060444D01*
X0214980Y0060265D01*
X0214903Y0060072D01*
X0214854Y0059870D01*
X0214830Y0059663D01*
X0214834Y0059455D01*
X0214853Y0059247D01*
X0214895Y0059044D01*
X0214955Y0058845D01*
X0215046Y0058658D01*
X0215148Y0058476D01*
X0215286Y0058321D01*
X0215433Y0058174D01*
X0215601Y0058051D01*
X0215780Y0057947D01*
X0215970Y0057860D01*
X0216168Y0057797D01*
X0216370Y0057747D01*
X0216576Y0057721D01*
X0216784Y0057705D01*
X0216991Y0057707D01*
X0217199Y0057722D01*
X0217405Y0057752D01*
X0217607Y0057802D01*
X0217805Y0057865D01*
X0217994Y0057951D01*
X0218174Y0058056D01*
X0218343Y0058178D01*
X0218491Y0058323D01*
X0218630Y0058478D01*
X0218734Y0058658D01*
X0218829Y0058843D01*
X0218890Y0059042D01*
X0218937Y0059244D01*
X0218956Y0059452D01*
X0218965Y0059660D01*
X0218944Y0059867D01*
X0218897Y0060069D01*
X0218823Y0060264D01*
X0218717Y0060443D01*
X0218586Y0060605D01*
X0218393Y0060776D01*
X0218548Y0060780D01*
X0220215Y0060780D01*
X0220367Y0060773D01*
X0220366Y0059682D01*
X0220304Y0059060D01*
X0220256Y0058858D01*
X0220133Y0058460D01*
X0220058Y0058266D01*
X0219757Y0057718D01*
X0219359Y0057236D01*
X0218881Y0056834D01*
X0218707Y0056722D01*
X0218340Y0056523D01*
X0218151Y0056438D01*
X0217554Y0056254D01*
X0216932Y0056192D01*
X0216724Y0056198D01*
X0216310Y0056239D01*
X0216104Y0056270D01*
X0215507Y0056455D01*
X0214957Y0056750D01*
X0214788Y0056872D01*
X0214467Y0057137D01*
X0214318Y0057282D01*
X0214053Y0057603D01*
X0213927Y0057768D01*
X0213629Y0058318D01*
X0213441Y0058914D01*
X0213406Y0059118D01*
X0213347Y0059741D01*
X0213347Y0074328D01*
X0213368Y0074535D01*
X0213410Y0074949D01*
X0213455Y0075152D01*
X0213579Y0075550D01*
X0213651Y0075745D01*
X0213950Y0076293D01*
X0213923Y0076245D02*
X0219793Y0076245D01*
X0219819Y0076196D02*
X0213897Y0076196D01*
X0213870Y0076148D02*
X0219845Y0076148D01*
X0219872Y0076099D02*
X0213844Y0076099D01*
X0213817Y0076051D02*
X0219898Y0076051D01*
X0219924Y0076002D02*
X0213791Y0076002D01*
X0213765Y0075954D02*
X0219951Y0075954D01*
X0219977Y0075905D02*
X0213738Y0075905D01*
X0213712Y0075857D02*
X0220003Y0075857D01*
X0220030Y0075808D02*
X0213685Y0075808D01*
X0213659Y0075760D02*
X0220056Y0075760D01*
X0220081Y0075711D02*
X0213638Y0075711D01*
X0213620Y0075662D02*
X0220097Y0075662D01*
X0220112Y0075614D02*
X0213602Y0075614D01*
X0213584Y0075565D02*
X0220128Y0075565D01*
X0220143Y0075517D02*
X0213568Y0075517D01*
X0213553Y0075468D02*
X0220159Y0075468D01*
X0220174Y0075420D02*
X0213538Y0075420D01*
X0213523Y0075371D02*
X0220190Y0075371D01*
X0220205Y0075323D02*
X0213508Y0075323D01*
X0213493Y0075274D02*
X0220221Y0075274D01*
X0220236Y0075226D02*
X0213478Y0075226D01*
X0213463Y0075177D02*
X0220251Y0075177D01*
X0220267Y0075129D02*
X0213450Y0075129D01*
X0213439Y0075080D02*
X0214833Y0075080D01*
X0214831Y0075032D02*
X0213428Y0075032D01*
X0213418Y0074983D02*
X0214829Y0074983D01*
X0214830Y0074935D02*
X0213409Y0074935D01*
X0213404Y0074886D02*
X0214833Y0074886D01*
X0214836Y0074838D02*
X0213399Y0074838D01*
X0213394Y0074789D02*
X0214839Y0074789D01*
X0214845Y0074741D02*
X0213389Y0074741D01*
X0213384Y0074692D02*
X0214854Y0074692D01*
X0214862Y0074644D02*
X0213379Y0074644D01*
X0213374Y0074595D02*
X0214871Y0074595D01*
X0214879Y0074547D02*
X0213370Y0074547D01*
X0213365Y0074498D02*
X0214887Y0074498D01*
X0214896Y0074450D02*
X0213360Y0074450D01*
X0213355Y0074401D02*
X0214904Y0074401D01*
X0214913Y0074353D02*
X0213350Y0074353D01*
X0213347Y0074304D02*
X0214921Y0074304D01*
X0214930Y0074256D02*
X0213347Y0074256D01*
X0213347Y0074207D02*
X0214938Y0074207D01*
X0214947Y0074159D02*
X0213347Y0074159D01*
X0213347Y0074110D02*
X0214959Y0074110D01*
X0214973Y0074062D02*
X0213347Y0074062D01*
X0213347Y0074013D02*
X0214987Y0074013D01*
X0215000Y0073965D02*
X0213347Y0073965D01*
X0213347Y0073916D02*
X0215028Y0073916D01*
X0215059Y0073868D02*
X0213347Y0073868D01*
X0213347Y0073819D02*
X0215090Y0073819D01*
X0215121Y0073771D02*
X0213347Y0073771D01*
X0213347Y0073722D02*
X0215152Y0073722D01*
X0215183Y0073674D02*
X0213347Y0073674D01*
X0213347Y0073625D02*
X0215214Y0073625D01*
X0215245Y0073577D02*
X0213347Y0073577D01*
X0213347Y0073528D02*
X0215276Y0073528D01*
X0215307Y0073479D02*
X0213347Y0073479D01*
X0213347Y0073431D02*
X0215338Y0073431D01*
X0215385Y0073382D02*
X0213347Y0073382D01*
X0213347Y0073334D02*
X0215433Y0073334D01*
X0215481Y0073285D02*
X0213347Y0073285D01*
X0213347Y0073237D02*
X0215554Y0073237D01*
X0215630Y0073188D02*
X0213347Y0073188D01*
X0213347Y0073140D02*
X0215705Y0073140D01*
X0215780Y0073091D02*
X0213347Y0073091D01*
X0213347Y0073043D02*
X0215855Y0073043D01*
X0215930Y0072994D02*
X0213347Y0072994D01*
X0213347Y0072946D02*
X0216005Y0072946D01*
X0216169Y0072897D02*
X0213347Y0072897D01*
X0213347Y0072849D02*
X0216421Y0072849D01*
X0216697Y0072800D02*
X0213347Y0072800D01*
X0213347Y0072752D02*
X0218587Y0072752D01*
X0218589Y0072752D02*
X0220367Y0072752D01*
X0220367Y0072800D02*
X0218565Y0072800D01*
X0218562Y0072800D02*
X0217125Y0072800D01*
X0217398Y0072849D02*
X0218537Y0072849D01*
X0218540Y0072849D02*
X0220367Y0072849D01*
X0220367Y0072897D02*
X0218515Y0072897D01*
X0218512Y0072897D02*
X0217656Y0072897D01*
X0217785Y0072946D02*
X0218487Y0072946D01*
X0218490Y0072946D02*
X0220367Y0072946D01*
X0220367Y0072994D02*
X0218465Y0072994D01*
X0218462Y0072994D02*
X0217879Y0072994D01*
X0217954Y0073043D02*
X0218437Y0073043D01*
X0218441Y0073043D02*
X0220367Y0073043D01*
X0220367Y0073091D02*
X0218416Y0073091D01*
X0218412Y0073091D02*
X0218028Y0073091D01*
X0218102Y0073140D02*
X0218387Y0073140D01*
X0218391Y0073140D02*
X0220367Y0073140D01*
X0220367Y0073188D02*
X0218366Y0073188D01*
X0218362Y0073188D02*
X0218177Y0073188D01*
X0218251Y0073237D02*
X0218337Y0073237D01*
X0218341Y0073237D02*
X0220367Y0073237D01*
X0220367Y0073285D02*
X0218318Y0073285D01*
X0218362Y0073334D02*
X0220367Y0073334D01*
X0220367Y0073382D02*
X0218407Y0073382D01*
X0218451Y0073431D02*
X0220367Y0073431D01*
X0220367Y0073479D02*
X0218492Y0073479D01*
X0218522Y0073528D02*
X0220367Y0073528D01*
X0220367Y0073577D02*
X0218553Y0073577D01*
X0218583Y0073625D02*
X0220367Y0073625D01*
X0220367Y0073674D02*
X0218613Y0073674D01*
X0218644Y0073722D02*
X0220367Y0073722D01*
X0220367Y0073771D02*
X0218674Y0073771D01*
X0218705Y0073819D02*
X0220367Y0073819D01*
X0220367Y0073868D02*
X0218735Y0073868D01*
X0218766Y0073916D02*
X0220367Y0073916D01*
X0220367Y0073965D02*
X0218796Y0073965D01*
X0218819Y0074013D02*
X0220367Y0074013D01*
X0220367Y0074062D02*
X0218827Y0074062D01*
X0218835Y0074110D02*
X0220367Y0074110D01*
X0220367Y0074159D02*
X0218844Y0074159D01*
X0218852Y0074207D02*
X0220367Y0074207D01*
X0220367Y0074256D02*
X0218861Y0074256D01*
X0218869Y0074304D02*
X0220366Y0074304D01*
X0220362Y0074353D02*
X0218877Y0074353D01*
X0218886Y0074401D02*
X0220357Y0074401D01*
X0220353Y0074450D02*
X0218894Y0074450D01*
X0218902Y0074498D02*
X0220348Y0074498D01*
X0220343Y0074547D02*
X0218911Y0074547D01*
X0218919Y0074595D02*
X0220339Y0074595D01*
X0220334Y0074644D02*
X0218927Y0074644D01*
X0218936Y0074692D02*
X0220329Y0074692D01*
X0220325Y0074741D02*
X0218944Y0074741D01*
X0218952Y0074789D02*
X0220320Y0074789D01*
X0220316Y0074838D02*
X0218957Y0074838D01*
X0218956Y0074886D02*
X0220311Y0074886D01*
X0220305Y0074935D02*
X0218956Y0074935D01*
X0218955Y0074983D02*
X0220295Y0074983D01*
X0220286Y0075032D02*
X0218954Y0075032D01*
X0218952Y0075080D02*
X0220277Y0075080D01*
X0220367Y0072703D02*
X0218614Y0072703D01*
X0218612Y0072703D02*
X0213347Y0072703D01*
X0213347Y0072655D02*
X0218636Y0072655D01*
X0218639Y0072655D02*
X0220367Y0072655D01*
X0220367Y0072606D02*
X0218664Y0072606D01*
X0218661Y0072606D02*
X0213347Y0072606D01*
X0213347Y0072558D02*
X0218686Y0072558D01*
X0218689Y0072558D02*
X0220367Y0072558D01*
X0220367Y0072509D02*
X0218916Y0072509D01*
X0218916Y0072461D02*
X0220367Y0072461D01*
X0220367Y0072412D02*
X0218916Y0072412D01*
X0218916Y0072364D02*
X0220367Y0072364D01*
X0220367Y0072315D02*
X0218916Y0072315D01*
X0218916Y0072267D02*
X0220367Y0072267D01*
X0220367Y0072218D02*
X0218916Y0072218D01*
X0218916Y0072170D02*
X0220367Y0072170D01*
X0220367Y0072121D02*
X0218916Y0072121D01*
X0218916Y0072073D02*
X0220367Y0072073D01*
X0220367Y0072024D02*
X0218916Y0072024D01*
X0218916Y0071976D02*
X0220367Y0071976D01*
X0220367Y0071927D02*
X0218916Y0071927D01*
X0218916Y0071879D02*
X0220367Y0071879D01*
X0220367Y0071830D02*
X0218916Y0071830D01*
X0218916Y0071782D02*
X0220367Y0071782D01*
X0220367Y0071733D02*
X0218916Y0071733D01*
X0218916Y0071685D02*
X0220367Y0071685D01*
X0220367Y0071636D02*
X0218916Y0071636D01*
X0218916Y0071588D02*
X0220367Y0071588D01*
X0220367Y0071539D02*
X0218916Y0071539D01*
X0218916Y0071491D02*
X0220367Y0071491D01*
X0220367Y0071442D02*
X0218916Y0071442D01*
X0218916Y0071393D02*
X0220367Y0071393D01*
X0220367Y0071345D02*
X0218916Y0071345D01*
X0218916Y0071296D02*
X0220367Y0071296D01*
X0220367Y0071248D02*
X0218916Y0071248D01*
X0218836Y0071199D02*
X0220367Y0071199D01*
X0220367Y0071151D02*
X0214873Y0071151D01*
X0214872Y0071151D02*
X0213347Y0071151D01*
X0213347Y0071199D02*
X0214872Y0071199D01*
X0214873Y0071102D02*
X0213347Y0071102D01*
X0213347Y0071054D02*
X0214874Y0071054D01*
X0214875Y0071054D02*
X0220367Y0071054D01*
X0220367Y0071102D02*
X0214874Y0071102D01*
X0214875Y0071005D02*
X0213347Y0071005D01*
X0213347Y0070957D02*
X0214876Y0070957D01*
X0214877Y0070957D02*
X0220367Y0070957D01*
X0220367Y0071005D02*
X0214876Y0071005D01*
X0214876Y0070908D02*
X0213347Y0070908D01*
X0213347Y0070860D02*
X0214874Y0070860D01*
X0214872Y0070811D02*
X0213347Y0070811D01*
X0213347Y0070763D02*
X0214870Y0070763D01*
X0214869Y0070714D02*
X0213347Y0070714D01*
X0213347Y0070666D02*
X0214869Y0070666D01*
X0214869Y0070617D02*
X0213347Y0070617D01*
X0213347Y0070569D02*
X0214869Y0070569D01*
X0214869Y0070520D02*
X0213347Y0070520D01*
X0213347Y0070472D02*
X0214869Y0070472D01*
X0214869Y0070423D02*
X0213347Y0070423D01*
X0213347Y0070375D02*
X0214869Y0070375D01*
X0214869Y0070326D02*
X0213347Y0070326D01*
X0213347Y0070278D02*
X0214869Y0070278D01*
X0214869Y0070229D02*
X0213347Y0070229D01*
X0213347Y0070181D02*
X0214869Y0070181D01*
X0214869Y0070132D02*
X0213347Y0070132D01*
X0213347Y0070084D02*
X0214869Y0070084D01*
X0214869Y0070035D02*
X0213347Y0070035D01*
X0213347Y0069987D02*
X0214869Y0069987D01*
X0214869Y0069938D02*
X0213347Y0069938D01*
X0213347Y0069890D02*
X0214869Y0069890D01*
X0214869Y0069841D02*
X0213347Y0069841D01*
X0213347Y0069793D02*
X0214869Y0069793D01*
X0214869Y0069744D02*
X0213347Y0069744D01*
X0213347Y0069696D02*
X0214870Y0069696D01*
X0214872Y0069647D02*
X0213347Y0069647D01*
X0213347Y0069599D02*
X0214874Y0069599D01*
X0214875Y0069599D02*
X0220367Y0069599D01*
X0220367Y0069647D02*
X0218916Y0069647D01*
X0218916Y0069696D02*
X0220367Y0069696D01*
X0220367Y0069744D02*
X0218916Y0069744D01*
X0218916Y0069793D02*
X0220367Y0069793D01*
X0220367Y0069841D02*
X0218916Y0069841D01*
X0218916Y0069890D02*
X0220367Y0069890D01*
X0220367Y0069938D02*
X0218916Y0069938D01*
X0218916Y0069987D02*
X0220367Y0069987D01*
X0220367Y0070035D02*
X0218916Y0070035D01*
X0218916Y0070084D02*
X0220367Y0070084D01*
X0220367Y0070132D02*
X0218916Y0070132D01*
X0218916Y0070181D02*
X0220367Y0070181D01*
X0220367Y0070229D02*
X0218916Y0070229D01*
X0218916Y0070278D02*
X0220367Y0070278D01*
X0220367Y0070326D02*
X0218916Y0070326D01*
X0218916Y0070375D02*
X0220367Y0070375D01*
X0220367Y0070423D02*
X0218916Y0070423D01*
X0218916Y0070472D02*
X0220367Y0070472D01*
X0220367Y0070520D02*
X0218916Y0070520D01*
X0218916Y0070569D02*
X0220367Y0070569D01*
X0220367Y0070617D02*
X0218916Y0070617D01*
X0218916Y0070666D02*
X0220367Y0070666D01*
X0220367Y0070714D02*
X0218916Y0070714D01*
X0218916Y0070763D02*
X0220367Y0070763D01*
X0220367Y0070811D02*
X0218916Y0070811D01*
X0218916Y0070860D02*
X0220367Y0070860D01*
X0220367Y0070908D02*
X0218916Y0070908D01*
X0220367Y0069550D02*
X0214875Y0069550D01*
X0214873Y0069550D02*
X0213347Y0069550D01*
X0213347Y0069502D02*
X0214872Y0069502D01*
X0214876Y0069502D02*
X0220367Y0069502D01*
X0220367Y0069453D02*
X0214876Y0069453D01*
X0214871Y0069453D02*
X0213347Y0069453D01*
X0213347Y0069405D02*
X0214869Y0069405D01*
X0214869Y0069356D02*
X0213347Y0069356D01*
X0213347Y0069308D02*
X0214869Y0069308D01*
X0214869Y0069259D02*
X0213347Y0069259D01*
X0213347Y0069210D02*
X0214869Y0069210D01*
X0214869Y0069162D02*
X0213347Y0069162D01*
X0213347Y0069113D02*
X0214869Y0069113D01*
X0214869Y0069065D02*
X0213347Y0069065D01*
X0213347Y0069016D02*
X0214869Y0069016D01*
X0214869Y0068968D02*
X0213347Y0068968D01*
X0213347Y0068919D02*
X0214869Y0068919D01*
X0214869Y0068871D02*
X0213347Y0068871D01*
X0213347Y0068822D02*
X0214869Y0068822D01*
X0214869Y0068774D02*
X0213347Y0068774D01*
X0213347Y0068725D02*
X0214869Y0068725D01*
X0214869Y0068677D02*
X0213347Y0068677D01*
X0213347Y0068628D02*
X0214869Y0068628D01*
X0214869Y0068580D02*
X0213347Y0068580D01*
X0213347Y0068531D02*
X0214869Y0068531D01*
X0214869Y0068483D02*
X0213347Y0068483D01*
X0213347Y0068434D02*
X0214869Y0068434D01*
X0214869Y0068386D02*
X0213347Y0068386D01*
X0213347Y0068337D02*
X0214869Y0068337D01*
X0214869Y0068289D02*
X0213347Y0068289D01*
X0213347Y0068240D02*
X0214869Y0068240D01*
X0214869Y0068192D02*
X0213347Y0068192D01*
X0213347Y0068143D02*
X0214907Y0068143D01*
X0215074Y0068095D02*
X0213347Y0068095D01*
X0213347Y0068046D02*
X0215238Y0068046D01*
X0215403Y0067998D02*
X0213347Y0067998D01*
X0213347Y0067949D02*
X0215567Y0067949D01*
X0215732Y0067901D02*
X0213347Y0067901D01*
X0213347Y0067852D02*
X0215896Y0067852D01*
X0216060Y0067804D02*
X0213347Y0067804D01*
X0213347Y0067755D02*
X0216225Y0067755D01*
X0216389Y0067707D02*
X0213347Y0067707D01*
X0213347Y0067658D02*
X0216554Y0067658D01*
X0216718Y0067610D02*
X0213347Y0067610D01*
X0213347Y0067561D02*
X0216882Y0067561D01*
X0217047Y0067513D02*
X0213347Y0067513D01*
X0213347Y0067464D02*
X0217211Y0067464D01*
X0217376Y0067416D02*
X0213347Y0067416D01*
X0213347Y0067367D02*
X0217524Y0067367D01*
X0217509Y0067319D02*
X0213347Y0067319D01*
X0213347Y0067270D02*
X0217343Y0067270D01*
X0217177Y0067222D02*
X0213347Y0067222D01*
X0213347Y0067173D02*
X0217011Y0067173D01*
X0216845Y0067124D02*
X0213347Y0067124D01*
X0213347Y0067076D02*
X0216680Y0067076D01*
X0216514Y0067027D02*
X0213347Y0067027D01*
X0213347Y0066979D02*
X0216348Y0066979D01*
X0216182Y0066930D02*
X0213347Y0066930D01*
X0213347Y0066882D02*
X0216016Y0066882D01*
X0215850Y0066833D02*
X0213347Y0066833D01*
X0213347Y0066785D02*
X0215684Y0066785D01*
X0215518Y0066736D02*
X0213347Y0066736D01*
X0213347Y0066688D02*
X0215352Y0066688D01*
X0215186Y0066639D02*
X0213347Y0066639D01*
X0213347Y0066591D02*
X0215020Y0066591D01*
X0214869Y0066542D02*
X0213347Y0066542D01*
X0213347Y0066494D02*
X0214869Y0066494D01*
X0214869Y0066445D02*
X0213347Y0066445D01*
X0213347Y0066397D02*
X0214869Y0066397D01*
X0214869Y0066348D02*
X0213347Y0066348D01*
X0213347Y0066300D02*
X0214869Y0066300D01*
X0214869Y0066251D02*
X0213347Y0066251D01*
X0213347Y0066203D02*
X0214869Y0066203D01*
X0214869Y0066154D02*
X0213347Y0066154D01*
X0213347Y0066106D02*
X0214869Y0066106D01*
X0214869Y0066057D02*
X0213347Y0066057D01*
X0213347Y0066009D02*
X0214869Y0066009D01*
X0214869Y0065960D02*
X0213347Y0065960D01*
X0213347Y0065912D02*
X0214869Y0065912D01*
X0214869Y0065863D02*
X0213347Y0065863D01*
X0213347Y0065815D02*
X0214869Y0065815D01*
X0214869Y0065766D02*
X0213347Y0065766D01*
X0213347Y0065718D02*
X0214869Y0065718D01*
X0214869Y0065669D02*
X0213347Y0065669D01*
X0213347Y0065621D02*
X0214869Y0065621D01*
X0214869Y0065572D02*
X0213347Y0065572D01*
X0213347Y0065524D02*
X0214869Y0065524D01*
X0214869Y0065475D02*
X0213347Y0065475D01*
X0213347Y0065427D02*
X0214869Y0065427D01*
X0214869Y0065378D02*
X0213347Y0065378D01*
X0213347Y0065330D02*
X0214869Y0065330D01*
X0214869Y0065281D02*
X0213347Y0065281D01*
X0213347Y0065233D02*
X0215016Y0065233D01*
X0215183Y0065184D02*
X0213347Y0065184D01*
X0213347Y0065136D02*
X0215350Y0065136D01*
X0215517Y0065087D02*
X0213347Y0065087D01*
X0213347Y0065039D02*
X0215684Y0065039D01*
X0215851Y0064990D02*
X0213347Y0064990D01*
X0213347Y0064941D02*
X0216018Y0064941D01*
X0216185Y0064893D02*
X0213347Y0064893D01*
X0213347Y0064844D02*
X0216352Y0064844D01*
X0216519Y0064796D02*
X0213347Y0064796D01*
X0213347Y0064747D02*
X0216686Y0064747D01*
X0216852Y0064699D02*
X0213347Y0064699D01*
X0213347Y0064650D02*
X0217019Y0064650D01*
X0217186Y0064602D02*
X0213347Y0064602D01*
X0213347Y0064553D02*
X0217353Y0064553D01*
X0217355Y0064408D02*
X0213347Y0064408D01*
X0213347Y0064456D02*
X0217512Y0064456D01*
X0217520Y0064505D02*
X0213347Y0064505D01*
X0213347Y0064359D02*
X0217191Y0064359D01*
X0217026Y0064311D02*
X0213347Y0064311D01*
X0213347Y0064262D02*
X0216862Y0064262D01*
X0216698Y0064214D02*
X0213347Y0064214D01*
X0213347Y0064165D02*
X0216533Y0064165D01*
X0216369Y0064117D02*
X0213347Y0064117D01*
X0213347Y0064068D02*
X0216204Y0064068D01*
X0216040Y0064020D02*
X0213347Y0064020D01*
X0213347Y0063971D02*
X0215876Y0063971D01*
X0215711Y0063923D02*
X0213347Y0063923D01*
X0213347Y0063874D02*
X0215547Y0063874D01*
X0215382Y0063826D02*
X0213347Y0063826D01*
X0213347Y0063777D02*
X0215218Y0063777D01*
X0215054Y0063729D02*
X0213347Y0063729D01*
X0213347Y0063583D02*
X0214869Y0063583D01*
X0214869Y0063535D02*
X0213347Y0063535D01*
X0213347Y0063486D02*
X0214869Y0063486D01*
X0214869Y0063438D02*
X0213347Y0063438D01*
X0213347Y0063389D02*
X0214869Y0063389D01*
X0214869Y0063341D02*
X0213347Y0063341D01*
X0213347Y0063292D02*
X0214869Y0063292D01*
X0214869Y0063244D02*
X0213347Y0063244D01*
X0213347Y0063195D02*
X0214869Y0063195D01*
X0214869Y0063147D02*
X0213347Y0063147D01*
X0213347Y0063098D02*
X0214869Y0063098D01*
X0214869Y0063050D02*
X0213347Y0063050D01*
X0213347Y0063001D02*
X0214869Y0063001D01*
X0214869Y0062953D02*
X0213347Y0062953D01*
X0213347Y0062904D02*
X0214869Y0062904D01*
X0214869Y0062855D02*
X0213347Y0062855D01*
X0213347Y0062807D02*
X0214869Y0062807D01*
X0214869Y0062758D02*
X0213347Y0062758D01*
X0213347Y0062710D02*
X0214869Y0062710D01*
X0214869Y0062661D02*
X0213347Y0062661D01*
X0213347Y0062613D02*
X0214869Y0062613D01*
X0214869Y0062564D02*
X0213347Y0062564D01*
X0213347Y0062516D02*
X0214869Y0062516D01*
X0214869Y0062467D02*
X0213347Y0062467D01*
X0213347Y0062419D02*
X0214869Y0062419D01*
X0214868Y0062370D02*
X0213347Y0062370D01*
X0213347Y0062322D02*
X0214867Y0062322D01*
X0214867Y0062273D02*
X0220367Y0062273D01*
X0220367Y0062225D02*
X0214867Y0062225D01*
X0214865Y0062225D02*
X0213347Y0062225D01*
X0213347Y0062273D02*
X0214865Y0062273D01*
X0214934Y0062322D02*
X0220367Y0062322D01*
X0220367Y0062370D02*
X0215066Y0062370D01*
X0215197Y0062419D02*
X0220367Y0062419D01*
X0220367Y0062467D02*
X0215328Y0062467D01*
X0215459Y0062516D02*
X0220367Y0062516D01*
X0220367Y0062564D02*
X0215590Y0062564D01*
X0215722Y0062613D02*
X0220367Y0062613D01*
X0220367Y0062661D02*
X0215853Y0062661D01*
X0215984Y0062710D02*
X0220367Y0062710D01*
X0220367Y0062758D02*
X0216115Y0062758D01*
X0216246Y0062807D02*
X0220367Y0062807D01*
X0220367Y0062855D02*
X0216377Y0062855D01*
X0216509Y0062904D02*
X0220367Y0062904D01*
X0220367Y0062953D02*
X0216640Y0062953D01*
X0216771Y0063001D02*
X0220367Y0063001D01*
X0220367Y0063050D02*
X0216902Y0063050D01*
X0217033Y0063098D02*
X0220367Y0063098D01*
X0220367Y0063147D02*
X0217164Y0063147D01*
X0217296Y0063195D02*
X0220367Y0063195D01*
X0220367Y0063244D02*
X0217427Y0063244D01*
X0217558Y0063292D02*
X0220367Y0063292D01*
X0220367Y0063341D02*
X0217689Y0063341D01*
X0217820Y0063389D02*
X0220367Y0063389D01*
X0220367Y0063438D02*
X0217952Y0063438D01*
X0218083Y0063486D02*
X0220367Y0063486D01*
X0220367Y0063535D02*
X0218214Y0063535D01*
X0218345Y0063583D02*
X0220367Y0063583D01*
X0220367Y0063632D02*
X0218476Y0063632D01*
X0218607Y0063680D02*
X0220367Y0063680D01*
X0220367Y0063729D02*
X0218739Y0063729D01*
X0218869Y0063777D02*
X0220367Y0063777D01*
X0220367Y0063826D02*
X0218916Y0063826D01*
X0218916Y0063874D02*
X0220367Y0063874D01*
X0220367Y0063923D02*
X0218916Y0063923D01*
X0218916Y0063971D02*
X0220367Y0063971D01*
X0220367Y0064020D02*
X0218916Y0064020D01*
X0218916Y0064068D02*
X0220367Y0064068D01*
X0220367Y0064117D02*
X0218916Y0064117D01*
X0218916Y0064165D02*
X0220367Y0064165D01*
X0220367Y0064214D02*
X0218916Y0064214D01*
X0218916Y0064262D02*
X0220367Y0064262D01*
X0220367Y0064311D02*
X0218916Y0064311D01*
X0218916Y0064359D02*
X0220367Y0064359D01*
X0220367Y0064408D02*
X0218916Y0064408D01*
X0218916Y0064456D02*
X0220367Y0064456D01*
X0220367Y0064505D02*
X0218916Y0064505D01*
X0218916Y0064553D02*
X0220367Y0064553D01*
X0220367Y0064602D02*
X0218916Y0064602D01*
X0218916Y0064650D02*
X0220367Y0064650D01*
X0220367Y0064699D02*
X0218916Y0064699D01*
X0218916Y0064747D02*
X0220367Y0064747D01*
X0220367Y0064796D02*
X0218916Y0064796D01*
X0218916Y0064844D02*
X0220367Y0064844D01*
X0220367Y0064893D02*
X0218916Y0064893D01*
X0218916Y0064941D02*
X0220367Y0064941D01*
X0220367Y0064990D02*
X0218916Y0064990D01*
X0218916Y0065039D02*
X0220367Y0065039D01*
X0220367Y0065087D02*
X0218916Y0065087D01*
X0218836Y0065136D02*
X0220367Y0065136D01*
X0220367Y0065184D02*
X0218681Y0065184D01*
X0218525Y0065233D02*
X0220367Y0065233D01*
X0220367Y0065281D02*
X0218369Y0065281D01*
X0218214Y0065330D02*
X0220367Y0065330D01*
X0220367Y0065378D02*
X0218058Y0065378D01*
X0217902Y0065427D02*
X0220367Y0065427D01*
X0220367Y0065475D02*
X0217747Y0065475D01*
X0217591Y0065524D02*
X0220367Y0065524D01*
X0220367Y0065572D02*
X0217435Y0065572D01*
X0217280Y0065621D02*
X0220367Y0065621D01*
X0220367Y0065669D02*
X0217124Y0065669D01*
X0216968Y0065718D02*
X0220367Y0065718D01*
X0220367Y0065766D02*
X0216813Y0065766D01*
X0216657Y0065815D02*
X0220367Y0065815D01*
X0220367Y0065863D02*
X0216501Y0065863D01*
X0216489Y0065912D02*
X0220367Y0065912D01*
X0220367Y0065960D02*
X0216650Y0065960D01*
X0216808Y0066009D02*
X0220367Y0066009D01*
X0220367Y0066057D02*
X0216965Y0066057D01*
X0217122Y0066106D02*
X0220367Y0066106D01*
X0220367Y0066154D02*
X0217279Y0066154D01*
X0217437Y0066203D02*
X0220367Y0066203D01*
X0220367Y0066251D02*
X0217594Y0066251D01*
X0217751Y0066300D02*
X0220367Y0066300D01*
X0220367Y0066348D02*
X0217909Y0066348D01*
X0218066Y0066397D02*
X0220367Y0066397D01*
X0220367Y0066445D02*
X0218223Y0066445D01*
X0218381Y0066494D02*
X0220367Y0066494D01*
X0220367Y0066542D02*
X0218538Y0066542D01*
X0218695Y0066591D02*
X0220367Y0066591D01*
X0220367Y0066639D02*
X0218844Y0066639D01*
X0218916Y0066688D02*
X0220367Y0066688D01*
X0220367Y0066736D02*
X0218916Y0066736D01*
X0218916Y0066785D02*
X0220367Y0066785D01*
X0220367Y0066833D02*
X0218916Y0066833D01*
X0218916Y0066882D02*
X0220367Y0066882D01*
X0220367Y0066930D02*
X0218916Y0066930D01*
X0218916Y0066979D02*
X0220367Y0066979D01*
X0220367Y0067027D02*
X0218916Y0067027D01*
X0218916Y0067076D02*
X0220367Y0067076D01*
X0220367Y0067124D02*
X0218916Y0067124D01*
X0218916Y0067173D02*
X0220367Y0067173D01*
X0220367Y0067222D02*
X0218916Y0067222D01*
X0218916Y0067270D02*
X0220367Y0067270D01*
X0220367Y0067319D02*
X0218916Y0067319D01*
X0218916Y0067367D02*
X0220367Y0067367D01*
X0220367Y0067416D02*
X0218916Y0067416D01*
X0218916Y0067464D02*
X0220367Y0067464D01*
X0220367Y0067513D02*
X0218916Y0067513D01*
X0218916Y0067561D02*
X0220367Y0067561D01*
X0220367Y0067610D02*
X0218916Y0067610D01*
X0218916Y0067658D02*
X0220367Y0067658D01*
X0220367Y0067707D02*
X0218916Y0067707D01*
X0218916Y0067755D02*
X0220367Y0067755D01*
X0220367Y0067804D02*
X0218916Y0067804D01*
X0218916Y0067852D02*
X0220367Y0067852D01*
X0220367Y0067901D02*
X0218916Y0067901D01*
X0218916Y0067949D02*
X0220367Y0067949D01*
X0220367Y0067998D02*
X0218855Y0067998D01*
X0218723Y0068046D02*
X0220367Y0068046D01*
X0220367Y0068095D02*
X0218590Y0068095D01*
X0218457Y0068143D02*
X0220367Y0068143D01*
X0220367Y0068192D02*
X0218323Y0068192D01*
X0218190Y0068240D02*
X0220367Y0068240D01*
X0220367Y0068289D02*
X0218057Y0068289D01*
X0217924Y0068337D02*
X0220367Y0068337D01*
X0220367Y0068386D02*
X0217791Y0068386D01*
X0217658Y0068434D02*
X0220367Y0068434D01*
X0220367Y0068483D02*
X0217524Y0068483D01*
X0217391Y0068531D02*
X0220367Y0068531D01*
X0220367Y0068580D02*
X0217258Y0068580D01*
X0217125Y0068628D02*
X0220367Y0068628D01*
X0220367Y0068677D02*
X0216992Y0068677D01*
X0216858Y0068725D02*
X0220367Y0068725D01*
X0220367Y0068774D02*
X0216725Y0068774D01*
X0216592Y0068822D02*
X0220367Y0068822D01*
X0220367Y0068871D02*
X0216459Y0068871D01*
X0216326Y0068919D02*
X0220367Y0068919D01*
X0220367Y0068968D02*
X0216192Y0068968D01*
X0216059Y0069016D02*
X0220367Y0069016D01*
X0220367Y0069065D02*
X0215926Y0069065D01*
X0215793Y0069113D02*
X0220367Y0069113D01*
X0220367Y0069162D02*
X0215660Y0069162D01*
X0215527Y0069210D02*
X0220367Y0069210D01*
X0220367Y0069259D02*
X0215393Y0069259D01*
X0215260Y0069308D02*
X0220367Y0069308D01*
X0220367Y0069356D02*
X0215127Y0069356D01*
X0214994Y0069405D02*
X0220367Y0069405D01*
X0214871Y0071345D02*
X0213347Y0071345D01*
X0213347Y0071393D02*
X0214871Y0071393D01*
X0214871Y0071442D02*
X0213347Y0071442D01*
X0213347Y0071491D02*
X0214871Y0071491D01*
X0214871Y0071539D02*
X0213347Y0071539D01*
X0213347Y0071588D02*
X0214871Y0071588D01*
X0214871Y0071636D02*
X0213347Y0071636D01*
X0213347Y0071685D02*
X0214871Y0071685D01*
X0214871Y0071733D02*
X0213347Y0071733D01*
X0213347Y0071782D02*
X0214871Y0071782D01*
X0214870Y0071830D02*
X0213347Y0071830D01*
X0213347Y0071879D02*
X0214870Y0071879D01*
X0214870Y0071927D02*
X0213347Y0071927D01*
X0213347Y0071976D02*
X0214870Y0071976D01*
X0214870Y0072024D02*
X0213347Y0072024D01*
X0213347Y0072073D02*
X0214870Y0072073D01*
X0214870Y0072121D02*
X0213347Y0072121D01*
X0213347Y0072170D02*
X0214870Y0072170D01*
X0214870Y0072218D02*
X0213347Y0072218D01*
X0213347Y0072267D02*
X0214870Y0072267D01*
X0214870Y0072315D02*
X0213347Y0072315D01*
X0213347Y0072364D02*
X0214870Y0072364D01*
X0214870Y0072412D02*
X0213347Y0072412D01*
X0213347Y0072461D02*
X0214870Y0072461D01*
X0214870Y0072509D02*
X0213347Y0072509D01*
X0216065Y0074498D02*
X0217743Y0074498D01*
X0217773Y0074547D02*
X0216039Y0074547D01*
X0216013Y0074595D02*
X0217803Y0074595D01*
X0217827Y0074644D02*
X0215987Y0074644D01*
X0215971Y0074692D02*
X0217838Y0074692D01*
X0217848Y0074741D02*
X0215961Y0074741D01*
X0215950Y0074789D02*
X0217859Y0074789D01*
X0217868Y0074838D02*
X0215940Y0074838D01*
X0215934Y0074886D02*
X0217870Y0074886D01*
X0217871Y0074935D02*
X0215935Y0074935D01*
X0215936Y0074983D02*
X0217872Y0074983D01*
X0217874Y0075032D02*
X0215937Y0075032D01*
X0215940Y0075080D02*
X0217875Y0075080D01*
X0217711Y0074450D02*
X0216100Y0074450D01*
X0216139Y0074401D02*
X0217666Y0074401D01*
X0217621Y0074353D02*
X0216179Y0074353D01*
X0216236Y0074304D02*
X0217575Y0074304D01*
X0217485Y0074256D02*
X0216327Y0074256D01*
X0216429Y0074207D02*
X0217393Y0074207D01*
X0217243Y0074159D02*
X0216556Y0074159D01*
X0214868Y0062176D02*
X0220367Y0062176D01*
X0220367Y0062128D02*
X0214869Y0062128D01*
X0214865Y0062128D02*
X0213347Y0062128D01*
X0213347Y0062176D02*
X0214865Y0062176D01*
X0214869Y0062079D02*
X0213347Y0062079D01*
X0213347Y0062031D02*
X0214869Y0062031D01*
X0214869Y0061982D02*
X0213347Y0061982D01*
X0213347Y0061934D02*
X0214869Y0061934D01*
X0214869Y0061885D02*
X0213347Y0061885D01*
X0213347Y0061837D02*
X0214869Y0061837D01*
X0214869Y0061788D02*
X0213347Y0061788D01*
X0213347Y0061740D02*
X0214869Y0061740D01*
X0214869Y0061691D02*
X0213347Y0061691D01*
X0213347Y0061643D02*
X0214869Y0061643D01*
X0214869Y0061594D02*
X0213347Y0061594D01*
X0213347Y0061546D02*
X0214869Y0061546D01*
X0214869Y0061497D02*
X0213347Y0061497D01*
X0213347Y0061449D02*
X0214869Y0061449D01*
X0214869Y0061400D02*
X0213347Y0061400D01*
X0213347Y0061352D02*
X0214869Y0061352D01*
X0214869Y0061303D02*
X0213347Y0061303D01*
X0213347Y0061255D02*
X0214869Y0061255D01*
X0214869Y0061206D02*
X0213347Y0061206D01*
X0213347Y0061158D02*
X0214869Y0061158D01*
X0214869Y0061109D02*
X0213347Y0061109D01*
X0213347Y0061061D02*
X0214869Y0061061D01*
X0214869Y0061012D02*
X0213347Y0061012D01*
X0213347Y0060964D02*
X0214869Y0060964D01*
X0214869Y0060915D02*
X0213347Y0060915D01*
X0213347Y0060867D02*
X0214869Y0060867D01*
X0214869Y0060818D02*
X0213347Y0060818D01*
X0213347Y0060770D02*
X0215423Y0060770D01*
X0215361Y0060721D02*
X0213347Y0060721D01*
X0213347Y0060672D02*
X0215299Y0060672D01*
X0215237Y0060624D02*
X0213347Y0060624D01*
X0213347Y0060575D02*
X0215191Y0060575D01*
X0215152Y0060527D02*
X0213347Y0060527D01*
X0213347Y0060478D02*
X0215113Y0060478D01*
X0215077Y0060430D02*
X0213347Y0060430D01*
X0213347Y0060381D02*
X0215049Y0060381D01*
X0215020Y0060333D02*
X0213347Y0060333D01*
X0213347Y0060284D02*
X0214991Y0060284D01*
X0214969Y0060236D02*
X0213347Y0060236D01*
X0213347Y0060187D02*
X0214949Y0060187D01*
X0214930Y0060139D02*
X0213347Y0060139D01*
X0213347Y0060090D02*
X0214911Y0060090D01*
X0214896Y0060042D02*
X0213347Y0060042D01*
X0213347Y0059993D02*
X0214884Y0059993D01*
X0214873Y0059945D02*
X0213347Y0059945D01*
X0213347Y0059896D02*
X0214861Y0059896D01*
X0214852Y0059848D02*
X0213347Y0059848D01*
X0213347Y0059799D02*
X0214846Y0059799D01*
X0214840Y0059751D02*
X0213347Y0059751D01*
X0213351Y0059702D02*
X0214835Y0059702D01*
X0214830Y0059654D02*
X0213356Y0059654D01*
X0213360Y0059605D02*
X0214831Y0059605D01*
X0214832Y0059557D02*
X0213365Y0059557D01*
X0213369Y0059508D02*
X0214833Y0059508D01*
X0214834Y0059460D02*
X0213374Y0059460D01*
X0213378Y0059411D02*
X0214838Y0059411D01*
X0214842Y0059363D02*
X0213383Y0059363D01*
X0213387Y0059314D02*
X0214847Y0059314D01*
X0214852Y0059266D02*
X0213392Y0059266D01*
X0213396Y0059217D02*
X0214859Y0059217D01*
X0214869Y0059169D02*
X0213401Y0059169D01*
X0213405Y0059120D02*
X0214879Y0059120D01*
X0214889Y0059072D02*
X0213414Y0059072D01*
X0213422Y0059023D02*
X0214901Y0059023D01*
X0214916Y0058975D02*
X0213431Y0058975D01*
X0213439Y0058926D02*
X0214931Y0058926D01*
X0214946Y0058878D02*
X0213453Y0058878D01*
X0213468Y0058829D02*
X0214963Y0058829D01*
X0214987Y0058781D02*
X0213483Y0058781D01*
X0213499Y0058732D02*
X0215010Y0058732D01*
X0215034Y0058684D02*
X0213514Y0058684D01*
X0213529Y0058635D02*
X0215059Y0058635D01*
X0215086Y0058587D02*
X0213544Y0058587D01*
X0213560Y0058538D02*
X0215113Y0058538D01*
X0215140Y0058489D02*
X0213575Y0058489D01*
X0213590Y0058441D02*
X0215179Y0058441D01*
X0215222Y0058392D02*
X0213605Y0058392D01*
X0213621Y0058344D02*
X0215265Y0058344D01*
X0215311Y0058295D02*
X0213641Y0058295D01*
X0213667Y0058247D02*
X0215359Y0058247D01*
X0215408Y0058198D02*
X0213694Y0058198D01*
X0213720Y0058150D02*
X0215465Y0058150D01*
X0215532Y0058101D02*
X0213746Y0058101D01*
X0213773Y0058053D02*
X0215598Y0058053D01*
X0215681Y0058004D02*
X0213799Y0058004D01*
X0213825Y0057956D02*
X0215764Y0057956D01*
X0215866Y0057907D02*
X0213852Y0057907D01*
X0213878Y0057859D02*
X0215973Y0057859D01*
X0216127Y0057810D02*
X0213904Y0057810D01*
X0213932Y0057762D02*
X0216311Y0057762D01*
X0216671Y0057713D02*
X0213969Y0057713D01*
X0214006Y0057665D02*
X0219713Y0057665D01*
X0219753Y0057713D02*
X0217079Y0057713D01*
X0217446Y0057762D02*
X0219781Y0057762D01*
X0219808Y0057810D02*
X0217634Y0057810D01*
X0217784Y0057859D02*
X0219834Y0057859D01*
X0219861Y0057907D02*
X0217897Y0057907D01*
X0218002Y0057956D02*
X0219888Y0057956D01*
X0219914Y0058004D02*
X0218086Y0058004D01*
X0218169Y0058053D02*
X0219941Y0058053D01*
X0219968Y0058101D02*
X0218237Y0058101D01*
X0218304Y0058150D02*
X0219994Y0058150D01*
X0220021Y0058198D02*
X0218364Y0058198D01*
X0218413Y0058247D02*
X0220048Y0058247D01*
X0220069Y0058295D02*
X0218463Y0058295D01*
X0218509Y0058344D02*
X0220088Y0058344D01*
X0220107Y0058392D02*
X0218553Y0058392D01*
X0218596Y0058441D02*
X0220125Y0058441D01*
X0220142Y0058489D02*
X0218636Y0058489D01*
X0218664Y0058538D02*
X0220157Y0058538D01*
X0220172Y0058587D02*
X0218692Y0058587D01*
X0218720Y0058635D02*
X0220187Y0058635D01*
X0220202Y0058684D02*
X0218747Y0058684D01*
X0218772Y0058732D02*
X0220217Y0058732D01*
X0220232Y0058781D02*
X0218797Y0058781D01*
X0218822Y0058829D02*
X0220247Y0058829D01*
X0220261Y0058878D02*
X0218839Y0058878D01*
X0218854Y0058926D02*
X0220272Y0058926D01*
X0220284Y0058975D02*
X0218869Y0058975D01*
X0218884Y0059023D02*
X0220295Y0059023D01*
X0220305Y0059072D02*
X0218897Y0059072D01*
X0218908Y0059120D02*
X0220310Y0059120D01*
X0220314Y0059169D02*
X0218919Y0059169D01*
X0218930Y0059217D02*
X0220319Y0059217D01*
X0220324Y0059266D02*
X0218939Y0059266D01*
X0218943Y0059314D02*
X0220329Y0059314D01*
X0220334Y0059363D02*
X0218948Y0059363D01*
X0218953Y0059411D02*
X0220339Y0059411D01*
X0220344Y0059460D02*
X0218957Y0059460D01*
X0218959Y0059508D02*
X0220349Y0059508D01*
X0220354Y0059557D02*
X0218961Y0059557D01*
X0218963Y0059605D02*
X0220359Y0059605D01*
X0220363Y0059654D02*
X0218965Y0059654D01*
X0218961Y0059702D02*
X0220366Y0059702D01*
X0220366Y0059751D02*
X0218956Y0059751D01*
X0218951Y0059799D02*
X0220366Y0059799D01*
X0220366Y0059848D02*
X0218946Y0059848D01*
X0218937Y0059896D02*
X0220366Y0059896D01*
X0220367Y0059945D02*
X0218926Y0059945D01*
X0218914Y0059993D02*
X0220367Y0059993D01*
X0220367Y0060042D02*
X0218903Y0060042D01*
X0218889Y0060090D02*
X0220367Y0060090D01*
X0220367Y0060139D02*
X0218870Y0060139D01*
X0218852Y0060187D02*
X0220367Y0060187D01*
X0220367Y0060236D02*
X0218833Y0060236D01*
X0218811Y0060284D02*
X0220367Y0060284D01*
X0220367Y0060333D02*
X0218782Y0060333D01*
X0218754Y0060381D02*
X0220367Y0060381D01*
X0220367Y0060430D02*
X0218725Y0060430D01*
X0218689Y0060478D02*
X0220367Y0060478D01*
X0220367Y0060527D02*
X0218649Y0060527D01*
X0218610Y0060575D02*
X0220367Y0060575D01*
X0220367Y0060624D02*
X0218564Y0060624D01*
X0218510Y0060672D02*
X0220367Y0060672D01*
X0220367Y0060721D02*
X0218455Y0060721D01*
X0218400Y0060770D02*
X0220367Y0060770D01*
X0217854Y0060236D02*
X0215968Y0060236D01*
X0215974Y0060265D02*
X0215933Y0060064D01*
X0215912Y0059863D01*
X0215953Y0059662D01*
X0216032Y0059478D01*
X0216155Y0059314D01*
X0217668Y0059314D01*
X0217662Y0059307D02*
X0217785Y0059471D01*
X0217868Y0059653D01*
X0217910Y0059854D01*
X0217892Y0060055D01*
X0217850Y0060256D01*
X0217730Y0060422D01*
X0217590Y0060567D01*
X0217411Y0060667D01*
X0217220Y0060732D01*
X0217017Y0060764D01*
X0216814Y0060765D01*
X0216611Y0060734D01*
X0216419Y0060672D01*
X0217395Y0060672D01*
X0217489Y0060624D02*
X0216332Y0060624D01*
X0216419Y0060672D02*
X0216239Y0060573D01*
X0216097Y0060430D01*
X0215974Y0060265D01*
X0215989Y0060284D02*
X0217829Y0060284D01*
X0217794Y0060333D02*
X0216025Y0060333D01*
X0216061Y0060381D02*
X0217759Y0060381D01*
X0217722Y0060430D02*
X0216098Y0060430D01*
X0216146Y0060478D02*
X0217675Y0060478D01*
X0217629Y0060527D02*
X0216194Y0060527D01*
X0216244Y0060575D02*
X0217576Y0060575D01*
X0217253Y0060721D02*
X0216571Y0060721D01*
X0215958Y0060187D02*
X0217864Y0060187D01*
X0217874Y0060139D02*
X0215948Y0060139D01*
X0215938Y0060090D02*
X0217884Y0060090D01*
X0217893Y0060042D02*
X0215931Y0060042D01*
X0215926Y0059993D02*
X0217897Y0059993D01*
X0217901Y0059945D02*
X0215920Y0059945D01*
X0215915Y0059896D02*
X0217906Y0059896D01*
X0217908Y0059848D02*
X0215915Y0059848D01*
X0215925Y0059799D02*
X0217898Y0059799D01*
X0217888Y0059751D02*
X0215935Y0059751D01*
X0215945Y0059702D02*
X0217878Y0059702D01*
X0217868Y0059654D02*
X0215957Y0059654D01*
X0215978Y0059605D02*
X0217846Y0059605D01*
X0217824Y0059557D02*
X0215999Y0059557D01*
X0216019Y0059508D02*
X0217802Y0059508D01*
X0217777Y0059460D02*
X0216046Y0059460D01*
X0216082Y0059411D02*
X0217741Y0059411D01*
X0217704Y0059363D02*
X0216119Y0059363D01*
X0216155Y0059314D02*
X0216322Y0059200D01*
X0216501Y0059100D01*
X0216907Y0059037D01*
X0217313Y0059098D01*
X0217493Y0059195D01*
X0217662Y0059307D01*
X0217600Y0059266D02*
X0216226Y0059266D01*
X0216297Y0059217D02*
X0217526Y0059217D01*
X0217443Y0059169D02*
X0216378Y0059169D01*
X0216465Y0059120D02*
X0217353Y0059120D01*
X0217135Y0059072D02*
X0216685Y0059072D01*
X0215830Y0056355D02*
X0217882Y0056355D01*
X0217724Y0056306D02*
X0215986Y0056306D01*
X0216184Y0056258D02*
X0217566Y0056258D01*
X0217108Y0056209D02*
X0216607Y0056209D01*
X0215673Y0056403D02*
X0218040Y0056403D01*
X0218183Y0056452D02*
X0215517Y0056452D01*
X0215422Y0056501D02*
X0218290Y0056501D01*
X0218388Y0056549D02*
X0215332Y0056549D01*
X0215241Y0056598D02*
X0218477Y0056598D01*
X0218566Y0056646D02*
X0215151Y0056646D01*
X0215060Y0056695D02*
X0218656Y0056695D01*
X0218739Y0056743D02*
X0214970Y0056743D01*
X0214899Y0056792D02*
X0218815Y0056792D01*
X0218888Y0056840D02*
X0214832Y0056840D01*
X0214768Y0056889D02*
X0218946Y0056889D01*
X0219004Y0056937D02*
X0214709Y0056937D01*
X0214650Y0056986D02*
X0219061Y0056986D01*
X0219119Y0057034D02*
X0214591Y0057034D01*
X0214533Y0057083D02*
X0219177Y0057083D01*
X0219234Y0057131D02*
X0214474Y0057131D01*
X0214423Y0057180D02*
X0219292Y0057180D01*
X0219350Y0057228D02*
X0214373Y0057228D01*
X0214323Y0057277D02*
X0219393Y0057277D01*
X0219433Y0057325D02*
X0214282Y0057325D01*
X0214242Y0057374D02*
X0219473Y0057374D01*
X0219513Y0057422D02*
X0214202Y0057422D01*
X0214162Y0057471D02*
X0219553Y0057471D01*
X0219593Y0057519D02*
X0214122Y0057519D01*
X0214082Y0057568D02*
X0219633Y0057568D01*
X0219673Y0057616D02*
X0214043Y0057616D01*
M02*
